<?xml version="1.0" encoding="UTF-8" standalone="no"?>
<svg
   xmlns:dc="http://purl.org/dc/elements/1.1/"
   xmlns:cc="http://creativecommons.org/ns#"
   xmlns:rdf="http://www.w3.org/1999/02/22-rdf-syntax-ns#"
   xmlns:svg="http://www.w3.org/2000/svg"
   xmlns="http://www.w3.org/2000/svg"
   viewBox="0 0 734.20288 500.02578"
   height="500.02576"
   width="734.20288"
   xml:space="preserve"
   id="svg2"
   version="1.1"><metadata
     id="metadata8"><rdf:RDF><cc:Work
         rdf:about=""><dc:format>image/svg+xml</dc:format><dc:type
           rdf:resource="http://purl.org/dc/dcmitype/StillImage" /><dc:title></dc:title></cc:Work></rdf:RDF></metadata><defs
     id="defs6"><clipPath
       id="clipPath18"
       clipPathUnits="userSpaceOnUse"><path
         style="clip-rule:evenodd"
         id="path16"
         d="M 0,0 H 2483.3333 V 3506.0588 H 0 Z" /></clipPath><clipPath
       id="clipPath32"
       clipPathUnits="userSpaceOnUse"><path
         style="clip-rule:evenodd"
         id="path30"
         d="M 0,0 H 2483.3333 V 3506.0588 H 0 Z" /></clipPath></defs><g
     transform="matrix(0.31999998,0,0,0.31999998,-37.42995,-19.194846)"
     id="g10"><g
       id="g26"><g
         clip-path="url(#clipPath32)"
         id="g28"><g
           transform="matrix(2.9991949,0,0,2.9991949,1.4995974,1.4995974)"
           id="g34"><path
             id="path36"
             style="fill:none;stroke:#000000;stroke-width:1;stroke-linecap:butt;stroke-linejoin:miter;stroke-miterlimit:10;stroke-dasharray:none;stroke-opacity:1"
             d="M 40,308 70,168 134.09,142.36999" /><path
             id="path38"
             style="fill:#000000;fill-opacity:1;fill-rule:nonzero;stroke:none"
             d="m 138.96001,140.42 -5.20002,5.83999 0.33001,-3.89 -2.93,-2.59999 z" /><path
             id="path40"
             style="fill:none;stroke:#000000;stroke-width:1;stroke-linecap:butt;stroke-linejoin:miter;stroke-miterlimit:10;stroke-dasharray:none;stroke-opacity:1"
             d="m 138.96001,140.42 -5.20002,5.83999 0.33001,-3.89 -2.93,-2.59999 z" /></g><g
           transform="scale(2.9991949)"
           id="g42"><path
             id="path44"
             style="fill:#ffffff;fill-opacity:1;fill-rule:nonzero;stroke:none"
             d="m 45,195 h 37 v 13 H 45 Z" /><text
             id="text48"
             style="font-variant:normal;font-weight:normal;font-size:11px;font-family:'Helvetica Neue';-inkscape-font-specification:Helvetica;writing-mode:lr-tb;fill:#000000;fill-opacity:1;fill-rule:nonzero;stroke:none"
             transform="translate(44.546875,205)"><tspan
               id="tspan46"
               y="0"
               x="0 2.4438477 8.5615234 14.061523 20.179199 23.235352 25.679199 31.796875">location</tspan></text>
</g><g
           transform="matrix(2.9991949,0,0,2.9991949,1.4995974,1.4995974)"
           id="g50"><path
             id="path52"
             style="fill:none;stroke:#000000;stroke-width:1;stroke-linecap:butt;stroke-linejoin:miter;stroke-miterlimit:10;stroke-dasharray:none;stroke-opacity:1"
             d="M 55,288 155.7,179.7" /><path
             id="path54"
             style="fill:#000000;fill-opacity:1;fill-rule:nonzero;stroke:none"
             d="m 159.28,175.86 -2.20999,7.51 -1.37001,-3.67 -3.75,-1.09999 z" /><path
             id="path56"
             style="fill:none;stroke:#000000;stroke-width:1;stroke-linecap:butt;stroke-linejoin:miter;stroke-miterlimit:10;stroke-dasharray:none;stroke-opacity:1"
             d="m 159.28,175.86 -2.20999,7.51 -1.37001,-3.67 -3.75,-1.09999 z" /></g><g
           transform="scale(2.9991949)"
           id="g58"><path
             id="path60"
             style="fill:#ffffff;fill-opacity:1;fill-rule:nonzero;stroke:none"
             d="m 88,226 h 39 v 13 H 88 Z" /><text
             id="text64"
             style="font-variant:normal;font-weight:normal;font-size:11px;font-family:'Helvetica Neue';-inkscape-font-specification:Helvetica;writing-mode:lr-tb;fill:#000000;fill-opacity:1;fill-rule:nonzero;stroke:none"
             transform="translate(88.234375,236)"><tspan
               id="tspan62"
               y="0"
               x="0 5.5 11.617676 17.735352 23.235352 29.353027 35.470703">consent</tspan></text>
</g><g
           transform="matrix(2.9991949,0,0,2.9991949,1.4995974,1.4995974)"
           id="g66"><path
             id="path68"
             style="fill:none;stroke:#000000;stroke-width:1;stroke-linecap:butt;stroke-linejoin:miter;stroke-miterlimit:10;stroke-dasharray:none;stroke-opacity:1"
             d="m 70,308 80,-78 h 50 v 180 h 270 l 32.06,-18.53" /><path
             id="path70"
             style="fill:#000000;fill-opacity:1;fill-rule:nonzero;stroke:none"
             d="m 506.60999,388.84 -4.31,6.54 -0.23999,-3.91 -3.26999,-2.14999 z" /><path
             id="path72"
             style="fill:none;stroke:#000000;stroke-width:1;stroke-linecap:butt;stroke-linejoin:miter;stroke-miterlimit:10;stroke-dasharray:none;stroke-opacity:1"
             d="m 506.60999,388.84 -4.31,6.54 -0.23999,-3.91 -3.26999,-2.14999 z" /></g><g
           transform="scale(2.9991949)"
           id="g74"><path
             id="path76"
             style="fill:#ffffff;fill-opacity:1;fill-rule:nonzero;stroke:none"
             d="m 181,390 h 39 v 13 h -39 z" /><text
             id="text80"
             style="font-variant:normal;font-weight:normal;font-size:11px;font-family:'Helvetica Neue';-inkscape-font-specification:Helvetica;writing-mode:lr-tb;fill:#000000;fill-opacity:1;fill-rule:nonzero;stroke:none"
             transform="translate(181.23438,400)"><tspan
               id="tspan78"
               y="0"
               x="0 5.5 11.617676 17.735352 23.235352 29.353027 35.470703">consent</tspan></text>
</g><g
           transform="matrix(2.9991949,0,0,2.9991949,1.4995974,1.4995974)"
           id="g82"><path
             id="path84"
             style="fill:#ffffff;fill-opacity:1;fill-rule:nonzero;stroke:none"
             d="m 62.5,295.5 c -4e-6,0.49246 -0.04804,0.98016 -0.144119,1.46317 -0.09607,0.483 -0.238339,0.95196 -0.426796,1.40695 -0.188454,0.45495 -0.41948,0.88717 -0.693073,1.29663 -0.273594,0.40945 -0.5845,0.7883 -0.932717,1.13653 -0.348221,0.34821 -0.727062,0.65912 -1.136528,0.93271 -0.409466,0.27359 -0.841682,0.50464 -1.29665,0.69309 -0.454967,0.18844 -0.92395,0.33072 -1.406944,0.42679 C 55.980179,302.95193 55.492455,302.99997 55,303 c -0.492458,-3e-5 -0.980186,-0.0481 -1.463181,-0.14413 -0.482997,-0.0961 -0.95198,-0.23835 -1.406951,-0.42679 -0.454972,-0.18845 -0.887188,-0.4195 -1.296654,-0.69309 -0.409462,-0.27359 -0.788304,-0.5845 -1.136521,-0.93271 -0.34822,-0.34823 -0.65913,-0.72708 -0.932724,-1.13653 -0.273593,-0.40946 -0.504615,-0.84168 -0.693073,-1.29663 -0.188454,-0.45499 -0.330715,-0.92395 -0.426788,-1.40695 C 47.548035,296.48016 47.499996,295.99246 47.5,295.5 c -4e-6,-0.49246 0.04803,-0.98019 0.144104,-1.4632 0.09607,-0.483 0.238338,-0.95196 0.426792,-1.40695 0.188458,-0.45498 0.41948,-0.8872 0.693073,-1.29666 0.273594,-0.40948 0.584504,-0.78833 0.932724,-1.13653 0.348217,-0.34824 0.727059,-0.65912 1.136525,-0.93271 0.409462,-0.27359 0.841678,-0.50461 1.29665,-0.69306 0.454971,-0.18844 0.923954,-0.33072 1.406951,-0.42679 C 54.019814,288.04803 54.507542,288 55,288 c 0.492455,0 0.980179,0.048 1.463173,0.1441 0.482994,0.0961 0.951977,0.23835 1.406944,0.42679 0.454968,0.18845 0.887184,0.41947 1.29665,0.69306 0.409466,0.27359 0.788307,0.58447 1.136528,0.93271 0.348217,0.3482 0.659123,0.72705 0.932717,1.13653 0.273593,0.40946 0.504619,0.84168 0.693073,1.29666 0.188457,0.45499 0.330723,0.92395 0.426796,1.40695 0.09608,0.48301 0.144115,0.97074 0.144119,1.4632 z" /><path
             id="path86"
             style="fill:none;stroke:#000000;stroke-width:1;stroke-linecap:butt;stroke-linejoin:miter;stroke-miterlimit:10;stroke-dasharray:none;stroke-opacity:1"
             d="m 62.5,295.5 c -4e-6,0.49246 -0.04804,0.98016 -0.144119,1.46317 -0.09607,0.483 -0.238339,0.95196 -0.426796,1.40695 -0.188454,0.45495 -0.41948,0.88717 -0.693073,1.29663 -0.273594,0.40945 -0.5845,0.7883 -0.932717,1.13653 -0.348221,0.34821 -0.727062,0.65912 -1.136528,0.93271 -0.409466,0.27359 -0.841682,0.50464 -1.29665,0.69309 -0.454967,0.18844 -0.92395,0.33072 -1.406944,0.42679 C 55.980179,302.95193 55.492455,302.99997 55,303 c -0.492458,-3e-5 -0.980186,-0.0481 -1.463181,-0.14413 -0.482997,-0.0961 -0.95198,-0.23835 -1.406951,-0.42679 -0.454972,-0.18845 -0.887188,-0.4195 -1.296654,-0.69309 -0.409462,-0.27359 -0.788304,-0.5845 -1.136521,-0.93271 -0.34822,-0.34823 -0.65913,-0.72708 -0.932724,-1.13653 -0.273593,-0.40946 -0.504615,-0.84168 -0.693073,-1.29663 -0.188454,-0.45499 -0.330715,-0.92395 -0.426788,-1.40695 C 47.548035,296.48016 47.499996,295.99246 47.5,295.5 c -4e-6,-0.49246 0.04803,-0.98019 0.144104,-1.4632 0.09607,-0.483 0.238338,-0.95196 0.426792,-1.40695 0.188458,-0.45498 0.41948,-0.8872 0.693073,-1.29666 0.273594,-0.40948 0.584504,-0.78833 0.932724,-1.13653 0.348217,-0.34824 0.727059,-0.65912 1.136525,-0.93271 0.409462,-0.27359 0.841678,-0.50461 1.29665,-0.69306 0.454971,-0.18844 0.923954,-0.33072 1.406951,-0.42679 C 54.019814,288.04803 54.507542,288 55,288 c 0.492455,0 0.980179,0.048 1.463173,0.1441 0.482994,0.0961 0.951977,0.23835 1.406944,0.42679 0.454968,0.18845 0.887184,0.41947 1.29665,0.69306 0.409466,0.27359 0.788307,0.58447 1.136528,0.93271 0.348217,0.3482 0.659123,0.72705 0.932717,1.13653 0.273593,0.40946 0.504619,0.84168 0.693073,1.29666 0.188457,0.45499 0.330723,0.92395 0.426796,1.40695 0.09608,0.48301 0.144115,0.97074 0.144119,1.4632 z" /><path
             id="path88"
             style="fill:none;stroke:#000000;stroke-width:1;stroke-linecap:butt;stroke-linejoin:miter;stroke-miterlimit:10;stroke-dasharray:none;stroke-opacity:1"
             d="m 55,303 v 25 m 0,-20 H 40 m 15,0 h 15 m -15,20 -15,20 m 15,-20 15,20" /></g><g
           transform="scale(2.9991949)"
           id="g90"><text
             id="text94"
             style="font-variant:normal;font-weight:normal;font-size:12px;font-family:'Helvetica Neue';-inkscape-font-specification:Helvetica;writing-mode:lr-tb;fill:#000000;fill-opacity:1;fill-rule:nonzero;stroke:none"
             transform="translate(42.828125,366)"><tspan
               id="tspan92"
               y="0"
               x="0 8.6660156 14.666016 21.339844">User</tspan></text>
</g><g
           transform="matrix(2.9991949,0,0,2.9991949,1.4995974,1.4995974)"
           id="g96"><path
             id="path98"
             style="fill:none;stroke:#000000;stroke-width:1;stroke-linecap:butt;stroke-linejoin:miter;stroke-miterlimit:10;stroke-dasharray:none;stroke-opacity:1"
             d="M 259.56,135.17999 404.10001,123.37" /><path
             id="path100"
             style="fill:#000000;fill-opacity:1;fill-rule:nonzero;stroke:none"
             d="m 409.32999,122.94 -6.68998,4.06 1.46,-3.63 -2.03,-3.34 z" /><path
             id="path102"
             style="fill:none;stroke:#000000;stroke-width:1;stroke-linecap:butt;stroke-linejoin:miter;stroke-miterlimit:10;stroke-dasharray:none;stroke-opacity:1"
             d="m 409.32999,122.94 -6.68998,4.06 1.46,-3.63 -2.03,-3.34 z" /></g><g
           transform="scale(2.9991949)"
           id="g104"><path
             id="path106"
             style="fill:#ffffff;fill-opacity:1;fill-rule:nonzero;stroke:none"
             d="m 317,123 h 37 v 13 h -37 z" /><text
             id="text110"
             style="font-variant:normal;font-weight:normal;font-size:11px;font-family:'Helvetica Neue';-inkscape-font-specification:Helvetica;writing-mode:lr-tb;fill:#000000;fill-opacity:1;fill-rule:nonzero;stroke:none"
             transform="translate(316.54688,133)"><tspan
               id="tspan108"
               y="0"
               x="0 2.4438477 8.5615234 14.061523 20.179199 23.235352 25.679199 31.796875">location</tspan></text>
</g><g
           transform="matrix(2.9991949,0,0,2.9991949,1.4995974,1.4995974)"
           id="g112"><path
             id="path114"
             style="fill:#ffe6cc;fill-opacity:1;fill-rule:nonzero;stroke:none"
             d="m 260,140 c 0,1.31004 -0.0963,2.61694 -0.28894,3.92067 -0.1926,1.30374 -0.48059,2.59805 -0.86395,3.88293 -0.38336,1.28489 -0.86026,2.55414 -1.4307,3.80779 -0.57043,1.25365 -1.23166,2.48562 -1.98367,3.69594 -0.75198,1.21034 -1.59114,2.39319 -2.51746,3.54853 -0.92634,1.15537 -1.93538,2.27768 -3.02713,3.36695 -1.09172,1.08926 -2.26089,2.14024 -3.50752,3.15294 -1.24663,1.01266 -2.5647,1.98218 -3.95422,2.90852 -1.38951,0.92635 -2.84378,1.80505 -4.36281,2.63614 -1.51903,0.83107 -3.09549,1.61052 -4.7294,2.33835 -1.6339,0.72783 -3.31735,1.40053 -5.05039,2.01808 -1.73304,0.61755 -3.50731,1.177 -5.32281,1.67833 -1.81548,0.50136 -3.66345,0.94217 -5.54393,1.32245 -1.88045,0.38029 -3.78435,0.69821 -5.71167,0.95378 -1.92731,0.2556 -3.86876,0.4476 -5.82437,0.576 C 203.92542,179.93581 201.96507,180 200,180 c -1.96507,0 -3.92543,-0.0642 -5.88104,-0.1926 -1.95561,-0.1284 -3.8971,-0.32039 -5.82442,-0.57599 -1.92731,-0.25556 -3.83118,-0.57348 -5.71162,-0.95378 -1.88047,-0.38029 -3.72844,-0.8211 -5.54395,-1.32245 -1.81547,-0.50134 -3.58974,-1.06079 -5.32278,-1.67834 -1.73305,-0.61755 -3.41652,-1.29025 -5.05043,-2.01808 -1.63388,-0.72783 -3.21033,-1.50728 -4.72936,-2.33835 -1.51901,-0.83109 -2.97328,-1.70979 -4.36282,-2.63614 -1.38951,-0.92634 -2.7076,-1.89586 -3.95423,-2.90852 -1.24662,-1.0127 -2.41581,-2.06368 -3.50756,-3.15294 -1.09173,-1.08927 -2.10076,-2.21158 -3.02709,-3.36695 -0.92633,-1.15534 -1.7655,-2.33819 -2.5175,-3.54853 -0.752,-1.21032 -1.41322,-2.44229 -1.98364,-3.69594 -0.57042,-1.25365 -1.04732,-2.5229 -1.4307,-3.80779 -0.38334,-1.28488 -0.67134,-2.57919 -0.86395,-3.88293 -0.1926,-1.30373 -0.2889,-2.61063 -0.28891,-3.92067 1e-5,-1.31004 0.0963,-2.61694 0.28891,-3.92069 0.19261,-1.30374 0.48061,-2.59805 0.86395,-3.88295 0.38338,-1.28486 0.86028,-2.55412 1.4307,-3.80775 0.57042,-1.25364 1.23164,-2.48562 1.98364,-3.69596 0.752,-1.21032 1.59117,-2.39316 2.5175,-3.54851 0.92633,-1.15537 1.93536,-2.27768 3.02709,-3.36696 1.09175,-1.08925 2.26094,-2.14022 3.50756,-3.15291 1.24663,-1.01268 2.56472,-1.9822 3.95423,-2.90855 1.38954,-0.92634 2.84381,-1.80505 4.36282,-2.63615 1.51903,-0.83109 3.09548,-1.61054 4.72936,-2.33837 1.63391,-0.72783 3.31738,-1.40051 5.05041,-2.01806 1.73305,-0.61755 3.50733,-1.177 5.3228,-1.67833 1.81551,-0.50133 3.66348,-0.94213 5.54395,-1.32242 1.88044,-0.38029 3.78433,-0.69822 5.71164,-0.9538 1.92732,-0.25558 3.86879,-0.44757 5.8244,-0.57597 C 196.07457,100.06421 198.03493,100 200,100 c 1.96507,0 3.92543,0.0642 5.88104,0.19261 1.95561,0.12841 3.89707,0.3204 5.82437,0.57597 1.92733,0.25558 3.83121,0.57351 5.71167,0.9538 1.88048,0.38029 3.72844,0.8211 5.54392,1.32243 1.8155,0.50133 3.58977,1.06078 5.3228,1.67834 1.73305,0.61754 3.4165,1.29023 5.0504,2.01805 1.63391,0.72783 3.21037,1.50729 4.7294,2.33838 1.51903,0.83109 2.9733,1.7098 4.36281,2.63614 1.38952,0.92635 2.70759,1.89587 3.95422,2.90855 1.24663,1.01269 2.4158,2.06366 3.50752,3.15291 1.09175,1.08928 2.10079,2.21159 3.02712,3.36696 0.92633,1.15535 1.76549,2.33819 2.51747,3.54851 0.75201,1.21034 1.41324,2.44233 1.98367,3.69598 0.57044,1.25363 1.04734,2.52288 1.4307,3.80775 0.38336,1.2849 0.67135,2.57921 0.86395,3.88293 C 259.90369,137.38306 260,138.68996 260,140 Z" /><path
             id="path116"
             style="fill:none;stroke:#d79b00;stroke-width:1;stroke-linecap:butt;stroke-linejoin:miter;stroke-miterlimit:10;stroke-dasharray:none;stroke-opacity:1"
             d="m 260,140 c 0,1.31004 -0.0963,2.61694 -0.28894,3.92067 -0.1926,1.30374 -0.48059,2.59805 -0.86395,3.88293 -0.38336,1.28489 -0.86026,2.55414 -1.4307,3.80779 -0.57043,1.25365 -1.23166,2.48562 -1.98367,3.69594 -0.75198,1.21034 -1.59114,2.39319 -2.51746,3.54853 -0.92634,1.15537 -1.93538,2.27768 -3.02713,3.36695 -1.09172,1.08926 -2.26089,2.14024 -3.50752,3.15294 -1.24663,1.01266 -2.5647,1.98218 -3.95422,2.90852 -1.38951,0.92635 -2.84378,1.80505 -4.36281,2.63614 -1.51903,0.83107 -3.09549,1.61052 -4.7294,2.33835 -1.6339,0.72783 -3.31735,1.40053 -5.05039,2.01808 -1.73304,0.61755 -3.50731,1.177 -5.32281,1.67833 -1.81548,0.50136 -3.66345,0.94217 -5.54393,1.32245 -1.88045,0.38029 -3.78435,0.69821 -5.71167,0.95378 -1.92731,0.2556 -3.86876,0.4476 -5.82437,0.576 C 203.92542,179.93581 201.96507,180 200,180 c -1.96507,0 -3.92543,-0.0642 -5.88104,-0.1926 -1.95561,-0.1284 -3.8971,-0.32039 -5.82442,-0.57599 -1.92731,-0.25556 -3.83118,-0.57348 -5.71162,-0.95378 -1.88047,-0.38029 -3.72844,-0.8211 -5.54395,-1.32245 -1.81547,-0.50134 -3.58974,-1.06079 -5.32278,-1.67834 -1.73305,-0.61755 -3.41652,-1.29025 -5.05043,-2.01808 -1.63388,-0.72783 -3.21033,-1.50728 -4.72936,-2.33835 -1.51901,-0.83109 -2.97328,-1.70979 -4.36282,-2.63614 -1.38951,-0.92634 -2.7076,-1.89586 -3.95423,-2.90852 -1.24662,-1.0127 -2.41581,-2.06368 -3.50756,-3.15294 -1.09173,-1.08927 -2.10076,-2.21158 -3.02709,-3.36695 -0.92633,-1.15534 -1.7655,-2.33819 -2.5175,-3.54853 -0.752,-1.21032 -1.41322,-2.44229 -1.98364,-3.69594 -0.57042,-1.25365 -1.04732,-2.5229 -1.4307,-3.80779 -0.38334,-1.28488 -0.67134,-2.57919 -0.86395,-3.88293 -0.1926,-1.30373 -0.2889,-2.61063 -0.28891,-3.92067 1e-5,-1.31004 0.0963,-2.61694 0.28891,-3.92069 0.19261,-1.30374 0.48061,-2.59805 0.86395,-3.88295 0.38338,-1.28486 0.86028,-2.55412 1.4307,-3.80775 0.57042,-1.25364 1.23164,-2.48562 1.98364,-3.69596 0.752,-1.21032 1.59117,-2.39316 2.5175,-3.54851 0.92633,-1.15537 1.93536,-2.27768 3.02709,-3.36696 1.09175,-1.08925 2.26094,-2.14022 3.50756,-3.15291 1.24663,-1.01268 2.56472,-1.9822 3.95423,-2.90855 1.38954,-0.92634 2.84381,-1.80505 4.36282,-2.63615 1.51903,-0.83109 3.09548,-1.61054 4.72936,-2.33837 1.63391,-0.72783 3.31738,-1.40051 5.05041,-2.01806 1.73305,-0.61755 3.50733,-1.177 5.3228,-1.67833 1.81551,-0.50133 3.66348,-0.94213 5.54395,-1.32242 1.88044,-0.38029 3.78433,-0.69822 5.71164,-0.9538 1.92732,-0.25558 3.86879,-0.44757 5.8244,-0.57597 C 196.07457,100.06421 198.03493,100 200,100 c 1.96507,0 3.92543,0.0642 5.88104,0.19261 1.95561,0.12841 3.89707,0.3204 5.82437,0.57597 1.92733,0.25558 3.83121,0.57351 5.71167,0.9538 1.88048,0.38029 3.72844,0.8211 5.54392,1.32243 1.8155,0.50133 3.58977,1.06078 5.3228,1.67834 1.73305,0.61754 3.4165,1.29023 5.0504,2.01805 1.63391,0.72783 3.21037,1.50729 4.7294,2.33838 1.51903,0.83109 2.9733,1.7098 4.36281,2.63614 1.38952,0.92635 2.70759,1.89587 3.95422,2.90855 1.24663,1.01269 2.4158,2.06366 3.50752,3.15291 1.09175,1.08928 2.10079,2.21159 3.02712,3.36696 0.92633,1.15535 1.76549,2.33819 2.51747,3.54851 0.75201,1.21034 1.41324,2.44233 1.98367,3.69598 0.57044,1.25363 1.04734,2.52288 1.4307,3.80775 0.38336,1.2849 0.67135,2.57921 0.86395,3.88293 C 259.90369,137.38306 260,138.68996 260,140 Z" /></g><g
           transform="scale(2.9991949)"
           id="g118"><text
             id="text122"
             style="font-variant:normal;font-weight:normal;font-size:12px;font-family:'Helvetica Neue';-inkscape-font-specification:Helvetica;writing-mode:lr-tb;fill:#000000;fill-opacity:1;fill-rule:nonzero;stroke:none"
             transform="translate(157.96875,145)"><tspan
               id="tspan120"
               y="0"
               x="0 6 12.673828 19.347656 25.347656 29.34375 39.339844 42.673828 45.339844 52.013672 58.013672 64.6875 68.021484 70.6875 77.361328">conﬁrm location</tspan></text>
</g><g
           transform="matrix(2.9991949,0,0,2.9991949,1.4995974,1.4995974)"
           id="g124"><path
             id="path126"
             style="fill:none;stroke:#000000;stroke-width:1;stroke-linecap:butt;stroke-linejoin:miter;stroke-miterlimit:10;stroke-dasharray:none;stroke-opacity:1"
             d="m 470,158 v 53.63" /><path
             id="path128"
             style="fill:#000000;fill-opacity:1;fill-rule:nonzero;stroke:none"
             d="m 470,216.88 -3.5,-7 3.5,1.75 3.5,-1.75 z" /><path
             id="path130"
             style="fill:none;stroke:#000000;stroke-width:1;stroke-linecap:butt;stroke-linejoin:miter;stroke-miterlimit:10;stroke-dasharray:none;stroke-opacity:1"
             d="m 470,216.88 -3.5,-7 3.5,1.75 3.5,-1.75 z" /></g><g
           transform="scale(2.9991949)"
           id="g132"><path
             id="path134"
             style="fill:#ffffff;fill-opacity:1;fill-rule:nonzero;stroke:none"
             d="m 452,182 h 37 v 13 h -37 z" /><text
             id="text138"
             style="font-variant:normal;font-weight:normal;font-size:11px;font-family:'Helvetica Neue';-inkscape-font-specification:Helvetica;writing-mode:lr-tb;fill:#000000;fill-opacity:1;fill-rule:nonzero;stroke:none"
             transform="translate(451.54688,192)"><tspan
               id="tspan136"
               y="0"
               x="0 2.4438477 8.5615234 14.061523 20.179199 23.235352 25.679199 31.796875">location</tspan></text>
</g><g
           transform="matrix(2.9991949,0,0,2.9991949,1.4995974,1.4995974)"
           id="g140"><path
             id="path142"
             style="fill:#d5e8d4;fill-opacity:1;fill-rule:nonzero;stroke:none"
             d="m 530,118 c 0,1.31005 -0.0963,2.61695 -0.28894,3.92069 -0.19257,1.30373 -0.48059,2.59803 -0.86401,3.88291 -0.38337,1.28487 -0.86023,2.55413 -1.43067,3.80777 -0.57037,1.25363 -1.23163,2.48561 -1.98364,3.69594 -0.75201,1.21034 -1.59113,2.39319 -2.51746,3.54855 -0.92633,1.15535 -1.93536,2.27767 -3.0271,3.36693 -1.09173,1.08928 -2.26092,2.14025 -3.50756,3.15293 -1.24665,1.01268 -2.56476,1.98219 -3.95423,2.90854 -1.38949,0.92634 -2.84378,1.80505 -4.36279,2.63612 -1.51904,0.8311 -3.09552,1.61055 -4.72943,2.33838 -1.63388,0.72783 -3.31735,1.40053 -5.05042,2.01808 -1.733,0.61754 -3.50726,1.17699 -5.32278,1.67831 -1.81546,0.50135 -3.66342,0.94216 -5.54389,1.32244 -1.88046,0.38029 -3.78436,0.69824 -5.7117,0.95381 -1.92727,0.25558 -3.86874,0.44759 -5.82434,0.57599 C 473.92542,157.93579 471.96506,158 470,158 c -1.96506,0 -3.92542,-0.0642 -5.88101,-0.19261 -1.95563,-0.1284 -3.8971,-0.32041 -5.82443,-0.57599 -1.92731,-0.25557 -3.83118,-0.57352 -5.71161,-0.95381 -1.88047,-0.38028 -3.72846,-0.82109 -5.54398,-1.32244 -1.81546,-0.50132 -3.58972,-1.06077 -5.32278,-1.67833 -1.73307,-0.61753 -3.41654,-1.29023 -5.05045,-2.01806 -1.63388,-0.72783 -3.21033,-1.50728 -4.72934,-2.33836 -1.51904,-0.83109 -2.97333,-1.7098 -4.36282,-2.63614 -1.3895,-0.92635 -2.70758,-1.89586 -3.9542,-2.90854 -1.24664,-1.01268 -2.41583,-2.06365 -3.50759,-3.15293 -1.09171,-1.08926 -2.10074,-2.21158 -3.02707,-3.36693 -0.92636,-1.15536 -1.76554,-2.33821 -2.51752,-3.54855 -0.75198,-1.21033 -1.41318,-2.44231 -1.98361,-3.69594 -0.57044,-1.25364 -1.04734,-2.5229 -1.43073,-3.80777 -0.38333,-1.28488 -0.67132,-2.57918 -0.86395,-3.88291 C 410.09631,120.61695 410,119.31005 410,118 c 0,-1.31004 0.0963,-2.61694 0.28891,-3.92069 0.19263,-1.30374 0.48062,-2.59805 0.86395,-3.88293 0.38339,-1.28487 0.86029,-2.55413 1.43073,-3.80778 0.57043,-1.25363 1.23166,-2.48561 1.98364,-3.69594 0.75201,-1.21032 1.59119,-2.39317 2.51752,-3.548533 0.92633,-1.155357 1.93536,-2.277672 3.02707,-3.366943 1.09176,-1.089264 2.26095,-2.140236 3.5076,-3.152916 1.24661,-1.012688 2.56466,-1.982201 3.95416,-2.908547 1.38949,-0.926346 2.84378,-1.805061 4.36282,-2.636139 1.51901,-0.831093 3.09546,-1.610557 4.72934,-2.338379 1.63391,-0.727821 3.31738,-1.400512 5.05042,-2.018058 1.73306,-0.617554 3.50735,-1.176995 5.32281,-1.67833 1.81552,-0.501335 3.66351,-0.942139 5.54398,-1.322426 1.88043,-0.380287 3.7843,-0.698227 5.71161,-0.953804 1.92733,-0.255577 3.8688,-0.447563 5.82443,-0.575973 C 466.07458,78.064201 468.03494,78 470,78 c 1.96506,0 3.92542,0.0642 5.88101,0.192612 1.9556,0.12841 3.89707,0.320396 5.82434,0.575973 1.92734,0.255577 3.83124,0.573517 5.7117,0.953804 1.8805,0.380287 3.72846,0.821091 5.54392,1.322426 1.81552,0.501335 3.58978,1.060776 5.32278,1.67833 1.73307,0.617553 3.41654,1.290245 5.05042,2.018066 1.63391,0.727821 3.21039,1.507278 4.7294,2.338371 1.51904,0.831078 2.97333,1.709793 4.36282,2.636139 1.38947,0.926346 2.70758,1.895859 3.95423,2.908547 1.24664,1.01268 2.41583,2.063652 3.50756,3.152916 1.09174,1.089263 2.10077,2.211578 3.0271,3.366943 0.92633,1.155353 1.76545,2.338193 2.51746,3.548523 0.75201,1.21034 1.41327,2.44231 1.98364,3.69595 0.57044,1.25365 1.0473,2.52291 1.43067,3.80778 0.38342,1.28488 0.67144,2.57919 0.86401,3.88293 C 529.90369,115.38306 530,116.68996 530,118 Z" /><path
             id="path144"
             style="fill:none;stroke:#82b366;stroke-width:1;stroke-linecap:butt;stroke-linejoin:miter;stroke-miterlimit:10;stroke-dasharray:none;stroke-opacity:1"
             d="m 530,118 c 0,1.31005 -0.0963,2.61695 -0.28894,3.92069 -0.19257,1.30373 -0.48059,2.59803 -0.86401,3.88291 -0.38337,1.28487 -0.86023,2.55413 -1.43067,3.80777 -0.57037,1.25363 -1.23163,2.48561 -1.98364,3.69594 -0.75201,1.21034 -1.59113,2.39319 -2.51746,3.54855 -0.92633,1.15535 -1.93536,2.27767 -3.0271,3.36693 -1.09173,1.08928 -2.26092,2.14025 -3.50756,3.15293 -1.24665,1.01268 -2.56476,1.98219 -3.95423,2.90854 -1.38949,0.92634 -2.84378,1.80505 -4.36279,2.63612 -1.51904,0.8311 -3.09552,1.61055 -4.72943,2.33838 -1.63388,0.72783 -3.31735,1.40053 -5.05042,2.01808 -1.733,0.61754 -3.50726,1.17699 -5.32278,1.67831 -1.81546,0.50135 -3.66342,0.94216 -5.54389,1.32244 -1.88046,0.38029 -3.78436,0.69824 -5.7117,0.95381 -1.92727,0.25558 -3.86874,0.44759 -5.82434,0.57599 C 473.92542,157.93579 471.96506,158 470,158 c -1.96506,0 -3.92542,-0.0642 -5.88101,-0.19261 -1.95563,-0.1284 -3.8971,-0.32041 -5.82443,-0.57599 -1.92731,-0.25557 -3.83118,-0.57352 -5.71161,-0.95381 -1.88047,-0.38028 -3.72846,-0.82109 -5.54398,-1.32244 -1.81546,-0.50132 -3.58972,-1.06077 -5.32278,-1.67833 -1.73307,-0.61753 -3.41654,-1.29023 -5.05045,-2.01806 -1.63388,-0.72783 -3.21033,-1.50728 -4.72934,-2.33836 -1.51904,-0.83109 -2.97333,-1.7098 -4.36282,-2.63614 -1.3895,-0.92635 -2.70758,-1.89586 -3.9542,-2.90854 -1.24664,-1.01268 -2.41583,-2.06365 -3.50759,-3.15293 -1.09171,-1.08926 -2.10074,-2.21158 -3.02707,-3.36693 -0.92636,-1.15536 -1.76554,-2.33821 -2.51752,-3.54855 -0.75198,-1.21033 -1.41318,-2.44231 -1.98361,-3.69594 -0.57044,-1.25364 -1.04734,-2.5229 -1.43073,-3.80777 -0.38333,-1.28488 -0.67132,-2.57918 -0.86395,-3.88291 C 410.09631,120.61695 410,119.31005 410,118 c 0,-1.31004 0.0963,-2.61694 0.28891,-3.92069 0.19263,-1.30374 0.48062,-2.59805 0.86395,-3.88293 0.38339,-1.28487 0.86029,-2.55413 1.43073,-3.80778 0.57043,-1.25363 1.23166,-2.48561 1.98364,-3.69594 0.75201,-1.21032 1.59119,-2.39317 2.51752,-3.548533 0.92633,-1.155357 1.93536,-2.277672 3.02707,-3.366943 1.09176,-1.089264 2.26095,-2.140236 3.5076,-3.152916 1.24661,-1.012688 2.56466,-1.982201 3.95416,-2.908547 1.38949,-0.926346 2.84378,-1.805061 4.36282,-2.636139 1.51901,-0.831093 3.09546,-1.610557 4.72934,-2.338379 1.63391,-0.727821 3.31738,-1.400512 5.05042,-2.018058 1.73306,-0.617554 3.50735,-1.176995 5.32281,-1.67833 1.81552,-0.501335 3.66351,-0.942139 5.54398,-1.322426 1.88043,-0.380287 3.7843,-0.698227 5.71161,-0.953804 1.92733,-0.255577 3.8688,-0.447563 5.82443,-0.575973 C 466.07458,78.064201 468.03494,78 470,78 c 1.96506,0 3.92542,0.0642 5.88101,0.192612 1.9556,0.12841 3.89707,0.320396 5.82434,0.575973 1.92734,0.255577 3.83124,0.573517 5.7117,0.953804 1.8805,0.380287 3.72846,0.821091 5.54392,1.322426 1.81552,0.501335 3.58978,1.060776 5.32278,1.67833 1.73307,0.617553 3.41654,1.290245 5.05042,2.018066 1.63391,0.727821 3.21039,1.507278 4.7294,2.338371 1.51904,0.831078 2.97333,1.709793 4.36282,2.636139 1.38947,0.926346 2.70758,1.895859 3.95423,2.908547 1.24664,1.01268 2.41583,2.063652 3.50756,3.152916 1.09174,1.089263 2.10077,2.211578 3.0271,3.366943 0.92633,1.155353 1.76545,2.338193 2.51746,3.548523 0.75201,1.21034 1.41327,2.44231 1.98364,3.69595 0.57044,1.25365 1.0473,2.52291 1.43067,3.80778 0.38342,1.28488 0.67144,2.57919 0.86401,3.88293 C 529.90369,115.38306 530,116.68996 530,118 Z" /></g><g
           transform="scale(2.9991949)"
           id="g146"><text
             id="text150"
             style="font-variant:normal;font-weight:normal;font-size:12px;font-family:'Helvetica Neue';-inkscape-font-specification:Helvetica;writing-mode:lr-tb;fill:#000000;fill-opacity:1;fill-rule:nonzero;stroke:none"
             transform="translate(430.64063,123)"><tspan
               id="tspan148"
               y="0"
               x="0 3.9960938 10.669922 16.669922 23.34375 27.339844 34.013672 37.347656 40.013672 46.6875 52.6875 59.361328 62.695312 65.361328 72.035156">record location</tspan></text>
</g><g
           transform="matrix(2.9991949,0,0,2.9991949,1.4995974,1.4995974)"
           id="g152"><path
             id="path154"
             style="fill:none;stroke:#000000;stroke-width:1;stroke-linecap:butt;stroke-linejoin:miter;stroke-miterlimit:10;stroke-dasharray:none;stroke-opacity:1"
             d="m 430,360 h 53.63" /><path
             id="path156"
             style="fill:#000000;fill-opacity:1;fill-rule:nonzero;stroke:none"
             d="m 488.88,360 -7,3.5 1.75,-3.5 -1.75,-3.5 z" /><path
             id="path158"
             style="fill:none;stroke:#000000;stroke-width:1;stroke-linecap:butt;stroke-linejoin:miter;stroke-miterlimit:10;stroke-dasharray:none;stroke-opacity:1"
             d="m 488.88,360 -7,3.5 1.75,-3.5 -1.75,-3.5 z" /></g><g
           transform="scale(2.9991949)"
           id="g160"><path
             id="path162"
             style="fill:#ffffff;fill-opacity:1;fill-rule:nonzero;stroke:none"
             d="m 440,354 h 41 v 13 h -41 z" /><text
             id="text166"
             style="font-variant:normal;font-weight:normal;font-size:11px;font-family:'Helvetica Neue';-inkscape-font-specification:Helvetica;writing-mode:lr-tb;fill:#000000;fill-opacity:1;fill-rule:nonzero;stroke:none"
             transform="translate(440.01563,364)"><tspan
               id="tspan164"
               y="0"
               x="0 6.1176758 8.5615234 14.061523 17.117676 23.235352 29.353027 34.853027">distance</tspan></text>
</g><g
           transform="matrix(2.9991949,0,0,2.9991949,1.4995974,1.4995974)"
           id="g168"><path
             id="path170"
             style="fill:#d5e8d4;fill-opacity:1;fill-rule:nonzero;stroke:none"
             d="m 430,360 c 3e-5,1.31003 -0.0963,2.61694 -0.28888,3.92068 -0.19263,1.30375 -0.48062,2.59803 -0.86401,3.88288 -0.38336,1.28488 -0.86026,2.55414 -1.4307,3.80777 -0.5704,1.25363 -1.23163,2.48562 -1.98367,3.69592 -0.75198,1.21036 -1.59116,2.39322 -2.51746,3.54858 -0.92636,1.15537 -1.93539,2.27768 -3.02713,3.36692 -1.09173,1.08929 -2.26089,2.14026 -3.5075,3.15292 -1.24665,1.0127 -2.56473,1.98221 -3.95426,2.90857 -1.38949,0.92636 -2.84378,1.80505 -4.36279,2.63614 -1.51901,0.83108 -3.09549,1.6105 -4.72943,2.33832 -1.63388,0.72784 -3.31735,1.40054 -5.05039,2.01809 -1.73306,0.61759 -3.50732,1.17704 -5.32281,1.67835 -1.81549,0.50131 -3.66348,0.94214 -5.54395,1.32242 -1.88043,0.38028 -3.7843,0.69821 -5.71164,0.95379 -1.9273,0.25559 -3.86877,0.44761 -5.82437,0.57602 C 373.92542,399.93579 371.96509,400 370,400 c -1.96506,0 -3.92542,-0.0642 -5.88104,-0.19263 -1.9556,-0.12841 -3.8971,-0.32043 -5.82443,-0.57602 -1.92731,-0.25558 -3.83121,-0.57351 -5.71167,-0.95379 -1.88047,-0.38028 -3.72843,-0.82111 -5.54392,-1.32245 -1.81549,-0.50131 -3.58975,-1.06076 -5.32275,-1.67832 -1.73307,-0.61758 -3.41654,-1.29028 -5.05045,-2.01809 -1.63388,-0.72782 -3.21033,-1.50724 -4.72934,-2.33829 -1.51901,-0.83109 -2.9733,-1.70981 -4.36282,-2.63617 -1.3895,-0.92636 -2.70758,-1.89587 -3.95423,-2.90854 -1.24661,-1.01266 -2.4158,-2.06363 -3.50756,-3.15292 -1.09171,-1.08927 -2.10074,-2.21155 -3.02704,-3.36691 -0.92636,-1.15537 -1.76554,-2.33823 -2.51755,-3.54859 -0.75198,-1.2103 -1.41318,-2.44226 -1.98364,-3.69592 -0.57041,-1.25363 -1.04731,-2.52292 -1.4307,-3.8078 -0.38333,-1.28485 -0.67132,-2.57913 -0.86395,-3.88288 C 310.09631,362.61694 310.00003,361.31003 310,360 c 3e-5,-1.31003 0.0963,-2.61694 0.28891,-3.92068 0.19263,-1.30375 0.48062,-2.59809 0.86395,-3.88297 0.38339,-1.28485 0.86029,-2.55411 1.43073,-3.80774 0.57043,-1.25366 1.23163,-2.48566 1.98361,-3.69601 0.75201,-1.21033 1.59119,-2.39316 2.51755,-3.54847 0.9263,-1.15536 1.93533,-2.27771 3.02704,-3.36697 1.09176,-1.08926 2.26095,-2.14023 3.50756,-3.15289 1.24665,-1.01267 2.56473,-1.98221 3.95423,-2.90857 1.38952,-0.92633 2.84381,-1.80506 4.36282,-2.63614 1.51901,-0.83109 3.09546,-1.61057 4.72934,-2.33841 1.63391,-0.72781 3.31738,-1.40051 5.05042,-2.01804 1.73303,-0.61755 3.50729,-1.177 5.32278,-1.67834 1.81549,-0.50131 3.66348,-0.94214 5.54395,-1.32242 1.88046,-0.38028 3.78433,-0.69821 5.71167,-0.9538 1.92733,-0.25555 3.8688,-0.44754 5.8244,-0.57592 1.95562,-0.12839 3.91598,-0.1926 5.88104,-0.19263 1.96509,3e-5 3.92542,0.0642 5.88101,0.19263 1.9556,0.12838 3.89707,0.32037 5.82437,0.57592 1.92734,0.25559 3.83121,0.57352 5.71164,0.9538 1.88047,0.38028 3.72846,0.82111 5.54392,1.32242 1.81552,0.50134 3.58978,1.06079 5.32284,1.67834 1.73304,0.61753 3.41651,1.29023 5.05039,2.01804 1.63394,0.72784 3.21039,1.50732 4.7294,2.33841 1.51904,0.83108 2.97333,1.70981 4.36282,2.63614 1.38953,0.92636 2.70761,1.8959 3.95426,2.90857 1.24661,1.01266 2.41577,2.06363 3.5075,3.15289 1.09174,1.08926 2.10077,2.21158 3.0271,3.36694 0.92633,1.15534 1.76551,2.33817 2.51749,3.5485 0.75204,1.21035 1.41324,2.44235 1.98364,3.69601 0.57047,1.25363 1.04737,2.52289 1.4307,3.80774 0.38339,1.28488 0.67138,2.57922 0.86401,3.88297 0.19263,1.30374 0.28894,2.61065 0.28891,3.92068 z" /><path
             id="path172"
             style="fill:none;stroke:#82b366;stroke-width:1;stroke-linecap:butt;stroke-linejoin:miter;stroke-miterlimit:10;stroke-dasharray:none;stroke-opacity:1"
             d="m 430,360 c 3e-5,1.31003 -0.0963,2.61694 -0.28888,3.92068 -0.19263,1.30375 -0.48062,2.59803 -0.86401,3.88288 -0.38336,1.28488 -0.86026,2.55414 -1.4307,3.80777 -0.5704,1.25363 -1.23163,2.48562 -1.98367,3.69592 -0.75198,1.21036 -1.59116,2.39322 -2.51746,3.54858 -0.92636,1.15537 -1.93539,2.27768 -3.02713,3.36692 -1.09173,1.08929 -2.26089,2.14026 -3.5075,3.15292 -1.24665,1.0127 -2.56473,1.98221 -3.95426,2.90857 -1.38949,0.92636 -2.84378,1.80505 -4.36279,2.63614 -1.51901,0.83108 -3.09549,1.6105 -4.72943,2.33832 -1.63388,0.72784 -3.31735,1.40054 -5.05039,2.01809 -1.73306,0.61759 -3.50732,1.17704 -5.32281,1.67835 -1.81549,0.50131 -3.66348,0.94214 -5.54395,1.32242 -1.88043,0.38028 -3.7843,0.69821 -5.71164,0.95379 -1.9273,0.25559 -3.86877,0.44761 -5.82437,0.57602 C 373.92542,399.93579 371.96509,400 370,400 c -1.96506,0 -3.92542,-0.0642 -5.88104,-0.19263 -1.9556,-0.12841 -3.8971,-0.32043 -5.82443,-0.57602 -1.92731,-0.25558 -3.83121,-0.57351 -5.71167,-0.95379 -1.88047,-0.38028 -3.72843,-0.82111 -5.54392,-1.32245 -1.81549,-0.50131 -3.58975,-1.06076 -5.32275,-1.67832 -1.73307,-0.61758 -3.41654,-1.29028 -5.05045,-2.01809 -1.63388,-0.72782 -3.21033,-1.50724 -4.72934,-2.33829 -1.51901,-0.83109 -2.9733,-1.70981 -4.36282,-2.63617 -1.3895,-0.92636 -2.70758,-1.89587 -3.95423,-2.90854 -1.24661,-1.01266 -2.4158,-2.06363 -3.50756,-3.15292 -1.09171,-1.08927 -2.10074,-2.21155 -3.02704,-3.36691 -0.92636,-1.15537 -1.76554,-2.33823 -2.51755,-3.54859 -0.75198,-1.2103 -1.41318,-2.44226 -1.98364,-3.69592 -0.57041,-1.25363 -1.04731,-2.52292 -1.4307,-3.8078 -0.38333,-1.28485 -0.67132,-2.57913 -0.86395,-3.88288 C 310.09631,362.61694 310.00003,361.31003 310,360 c 3e-5,-1.31003 0.0963,-2.61694 0.28891,-3.92068 0.19263,-1.30375 0.48062,-2.59809 0.86395,-3.88297 0.38339,-1.28485 0.86029,-2.55411 1.43073,-3.80774 0.57043,-1.25366 1.23163,-2.48566 1.98361,-3.69601 0.75201,-1.21033 1.59119,-2.39316 2.51755,-3.54847 0.9263,-1.15536 1.93533,-2.27771 3.02704,-3.36697 1.09176,-1.08926 2.26095,-2.14023 3.50756,-3.15289 1.24665,-1.01267 2.56473,-1.98221 3.95423,-2.90857 1.38952,-0.92633 2.84381,-1.80506 4.36282,-2.63614 1.51901,-0.83109 3.09546,-1.61057 4.72934,-2.33841 1.63391,-0.72781 3.31738,-1.40051 5.05042,-2.01804 1.73303,-0.61755 3.50729,-1.177 5.32278,-1.67834 1.81549,-0.50131 3.66348,-0.94214 5.54395,-1.32242 1.88046,-0.38028 3.78433,-0.69821 5.71167,-0.9538 1.92733,-0.25555 3.8688,-0.44754 5.8244,-0.57592 1.95562,-0.12839 3.91598,-0.1926 5.88104,-0.19263 1.96509,3e-5 3.92542,0.0642 5.88101,0.19263 1.9556,0.12838 3.89707,0.32037 5.82437,0.57592 1.92734,0.25559 3.83121,0.57352 5.71164,0.9538 1.88047,0.38028 3.72846,0.82111 5.54392,1.32242 1.81552,0.50134 3.58978,1.06079 5.32284,1.67834 1.73304,0.61753 3.41651,1.29023 5.05039,2.01804 1.63394,0.72784 3.21039,1.50732 4.7294,2.33841 1.51904,0.83108 2.97333,1.70981 4.36282,2.63614 1.38953,0.92636 2.70761,1.8959 3.95426,2.90857 1.24661,1.01266 2.41577,2.06363 3.5075,3.15289 1.09174,1.08926 2.10077,2.21158 3.0271,3.36694 0.92633,1.15534 1.76551,2.33817 2.51749,3.5485 0.75204,1.21035 1.41324,2.44235 1.98364,3.69601 0.57047,1.25363 1.04737,2.52289 1.4307,3.80774 0.38339,1.28488 0.67138,2.57922 0.86401,3.88297 0.19263,1.30374 0.28894,2.61065 0.28891,3.92068 z" /></g><g
           transform="scale(2.9991949)"
           id="g174"><text
             id="text178"
             style="font-variant:normal;font-weight:normal;font-size:12px;font-family:'Helvetica Neue';-inkscape-font-specification:Helvetica;writing-mode:lr-tb;fill:#000000;fill-opacity:1;fill-rule:nonzero;stroke:none"
             transform="translate(322.29688,365)"><tspan
               id="tspan176"
               y="0"
               x="0 6 12.673828 15.339844 21.339844 28.013672 30.679688 37.353516 40.6875 47.361328 50.695312 57.369141 60.035156 66.035156 69.369141 76.042969 82.716797 88.716797">calculate distance</tspan></text>
</g><g
           transform="matrix(2.9991949,0,0,2.9991949,1.4995974,1.4995974)"
           id="g180"><path
             id="path182"
             style="fill:none;stroke:#000000;stroke-width:1;stroke-linecap:butt;stroke-linejoin:miter;stroke-miterlimit:10;stroke-dasharray:none;stroke-opacity:1"
             d="m 595.33002,333.79001 96.90997,-56.33002" /><path
             id="path184"
             style="fill:#000000;fill-opacity:1;fill-rule:nonzero;stroke:none"
             d="m 696.78003,274.82001 -4.30005,6.54999 -0.23999,-3.91001 -3.27002,-2.13998 z" /><path
             id="path186"
             style="fill:none;stroke:#000000;stroke-width:1;stroke-linecap:butt;stroke-linejoin:miter;stroke-miterlimit:10;stroke-dasharray:none;stroke-opacity:1"
             d="m 696.78003,274.82001 -4.30005,6.54999 -0.23999,-3.91001 -3.27002,-2.13998 z" /></g><g
           transform="scale(2.9991949)"
           id="g188"><path
             id="path190"
             style="fill:#ffffff;fill-opacity:1;fill-rule:nonzero;stroke:none"
             d="m 626,298 h 41 v 13 h -41 z" /><text
             id="text194"
             style="font-variant:normal;font-weight:normal;font-size:11px;font-family:'Helvetica Neue';-inkscape-font-specification:Helvetica;writing-mode:lr-tb;fill:#000000;fill-opacity:1;fill-rule:nonzero;stroke:none"
             transform="translate(626.01563,308)"><tspan
               id="tspan192"
               y="0"
               x="0 6.1176758 8.5615234 14.061523 17.117676 23.235352 29.353027 34.853027">distance</tspan></text>
</g><g
           transform="matrix(2.9991949,0,0,2.9991949,1.4995974,1.4995974)"
           id="g196"><path
             id="path198"
             style="fill:#fff2cc;fill-opacity:1;fill-rule:nonzero;stroke:none"
             d="m 610,360 c 6e-5,1.31003 -0.0963,2.61694 -0.28888,3.92068 -0.19263,1.30375 -0.48065,2.59803 -0.86401,3.88288 -0.38336,1.28488 -0.86029,2.55414 -1.43067,3.80777 -0.57049,1.25363 -1.23169,2.48562 -1.9837,3.69592 -0.75201,1.21036 -1.59119,2.39322 -2.51746,3.54858 -0.92639,1.15537 -1.93548,2.27768 -3.02722,3.36692 -1.09167,1.08929 -2.2608,2.14026 -3.50744,3.15292 -1.24665,1.0127 -2.5647,1.98221 -3.95423,2.90857 -1.38946,0.92636 -2.84375,1.80505 -4.36279,2.63614 -1.51904,0.83108 -3.09552,1.6105 -4.72943,2.33832 -1.63385,0.72784 -3.31732,1.40054 -5.05042,2.01809 -1.73309,0.61759 -3.50732,1.17704 -5.32281,1.67835 -1.81549,0.50131 -3.66345,0.94214 -5.54395,1.32242 -1.88043,0.38028 -3.78436,0.69821 -5.71167,0.95379 -1.9273,0.25559 -3.86871,0.44761 -5.82434,0.57602 C 553.92542,399.93579 551.96509,400 550,400 c -1.96509,0 -3.92542,-0.0642 -5.88104,-0.19263 -1.95563,-0.12841 -3.8971,-0.32043 -5.82447,-0.57602 -1.9273,-0.25558 -3.83117,-0.57351 -5.71167,-0.95379 -1.88043,-0.38028 -3.72839,-0.82111 -5.54388,-1.32245 -1.81549,-0.50131 -3.58972,-1.06076 -5.32275,-1.67832 -1.7331,-0.61758 -3.41657,-1.29028 -5.05048,-2.01809 -1.63385,-0.72782 -3.21033,-1.50724 -4.7294,-2.33829 -1.51898,-0.83109 -2.97324,-1.70981 -4.36276,-2.63617 -1.3895,-0.92636 -2.70758,-1.89587 -3.9542,-2.90854 -1.24664,-1.01266 -2.41583,-2.06363 -3.50759,-3.15292 -1.09174,-1.08927 -2.10077,-2.21155 -3.02707,-3.36691 -0.92633,-1.15537 -1.76551,-2.33823 -2.51752,-3.54859 -0.75198,-1.2103 -1.41318,-2.44226 -1.98361,-3.69592 -0.57044,-1.25363 -1.04734,-2.52292 -1.43073,-3.8078 -0.38333,-1.28485 -0.67129,-2.57913 -0.86389,-3.88288 C 490.09634,362.61694 490.00003,361.31003 490,360 c 3e-5,-1.31003 0.0963,-2.61694 0.28894,-3.92068 0.19257,-1.30375 0.48053,-2.59809 0.86386,-3.88297 0.38339,-1.28485 0.86029,-2.55411 1.43073,-3.80774 0.5704,-1.25366 1.23163,-2.48566 1.98361,-3.69601 0.75204,-1.21033 1.59122,-2.39316 2.51758,-3.54847 0.9263,-1.15536 1.9353,-2.27771 3.02704,-3.36697 1.09176,-1.08926 2.26095,-2.14023 3.50759,-3.15289 1.24662,-1.01267 2.5647,-1.98221 3.9542,-2.90857 1.38952,-0.92633 2.84381,-1.80506 4.36282,-2.63614 1.51901,-0.83109 3.09549,-1.61057 4.72934,-2.33841 1.63391,-0.72781 3.31744,-1.40051 5.05054,-2.01804 1.73297,-0.61755 3.5072,-1.177 5.32269,-1.67834 1.81549,-0.50131 3.66351,-0.94214 5.54395,-1.32242 1.88043,-0.38028 3.7843,-0.69821 5.7116,-0.9538 1.92737,-0.25555 3.86884,-0.44754 5.82447,-0.57592 1.95562,-0.12839 3.91595,-0.1926 5.88104,-0.19263 1.96509,3e-5 3.92542,0.0642 5.88098,0.19263 1.95563,0.12838 3.89704,0.32037 5.82434,0.57592 1.92731,0.25559 3.83124,0.57352 5.71167,0.9538 1.8805,0.38028 3.72846,0.82111 5.54395,1.32242 1.81549,0.50134 3.58972,1.06079 5.32281,1.67834 1.7331,0.61753 3.41657,1.29023 5.05042,2.01804 1.63391,0.72784 3.21039,1.50732 4.72943,2.33841 1.51904,0.83108 2.97333,1.70981 4.36279,2.63614 1.38953,0.92636 2.70758,1.8959 3.95423,2.90857 1.24664,1.01266 2.41577,2.06363 3.50744,3.15289 1.09174,1.08926 2.10083,2.21158 3.02722,3.36694 0.92627,1.15534 1.76545,2.33817 2.51746,3.5485 0.75201,1.21035 1.41321,2.44235 1.98364,3.69601 0.57044,1.25363 1.04737,2.52289 1.43073,3.80774 0.38336,1.28488 0.67138,2.57922 0.86401,3.88297 0.19263,1.30374 0.28894,2.61065 0.28888,3.92068 z" /><path
             id="path200"
             style="fill:none;stroke:#d6b656;stroke-width:1;stroke-linecap:butt;stroke-linejoin:miter;stroke-miterlimit:10;stroke-dasharray:none;stroke-opacity:1"
             d="m 610,360 c 6e-5,1.31003 -0.0963,2.61694 -0.28888,3.92068 -0.19263,1.30375 -0.48065,2.59803 -0.86401,3.88288 -0.38336,1.28488 -0.86029,2.55414 -1.43067,3.80777 -0.57049,1.25363 -1.23169,2.48562 -1.9837,3.69592 -0.75201,1.21036 -1.59119,2.39322 -2.51746,3.54858 -0.92639,1.15537 -1.93548,2.27768 -3.02722,3.36692 -1.09167,1.08929 -2.2608,2.14026 -3.50744,3.15292 -1.24665,1.0127 -2.5647,1.98221 -3.95423,2.90857 -1.38946,0.92636 -2.84375,1.80505 -4.36279,2.63614 -1.51904,0.83108 -3.09552,1.6105 -4.72943,2.33832 -1.63385,0.72784 -3.31732,1.40054 -5.05042,2.01809 -1.73309,0.61759 -3.50732,1.17704 -5.32281,1.67835 -1.81549,0.50131 -3.66345,0.94214 -5.54395,1.32242 -1.88043,0.38028 -3.78436,0.69821 -5.71167,0.95379 -1.9273,0.25559 -3.86871,0.44761 -5.82434,0.57602 C 553.92542,399.93579 551.96509,400 550,400 c -1.96509,0 -3.92542,-0.0642 -5.88104,-0.19263 -1.95563,-0.12841 -3.8971,-0.32043 -5.82447,-0.57602 -1.9273,-0.25558 -3.83117,-0.57351 -5.71167,-0.95379 -1.88043,-0.38028 -3.72839,-0.82111 -5.54388,-1.32245 -1.81549,-0.50131 -3.58972,-1.06076 -5.32275,-1.67832 -1.7331,-0.61758 -3.41657,-1.29028 -5.05048,-2.01809 -1.63385,-0.72782 -3.21033,-1.50724 -4.7294,-2.33829 -1.51898,-0.83109 -2.97324,-1.70981 -4.36276,-2.63617 -1.3895,-0.92636 -2.70758,-1.89587 -3.9542,-2.90854 -1.24664,-1.01266 -2.41583,-2.06363 -3.50759,-3.15292 -1.09174,-1.08927 -2.10077,-2.21155 -3.02707,-3.36691 -0.92633,-1.15537 -1.76551,-2.33823 -2.51752,-3.54859 -0.75198,-1.2103 -1.41318,-2.44226 -1.98361,-3.69592 -0.57044,-1.25363 -1.04734,-2.52292 -1.43073,-3.8078 -0.38333,-1.28485 -0.67129,-2.57913 -0.86389,-3.88288 C 490.09634,362.61694 490.00003,361.31003 490,360 c 3e-5,-1.31003 0.0963,-2.61694 0.28894,-3.92068 0.19257,-1.30375 0.48053,-2.59809 0.86386,-3.88297 0.38339,-1.28485 0.86029,-2.55411 1.43073,-3.80774 0.5704,-1.25366 1.23163,-2.48566 1.98361,-3.69601 0.75204,-1.21033 1.59122,-2.39316 2.51758,-3.54847 0.9263,-1.15536 1.9353,-2.27771 3.02704,-3.36697 1.09176,-1.08926 2.26095,-2.14023 3.50759,-3.15289 1.24662,-1.01267 2.5647,-1.98221 3.9542,-2.90857 1.38952,-0.92633 2.84381,-1.80506 4.36282,-2.63614 1.51901,-0.83109 3.09549,-1.61057 4.72934,-2.33841 1.63391,-0.72781 3.31744,-1.40051 5.05054,-2.01804 1.73297,-0.61755 3.5072,-1.177 5.32269,-1.67834 1.81549,-0.50131 3.66351,-0.94214 5.54395,-1.32242 1.88043,-0.38028 3.7843,-0.69821 5.7116,-0.9538 1.92737,-0.25555 3.86884,-0.44754 5.82447,-0.57592 1.95562,-0.12839 3.91595,-0.1926 5.88104,-0.19263 1.96509,3e-5 3.92542,0.0642 5.88098,0.19263 1.95563,0.12838 3.89704,0.32037 5.82434,0.57592 1.92731,0.25559 3.83124,0.57352 5.71167,0.9538 1.8805,0.38028 3.72846,0.82111 5.54395,1.32242 1.81549,0.50134 3.58972,1.06079 5.32281,1.67834 1.7331,0.61753 3.41657,1.29023 5.05042,2.01804 1.63391,0.72784 3.21039,1.50732 4.72943,2.33841 1.51904,0.83108 2.97333,1.70981 4.36279,2.63614 1.38953,0.92636 2.70758,1.8959 3.95423,2.90857 1.24664,1.01266 2.41577,2.06363 3.50744,3.15289 1.09174,1.08926 2.10083,2.21158 3.02722,3.36694 0.92627,1.15534 1.76545,2.33817 2.51746,3.5485 0.75201,1.21035 1.41321,2.44235 1.98364,3.69601 0.57044,1.25363 1.04737,2.52289 1.43073,3.80774 0.38336,1.28488 0.67138,2.57922 0.86401,3.88297 0.19263,1.30374 0.28894,2.61065 0.28888,3.92068 z" /></g><g
           transform="scale(2.9991949)"
           id="g202"><text
             id="text206"
             style="font-variant:normal;font-weight:normal;font-size:12px;font-family:'Helvetica Neue';-inkscape-font-specification:Helvetica;writing-mode:lr-tb;fill:#000000;fill-opacity:1;fill-rule:nonzero;stroke:none"
             transform="translate(506.3125,365)"><tspan
               id="tspan204"
               y="0"
               x="0 6 12.673828 19.347656 25.347656 29.34375 39.339844 42.673828 49.347656 52.013672 58.013672 61.347656 68.021484 74.695312 80.695312">conﬁrm distance</tspan></text>
</g><g
           transform="matrix(2.9991949,0,0,2.9991949,1.4995974,1.4995974)"
           id="g208"><path
             id="path210"
             style="fill:none;stroke:#000000;stroke-width:1;stroke-linecap:butt;stroke-linejoin:miter;stroke-miterlimit:10;stroke-dasharray:none;stroke-opacity:1"
             d="M 743,208 V 154.36999" /><path
             id="path212"
             style="fill:#000000;fill-opacity:1;fill-rule:nonzero;stroke:none"
             d="m 743,149.11999 3.5,7 -3.5,-1.75 -3.5,1.75 z" /><path
             id="path214"
             style="fill:none;stroke:#000000;stroke-width:1;stroke-linecap:butt;stroke-linejoin:miter;stroke-miterlimit:10;stroke-dasharray:none;stroke-opacity:1"
             d="m 743,149.11999 3.5,7 -3.5,-1.75 -3.5,1.75 z" /></g><g
           transform="scale(2.9991949)"
           id="g216"><path
             id="path218"
             style="fill:#ffffff;fill-opacity:1;fill-rule:nonzero;stroke:none"
             d="m 723,172 h 41 v 13 h -41 z" /><text
             id="text222"
             style="font-variant:normal;font-weight:normal;font-size:11px;font-family:'Helvetica Neue';-inkscape-font-specification:Helvetica;writing-mode:lr-tb;fill:#000000;fill-opacity:1;fill-rule:nonzero;stroke:none"
             transform="translate(723.01563,182)"><tspan
               id="tspan220"
               y="0"
               x="0 6.1176758 8.5615234 14.061523 17.117676 23.235352 29.353027 34.853027">distance</tspan></text>
</g><g
           transform="matrix(2.9991949,0,0,2.9991949,1.4995974,1.4995974)"
           id="g224"><path
             id="path226"
             style="fill:#d5e8d4;fill-opacity:1;fill-rule:nonzero;stroke:none"
             d="m 803,248 c 6e-5,1.31004 -0.0963,2.61694 -0.28888,3.92068 -0.19263,1.30373 -0.48065,2.59804 -0.86407,3.88291 -0.38337,1.28488 -0.86029,2.55417 -1.43067,3.8078 -0.57043,1.25363 -1.23169,2.48563 -1.9837,3.69592 -0.75202,1.21033 -1.59113,2.39316 -2.51746,3.54852 -0.92633,1.15537 -1.93542,2.27768 -3.02716,3.36695 -1.09167,1.08926 -2.26086,2.14026 -3.50751,3.15292 -1.24652,1.01267 -2.56457,1.98218 -3.95416,2.90854 -1.38946,0.92636 -2.84375,1.80508 -4.36285,2.63617 -1.51898,0.83109 -3.09546,1.61053 -4.72943,2.33835 -1.63385,0.72784 -3.31733,1.40054 -5.05036,2.01806 -1.73297,0.61756 -3.50726,1.17701 -5.32281,1.67832 -1.81549,0.50134 -3.66345,0.94217 -5.54389,1.32245 -1.88043,0.38028 -3.78436,0.69821 -5.71167,0.95379 -1.9273,0.25559 -3.86877,0.44761 -5.82434,0.57602 C 746.92542,287.93579 744.96509,288 743,288 c -1.96503,0 -3.92535,-0.0642 -5.88098,-0.1926 -1.95563,-0.12841 -3.89716,-0.32043 -5.82446,-0.57602 -1.92731,-0.25558 -3.83124,-0.57351 -5.71167,-0.95379 -1.8805,-0.38028 -3.72852,-0.82111 -5.54401,-1.32245 -1.81549,-0.50131 -3.58972,-1.06076 -5.32282,-1.67832 -1.73303,-0.61752 -3.4165,-1.29022 -5.05041,-2.01806 -1.63385,-0.72782 -3.21033,-1.50726 -4.72931,-2.33835 -1.51898,-0.83109 -2.97327,-1.70981 -4.36285,-2.63617 -1.38947,-0.92636 -2.70758,-1.89587 -3.95423,-2.90854 -1.24664,-1.01266 -2.41583,-2.06366 -3.50757,-3.15292 -1.09167,-1.08927 -2.1007,-2.21158 -3.02703,-3.36695 -0.92633,-1.15536 -1.76557,-2.33819 -2.51758,-3.54852 -0.75202,-1.21029 -1.41315,-2.44229 -1.98352,-3.69592 -0.5705,-1.25363 -1.04743,-2.52289 -1.43079,-3.80779 -0.3833,-1.28486 -0.67126,-2.57917 -0.86389,-3.88292 C 683.09631,250.61694 683.00006,249.31004 683,248 c 6e-5,-1.31004 0.0963,-2.61694 0.28888,-3.92068 0.19263,-1.30376 0.48059,-2.59807 0.86389,-3.88297 0.38336,-1.28487 0.86029,-2.55412 1.43079,-3.80777 0.57037,-1.25363 1.2315,-2.48561 1.98352,-3.69595 0.75201,-1.21033 1.59118,-2.39318 2.51751,-3.54853 0.9264,-1.15536 1.93543,-2.27768 3.0271,-3.36695 1.09174,-1.08925 2.26099,-2.14023 3.50763,-3.15291 1.24665,-1.01268 2.5647,-1.9822 3.95417,-2.90854 1.38958,-0.92633 2.84381,-1.80504 4.36279,-2.63613 1.51904,-0.83107 3.09546,-1.61053 4.72931,-2.33837 1.63397,-0.72782 3.31744,-1.4005 5.05047,-2.01806 1.7331,-0.61755 3.50733,-1.177 5.32282,-1.67836 1.81549,-0.50132 3.66351,-0.94213 5.54407,-1.32241 1.88043,-0.38028 3.7843,-0.69822 5.71161,-0.9538 1.9273,-0.25557 3.86883,-0.44754 5.82446,-0.57594 1.95563,-0.12841 3.91595,-0.19261 5.88098,-0.19263 1.96509,2e-5 3.92542,0.0642 5.88104,0.19261 1.95557,0.12842 3.89704,0.32041 5.82434,0.57598 1.92731,0.25556 3.83124,0.5735 5.71167,0.95379 1.88044,0.38027 3.7284,0.82108 5.54389,1.3224 1.81555,0.50136 3.58984,1.06081 5.32281,1.67836 1.73303,0.61754 3.41651,1.29023 5.05036,2.01804 1.63397,0.72784 3.21045,1.50731 4.72943,2.33839 1.5191,0.83109 2.97339,1.7098 4.36285,2.63613 1.38959,0.92634 2.70764,1.89587 3.95416,2.90855 1.24665,1.01268 2.41584,2.06365 3.50751,3.1529 1.09174,1.08927 2.10083,2.21159 3.02716,3.36695 0.92633,1.15535 1.76544,2.3382 2.51746,3.54853 0.75201,1.21034 1.41327,2.44232 1.98376,3.69597 0.57038,1.25364 1.04724,2.52288 1.43061,3.80775 0.38342,1.2849 0.67144,2.57921 0.86407,3.88297 0.19263,1.30374 0.28894,2.61064 0.28888,3.92068 z" /><path
             id="path228"
             style="fill:none;stroke:#82b366;stroke-width:1;stroke-linecap:butt;stroke-linejoin:miter;stroke-miterlimit:10;stroke-dasharray:none;stroke-opacity:1"
             d="m 803,248 c 6e-5,1.31004 -0.0963,2.61694 -0.28888,3.92068 -0.19263,1.30373 -0.48065,2.59804 -0.86407,3.88291 -0.38337,1.28488 -0.86029,2.55417 -1.43067,3.8078 -0.57043,1.25363 -1.23169,2.48563 -1.9837,3.69592 -0.75202,1.21033 -1.59113,2.39316 -2.51746,3.54852 -0.92633,1.15537 -1.93542,2.27768 -3.02716,3.36695 -1.09167,1.08926 -2.26086,2.14026 -3.50751,3.15292 -1.24652,1.01267 -2.56457,1.98218 -3.95416,2.90854 -1.38946,0.92636 -2.84375,1.80508 -4.36285,2.63617 -1.51898,0.83109 -3.09546,1.61053 -4.72943,2.33835 -1.63385,0.72784 -3.31733,1.40054 -5.05036,2.01806 -1.73297,0.61756 -3.50726,1.17701 -5.32281,1.67832 -1.81549,0.50134 -3.66345,0.94217 -5.54389,1.32245 -1.88043,0.38028 -3.78436,0.69821 -5.71167,0.95379 -1.9273,0.25559 -3.86877,0.44761 -5.82434,0.57602 C 746.92542,287.93579 744.96509,288 743,288 c -1.96503,0 -3.92535,-0.0642 -5.88098,-0.1926 -1.95563,-0.12841 -3.89716,-0.32043 -5.82446,-0.57602 -1.92731,-0.25558 -3.83124,-0.57351 -5.71167,-0.95379 -1.8805,-0.38028 -3.72852,-0.82111 -5.54401,-1.32245 -1.81549,-0.50131 -3.58972,-1.06076 -5.32282,-1.67832 -1.73303,-0.61752 -3.4165,-1.29022 -5.05041,-2.01806 -1.63385,-0.72782 -3.21033,-1.50726 -4.72931,-2.33835 -1.51898,-0.83109 -2.97327,-1.70981 -4.36285,-2.63617 -1.38947,-0.92636 -2.70758,-1.89587 -3.95423,-2.90854 -1.24664,-1.01266 -2.41583,-2.06366 -3.50757,-3.15292 -1.09167,-1.08927 -2.1007,-2.21158 -3.02703,-3.36695 -0.92633,-1.15536 -1.76557,-2.33819 -2.51758,-3.54852 -0.75202,-1.21029 -1.41315,-2.44229 -1.98352,-3.69592 -0.5705,-1.25363 -1.04743,-2.52289 -1.43079,-3.80779 -0.3833,-1.28486 -0.67126,-2.57917 -0.86389,-3.88292 C 683.09631,250.61694 683.00006,249.31004 683,248 c 6e-5,-1.31004 0.0963,-2.61694 0.28888,-3.92068 0.19263,-1.30376 0.48059,-2.59807 0.86389,-3.88297 0.38336,-1.28487 0.86029,-2.55412 1.43079,-3.80777 0.57037,-1.25363 1.2315,-2.48561 1.98352,-3.69595 0.75201,-1.21033 1.59118,-2.39318 2.51751,-3.54853 0.9264,-1.15536 1.93543,-2.27768 3.0271,-3.36695 1.09174,-1.08925 2.26099,-2.14023 3.50763,-3.15291 1.24665,-1.01268 2.5647,-1.9822 3.95417,-2.90854 1.38958,-0.92633 2.84381,-1.80504 4.36279,-2.63613 1.51904,-0.83107 3.09546,-1.61053 4.72931,-2.33837 1.63397,-0.72782 3.31744,-1.4005 5.05047,-2.01806 1.7331,-0.61755 3.50733,-1.177 5.32282,-1.67836 1.81549,-0.50132 3.66351,-0.94213 5.54407,-1.32241 1.88043,-0.38028 3.7843,-0.69822 5.71161,-0.9538 1.9273,-0.25557 3.86883,-0.44754 5.82446,-0.57594 1.95563,-0.12841 3.91595,-0.19261 5.88098,-0.19263 1.96509,2e-5 3.92542,0.0642 5.88104,0.19261 1.95557,0.12842 3.89704,0.32041 5.82434,0.57598 1.92731,0.25556 3.83124,0.5735 5.71167,0.95379 1.88044,0.38027 3.7284,0.82108 5.54389,1.3224 1.81555,0.50136 3.58984,1.06081 5.32281,1.67836 1.73303,0.61754 3.41651,1.29023 5.05036,2.01804 1.63397,0.72784 3.21045,1.50731 4.72943,2.33839 1.5191,0.83109 2.97339,1.7098 4.36285,2.63613 1.38959,0.92634 2.70764,1.89587 3.95416,2.90855 1.24665,1.01268 2.41584,2.06365 3.50751,3.1529 1.09174,1.08927 2.10083,2.21159 3.02716,3.36695 0.92633,1.15535 1.76544,2.3382 2.51746,3.54853 0.75201,1.21034 1.41327,2.44232 1.98376,3.69597 0.57038,1.25364 1.04724,2.52288 1.43061,3.80775 0.38342,1.2849 0.67144,2.57921 0.86407,3.88297 0.19263,1.30374 0.28894,2.61064 0.28888,3.92068 z" /></g><g
           transform="scale(2.9991949)"
           id="g230"><text
             id="text234"
             style="font-variant:normal;font-weight:normal;font-size:12px;font-family:'Helvetica Neue';-inkscape-font-specification:Helvetica;writing-mode:lr-tb;fill:#000000;fill-opacity:1;fill-rule:nonzero;stroke:none"
             transform="translate(701.96875,253)"><tspan
               id="tspan232"
               y="0"
               x="0 3.9960938 10.669922 16.669922 23.34375 27.339844 34.013672 37.347656 44.021484 46.6875 52.6875 56.021484 62.695312 69.369141 75.369141">record distance</tspan></text>
</g><g
           transform="matrix(2.9991949,0,0,2.9991949,1.4995974,1.4995974)"
           id="g236"><path
             id="path238"
             style="fill:#ffffff;fill-opacity:1;fill-rule:nonzero;stroke:none"
             d="m 683,88 h 120 v 60 H 683 Z" /><path
             id="path240"
             style="fill:none;stroke:#000000;stroke-width:1;stroke-linecap:butt;stroke-linejoin:miter;stroke-miterlimit:10;stroke-dasharray:none;stroke-opacity:1"
             d="m 683,88 h 120 v 60 H 683 Z" /><path
             id="path242"
             style="fill:none;stroke:#000000;stroke-width:1;stroke-linecap:butt;stroke-linejoin:miter;stroke-miterlimit:10;stroke-dasharray:none;stroke-opacity:1"
             d="m 695,88 v 60 m 96,-60 v 60" /></g><g
           transform="scale(2.9991949)"
           id="g244"><text
             id="text248"
             style="font-variant:normal;font-weight:normal;font-size:12px;font-family:'Helvetica Neue';-inkscape-font-specification:Helvetica;writing-mode:lr-tb;fill:#000000;fill-opacity:1;fill-rule:nonzero;stroke:none"
             transform="translate(703.64063,123)"><tspan
               id="tspan246"
               y="0"
               x="0 8.6660156 11.332031 17.332031 20.666016 27.339844 34.013672 40.013672 46.6875 50.021484 58.025391 61.359375 68.033203 72.029297">Distance Store</tspan></text>
</g><g
           transform="matrix(2.9991949,0,0,2.9991949,1.4995974,1.4995974)"
           id="g250"><path
             id="path252"
             style="fill:none;stroke:#000000;stroke-width:1;stroke-linecap:butt;stroke-linejoin:miter;stroke-miterlimit:10;stroke-dasharray:none;stroke-opacity:1"
             d="m 470,278 -94.13,39.53" /><path
             id="path254"
             style="fill:#000000;fill-opacity:1;fill-rule:nonzero;stroke:none"
             d="m 371.03,319.57001 5.1,-5.94001 -0.26,3.9 2.97,2.54999 z" /><path
             id="path256"
             style="fill:none;stroke:#000000;stroke-width:1;stroke-linecap:butt;stroke-linejoin:miter;stroke-miterlimit:10;stroke-dasharray:none;stroke-opacity:1"
             d="m 371.03,319.57001 5.1,-5.94001 -0.26,3.9 2.97,2.54999 z" /></g><g
           transform="scale(2.9991949)"
           id="g258"><path
             id="path260"
             style="fill:#ffffff;fill-opacity:1;fill-rule:nonzero;stroke:none"
             d="m 399,293 h 43 v 13 h -43 z" /><text
             id="text264"
             style="font-variant:normal;font-weight:normal;font-size:11px;font-family:'Helvetica Neue';-inkscape-font-specification:Helvetica;writing-mode:lr-tb;fill:#000000;fill-opacity:1;fill-rule:nonzero;stroke:none"
             transform="translate(398.79688,303)"><tspan
               id="tspan262"
               y="0"
               x="0 2.4438477 8.5615234 14.061523 20.179199 23.235352 25.679199 31.796875 37.914551">locations</tspan></text>
</g><g
           transform="matrix(2.9991949,0,0,2.9991949,1.4995974,1.4995974)"
           id="g266"><path
             id="path268"
             style="fill:#ffffff;fill-opacity:1;fill-rule:nonzero;stroke:none"
             d="m 410,218 h 120 v 60 H 410 Z" /><path
             id="path270"
             style="fill:none;stroke:#000000;stroke-width:1;stroke-linecap:butt;stroke-linejoin:miter;stroke-miterlimit:10;stroke-dasharray:none;stroke-opacity:1"
             d="m 410,218 h 120 v 60 H 410 Z" /><path
             id="path272"
             style="fill:none;stroke:#000000;stroke-width:1;stroke-linecap:butt;stroke-linejoin:miter;stroke-miterlimit:10;stroke-dasharray:none;stroke-opacity:1"
             d="m 422,218 v 60 m 96,-60 v 60" /></g><g
           transform="scale(2.9991949)"
           id="g274"><text
             id="text278"
             style="font-variant:normal;font-weight:normal;font-size:12px;font-family:'Helvetica Neue';-inkscape-font-specification:Helvetica;writing-mode:lr-tb;fill:#000000;fill-opacity:1;fill-rule:nonzero;stroke:none"
             transform="translate(431.29688,253)"><tspan
               id="tspan276"
               y="0"
               x="0 6.6738281 13.347656 19.347656 26.021484 29.355469 32.021484 38.695312 45.369141 48.703125 56.707031 60.041016 66.714844 70.710938">Location Store</tspan></text>
<path
             id="path280"
             style="fill:#000000;fill-opacity:1;fill-rule:nonzero;stroke:none"
             d="m 269,430 v -2 h 2 v 2 m -2,-8 v -2 h 2 v 2 m -2,-8 v -2 h 2 v 2 m -2,-8 v -2 h 2 v 2 m -2,-8 v -2 h 2 v 2 m -2,-8 v -2 h 2 v 2 m -2,-8 v -2 h 2 v 2 m -2,-8 v -2 h 2 v 2 m -2,-8 v -2 h 2 v 2 m -2,-8 v -2 h 2 v 2 m -2,-8 v -2 h 2 v 2 m -2,-8 v -2 h 2 v 2 m -2,-8 v -2 h 2 v 2 m -2,-8 v -2 h 2 v 2 m -2,-8 v -2 h 2 v 2 m -2,-8 v -2 h 2 v 2 m -2,-8 v -2 h 2 v 2 m -2,-8 v -2 h 2 v 2 m -2,-8 v -2 h 2 v 2 m -2,-8 v -2 h 2 v 2 m -2,-8 v -2 h 2 v 2 m -2,-8 v -2 h 2 v 2 m -2,-8 v -2 h 2 v 2 m -2,-8 v -2 h 2 v 2 m -2,-8 v -2 h 2 v 2 m -2,-8 v -2 h 2 v 2 m -2,-8 v -2 h 2 v 2 m -2,-8 v -2 h 2 v 2 m -2,-8 v -2 h 2 v 2 m -2,-8 v -2 h 2 v 2 m -2,-8 v -2 h 2 v 2 m -2,-8 v -2 h 2 v 2 m -2,-8 v -2 h 2 v 2 m -2,-8 v -2 h 2 v 2 m -2,-8 v -2 h 2 v 2 m -2,-8 v -2 h 2 v 2 m -2,-8 v -2 h 2 v 2 m -2,-8 v -2 h 2 v 2 m -2,-8 v -2 h 2 v 2 m -2,-8 v -2 h 2 v 2 m -2,-8 v -2 h 2 v 2 m -2,-8 v -2 h 2 v 2 m -2,-8 v -2 h 2 v 2 m -2,-8 v -2 h 2 v 2 m -2,-8 v -2 h 2 v 2 m -2,-8 v -2 h 2 v 2 m -2,-8 v -2 h 2 v 2 m -2,-8 v -2 h 2 v 2 m -2,-8 v -2 h 2 v 2 m -2,-8 v -2 h 2 v 2 m -2,-8 v -2 h 2 v 2 m -2,-8 v -2 h 2 v 2" /><path
             id="path282"
             style="fill:#000000;fill-opacity:1;fill-rule:nonzero;stroke:none"
             d="m 639,430 v -2 h 2 v 2 m -2,-8 v -2 h 2 v 2 m -2,-8 v -2 h 2 v 2 m -2,-8 v -2 h 2 v 2 m -2,-8 v -2 h 2 v 2 m -2,-8 v -2 h 2 v 2 m -2,-8 v -2 h 2 v 2 m -2,-8 v -2 h 2 v 2 m -2,-8 v -2 h 2 v 2 m -2,-8 v -2 h 2 v 2 m -2,-8 v -2 h 2 v 2 m -2,-8 v -2 h 2 v 2 m -2,-8 v -2 h 2 v 2 m -2,-8 v -2 h 2 v 2 m -2,-8 v -2 h 2 v 2 m -2,-8 v -2 h 2 v 2 m -2,-8 v -2 h 2 v 2 m -2,-8 v -2 h 2 v 2 m -2,-8 v -2 h 2 v 2 m -2,-8 v -2 h 2 v 2 m -2,-8 v -2 h 2 v 2 m -2,-8 v -2 h 2 v 2 m -2,-8 v -2 h 2 v 2 m -2,-8 v -2 h 2 v 2 m -2,-8 v -2 h 2 v 2 m -2,-8 v -2 h 2 v 2 m -2,-8 v -2 h 2 v 2 m -2,-8 v -2 h 2 v 2 m -2,-8 v -2 h 2 v 2 m -2,-8 v -2 h 2 v 2 m -2,-8 v -2 h 2 v 2 m -2,-8 v -2 h 2 v 2 m -2,-8 v -2 h 2 v 2 m -2,-8 v -2 h 2 v 2 m -2,-8 v -2 h 2 v 2 m -2,-8 v -2 h 2 v 2 m -2,-8 v -2 h 2 v 2 m -2,-8 v -2 h 2 v 2 m -2,-8 v -2 h 2 v 2 m -2,-8 v -2 h 2 v 2 m -2,-8 v -2 h 2 v 2 m -2,-8 v -2 h 2 v 2 m -2,-8 v -2 h 2 v 2 m -2,-8 v -2 h 2 v 2 m -2,-8 v -2 h 2 v 2 m -2,-8 v -2 h 2 v 2 m -2,-8 v -2 h 2 v 2 m -2,-8 v -2 h 2 v 2 m -2,-8 v -2 h 2 v 2 m -2,-8 v -2 h 2 v 2 m -2,-8 v -2 h 2 v 2 m -2,-8 v -2 h 2 v 2" /><text
             id="text286"
             style="font-variant:normal;font-weight:normal;font-size:12px;font-family:'Helvetica Neue';-inkscape-font-specification:Helvetica;writing-mode:lr-tb;fill:#000000;fill-opacity:1;fill-rule:nonzero;stroke:none"
             transform="translate(117.32813,45)"><tspan
               id="tspan284"
               y="0"
               x="0 8.6660156 14.666016 21.339844">User</tspan></text>
<text
             id="text290"
             style="font-variant:normal;font-weight:normal;font-size:12px;font-family:'Helvetica Neue';-inkscape-font-specification:Helvetica;writing-mode:lr-tb;fill:#000000;fill-opacity:1;fill-rule:nonzero;stroke:none"
             transform="translate(419.85938,45)"><tspan
               id="tspan288"
               y="0"
               x="0 8.6660156 11.332031 17.332031 20.666016 27.339844 34.013672 40.013672 46.6875 50.021484 56.912109 60.908203 67.582031 73.582031 79.582031 86.255859">Distance Tracker</tspan></text>
<text
             id="text294"
             style="font-variant:normal;font-weight:normal;font-size:12px;font-family:'Helvetica Neue';-inkscape-font-specification:Helvetica;writing-mode:lr-tb;fill:#000000;fill-opacity:1;fill-rule:nonzero;stroke:none"
             transform="translate(700.53125,45)"><tspan
               id="tspan292"
               y="0"
               x="0 6.890625 10.886719 17.560547 23.560547 29.560547 32.226562 38.900391 45.574219 48.908203 56.912109 63.585938 67.582031 73.582031 76.248047 82.248047">Tracking Service</tspan></text>
</g><g
           transform="matrix(2.9991949,0,0,2.9991949,1.4995974,1.4995974)"
           id="g296"><path
             id="path298"
             style="fill:#d5e8d4;fill-opacity:1;fill-rule:nonzero;stroke:none"
             d="m 160,500 c 1e-5,1.31006 -0.0963,2.61694 -0.28893,3.92068 -0.19261,1.30372 -0.4806,2.598 -0.86398,3.88285 -0.38336,1.28488 -0.86026,2.55417 -1.43069,3.8078 -0.57042,1.2536 -1.23165,2.48559 -1.98366,3.69592 -0.752,1.21033 -1.59116,2.39319 -2.51747,3.54858 -0.92635,1.15534 -1.93538,2.27765 -3.02712,3.36689 -1.09172,1.08929 -2.26091,2.14032 -3.50754,3.15301 -1.24664,1.0127 -2.56471,1.98218 -3.95422,2.90851 -1.38951,0.92633 -2.84378,1.80505 -4.36281,2.63617 -1.51901,0.83105 -3.09547,1.61047 -4.72938,2.33826 -1.6339,0.72784 -3.31735,1.40057 -5.0504,2.01812 -1.73304,0.61756 -3.50731,1.17701 -5.32281,1.67829 -1.81548,0.50134 -3.66346,0.9422 -5.54391,1.32251 -1.88046,0.38031 -3.78435,0.69824 -5.71167,0.95379 -1.92732,0.25562 -3.86878,0.44764 -5.82438,0.57599 C 103.92542,539.93579 101.96507,540 100,540 c -1.965065,0 -3.925407,-0.0642 -5.881027,-0.19263 -1.955612,-0.12835 -3.89708,-0.32037 -5.824402,-0.57599 -1.927315,-0.25555 -3.8312,-0.57348 -5.711655,-0.95379 -1.880462,-0.38031 -3.728439,-0.82117 -5.543937,-1.32251 -1.815484,-0.50128 -3.589753,-1.06073 -5.322792,-1.67829 -1.73304,-0.61755 -3.416512,-1.29028 -5.050416,-2.01812 -1.633895,-0.72779 -3.210353,-1.50721 -4.729373,-2.33826 -1.519024,-0.83112 -2.973294,-1.70984 -4.362809,-2.63617 -1.389515,-0.92633 -2.707588,-1.89581 -3.954216,-2.90851 -1.246635,-1.01269 -2.415821,-2.06372 -3.50756,-3.15301 -1.091736,-1.08924 -2.100769,-2.21155 -3.027096,-3.36689 -0.926327,-1.15539 -1.765492,-2.33825 -2.517494,-3.54858 -0.752003,-1.21033 -1.413216,-2.44226 -1.983647,-3.69589 -0.570431,-1.25366 -1.047329,-2.52292 -1.430698,-3.8078 -0.383366,-1.28488 -0.671353,-2.57916 -0.863964,-3.88288 C 40.096306,502.61694 40.000004,501.31006 40,500 c 4e-6,-1.31003 0.09631,-2.61694 0.288914,-3.92072 0.192611,-1.30374 0.480598,-2.59805 0.863964,-3.88293 0.383369,-1.28488 0.860267,-2.55411 1.430698,-3.80774 0.570431,-1.25363 1.231644,-2.48563 1.983647,-3.69598 0.752002,-1.2103 1.591167,-2.39316 2.517494,-3.54853 0.92633,-1.15536 1.935364,-2.27768 3.027099,-3.36694 1.09174,-1.08923 2.260926,-2.1402 3.507557,-3.15289 1.246628,-1.0127 2.564701,-1.98221 3.954216,-2.90857 1.389515,-0.92633 2.843785,-1.80506 4.362805,-2.63614 1.519024,-0.83109 3.095482,-1.61054 4.729385,-2.33838 1.633904,-0.72781 3.317375,-1.40048 5.050408,-2.01804 1.733047,-0.61758 3.507316,-1.17703 5.322799,-1.67837 1.815499,-0.50131 3.663475,-0.94211 5.54393,-1.32239 1.880455,-0.38028 3.78434,-0.69821 5.711655,-0.95379 1.927322,-0.25556 3.86879,-0.44755 5.824402,-0.57596 1.95562,-0.12839 3.915962,-0.1926 5.881027,-0.19263 1.96507,3e-5 3.92542,0.0642 5.88103,0.19263 1.9556,0.12841 3.89706,0.3204 5.82438,0.57596 1.92732,0.25558 3.83121,0.57354 5.71167,0.95382 1.88045,0.38028 3.72843,0.82108 5.54391,1.32239 1.8155,0.50131 3.58977,1.06079 5.32281,1.67838 1.73305,0.61752 3.4165,1.29019 5.0504,2.018 1.63391,0.72784 3.21037,1.50729 4.72938,2.33838 1.51903,0.83108 2.9733,1.70981 4.36281,2.63614 1.38951,0.92636 2.70758,1.89587 3.95422,2.90857 1.24663,1.01269 2.41582,2.06366 3.50754,3.15289 1.09174,1.08926 2.10077,2.21158 3.02712,3.36694 0.92631,1.15537 1.76547,2.3382 2.51747,3.5485 0.75201,1.21035 1.41324,2.44235 1.98366,3.69601 0.57043,1.25363 1.04733,2.52286 1.43069,3.80774 0.38338,1.28488 0.67137,2.57919 0.86398,3.88293 0.19263,1.30378 0.28894,2.61069 0.28893,3.92072 z" /><path
             id="path300"
             style="fill:none;stroke:#82b366;stroke-width:1;stroke-linecap:butt;stroke-linejoin:miter;stroke-miterlimit:10;stroke-dasharray:none;stroke-opacity:1"
             d="m 160,500 c 1e-5,1.31006 -0.0963,2.61694 -0.28893,3.92068 -0.19261,1.30372 -0.4806,2.598 -0.86398,3.88285 -0.38336,1.28488 -0.86026,2.55417 -1.43069,3.8078 -0.57042,1.2536 -1.23165,2.48559 -1.98366,3.69592 -0.752,1.21033 -1.59116,2.39319 -2.51747,3.54858 -0.92635,1.15534 -1.93538,2.27765 -3.02712,3.36689 -1.09172,1.08929 -2.26091,2.14032 -3.50754,3.15301 -1.24664,1.0127 -2.56471,1.98218 -3.95422,2.90851 -1.38951,0.92633 -2.84378,1.80505 -4.36281,2.63617 -1.51901,0.83105 -3.09547,1.61047 -4.72938,2.33826 -1.6339,0.72784 -3.31735,1.40057 -5.0504,2.01812 -1.73304,0.61756 -3.50731,1.17701 -5.32281,1.67829 -1.81548,0.50134 -3.66346,0.9422 -5.54391,1.32251 -1.88046,0.38031 -3.78435,0.69824 -5.71167,0.95379 -1.92732,0.25562 -3.86878,0.44764 -5.82438,0.57599 C 103.92542,539.93579 101.96507,540 100,540 c -1.965065,0 -3.925407,-0.0642 -5.881027,-0.19263 -1.955612,-0.12835 -3.89708,-0.32037 -5.824402,-0.57599 -1.927315,-0.25555 -3.8312,-0.57348 -5.711655,-0.95379 -1.880462,-0.38031 -3.728439,-0.82117 -5.543937,-1.32251 -1.815484,-0.50128 -3.589753,-1.06073 -5.322792,-1.67829 -1.73304,-0.61755 -3.416512,-1.29028 -5.050416,-2.01812 -1.633895,-0.72779 -3.210353,-1.50721 -4.729373,-2.33826 -1.519024,-0.83112 -2.973294,-1.70984 -4.362809,-2.63617 -1.389515,-0.92633 -2.707588,-1.89581 -3.954216,-2.90851 -1.246635,-1.01269 -2.415821,-2.06372 -3.50756,-3.15301 -1.091736,-1.08924 -2.100769,-2.21155 -3.027096,-3.36689 -0.926327,-1.15539 -1.765492,-2.33825 -2.517494,-3.54858 -0.752003,-1.21033 -1.413216,-2.44226 -1.983647,-3.69589 -0.570431,-1.25366 -1.047329,-2.52292 -1.430698,-3.8078 -0.383366,-1.28488 -0.671353,-2.57916 -0.863964,-3.88288 C 40.096306,502.61694 40.000004,501.31006 40,500 c 4e-6,-1.31003 0.09631,-2.61694 0.288914,-3.92072 0.192611,-1.30374 0.480598,-2.59805 0.863964,-3.88293 0.383369,-1.28488 0.860267,-2.55411 1.430698,-3.80774 0.570431,-1.25363 1.231644,-2.48563 1.983647,-3.69598 0.752002,-1.2103 1.591167,-2.39316 2.517494,-3.54853 0.92633,-1.15536 1.935364,-2.27768 3.027099,-3.36694 1.09174,-1.08923 2.260926,-2.1402 3.507557,-3.15289 1.246628,-1.0127 2.564701,-1.98221 3.954216,-2.90857 1.389515,-0.92633 2.843785,-1.80506 4.362805,-2.63614 1.519024,-0.83109 3.095482,-1.61054 4.729385,-2.33838 1.633904,-0.72781 3.317375,-1.40048 5.050408,-2.01804 1.733047,-0.61758 3.507316,-1.17703 5.322799,-1.67837 1.815499,-0.50131 3.663475,-0.94211 5.54393,-1.32239 1.880455,-0.38028 3.78434,-0.69821 5.711655,-0.95379 1.927322,-0.25556 3.86879,-0.44755 5.824402,-0.57596 1.95562,-0.12839 3.915962,-0.1926 5.881027,-0.19263 1.96507,3e-5 3.92542,0.0642 5.88103,0.19263 1.9556,0.12841 3.89706,0.3204 5.82438,0.57596 1.92732,0.25558 3.83121,0.57354 5.71167,0.95382 1.88045,0.38028 3.72843,0.82108 5.54391,1.32239 1.8155,0.50131 3.58977,1.06079 5.32281,1.67838 1.73305,0.61752 3.4165,1.29019 5.0504,2.018 1.63391,0.72784 3.21037,1.50729 4.72938,2.33838 1.51903,0.83108 2.9733,1.70981 4.36281,2.63614 1.38951,0.92636 2.70758,1.89587 3.95422,2.90857 1.24663,1.01269 2.41582,2.06366 3.50754,3.15289 1.09174,1.08926 2.10077,2.21158 3.02712,3.36694 0.92631,1.15537 1.76547,2.3382 2.51747,3.5485 0.75201,1.21035 1.41324,2.44235 1.98366,3.69601 0.57043,1.25363 1.04733,2.52286 1.43069,3.80774 0.38338,1.28488 0.67137,2.57919 0.86398,3.88293 0.19263,1.30378 0.28894,2.61069 0.28893,3.92072 z" /></g><g
           transform="scale(2.9991949)"
           id="g302"><text
             id="text306"
             style="font-variant:normal;font-weight:normal;font-size:12px;font-family:'Helvetica Neue';-inkscape-font-specification:Helvetica;writing-mode:lr-tb;fill:#000000;fill-opacity:1;fill-rule:nonzero;stroke:none"
             transform="translate(72.65625,505)"><tspan
               id="tspan304"
               y="0"
               x="0 7.3300781 14.003906 18 26.666016 33.339844 37.335938 44.009766 50.683594">Forwarder</tspan></text>
</g><g
           transform="matrix(2.9991949,0,0,2.9991949,1.4995974,1.4995974)"
           id="g308"><path
             id="path310"
             style="fill:#ffe6cc;fill-opacity:1;fill-rule:nonzero;stroke:none"
             d="m 300,500 c 3e-5,1.31006 -0.0963,2.61694 -0.28891,3.92068 -0.19263,1.30372 -0.48062,2.598 -0.86401,3.88285 -0.38337,1.28488 -0.86026,2.55417 -1.43067,3.8078 -0.57043,1.2536 -1.23166,2.48559 -1.98367,3.69592 -0.75201,1.21033 -1.59119,2.39319 -2.51749,3.54858 -0.92633,1.15534 -1.93536,2.27765 -3.0271,3.36689 -1.09173,1.08929 -2.26092,2.14032 -3.50753,3.15301 -1.24662,1.0127 -2.5647,1.98218 -3.95423,2.90851 -1.38949,0.92633 -2.84378,1.80505 -4.36279,2.63617 -1.51904,0.83105 -3.09552,1.61047 -4.72943,2.33826 -1.63388,0.72784 -3.31735,1.40057 -5.05042,2.01812 -1.73303,0.61756 -3.50729,1.17701 -5.32278,1.67829 -1.81546,0.50134 -3.66342,0.9422 -5.54389,1.32251 -1.88047,0.38031 -3.78437,0.69824 -5.7117,0.95379 -1.92729,0.25562 -3.86874,0.44764 -5.82435,0.57599 C 243.92542,539.93579 241.96507,540 240,540 c -1.96506,0 -3.9254,-0.0642 -5.88101,-0.19263 -1.95561,-0.12835 -3.8971,-0.32037 -5.82442,-0.57599 -1.92731,-0.25555 -3.83119,-0.57348 -5.71164,-0.95379 -1.88046,-0.38031 -3.72844,-0.82117 -5.54394,-1.32251 -1.81548,-0.50128 -3.58974,-1.06073 -5.32279,-1.67829 -1.73303,-0.61755 -3.4165,-1.29028 -5.05041,-2.01812 -1.6339,-0.72779 -3.21035,-1.50721 -4.72936,-2.33826 -1.51903,-0.83112 -2.97331,-1.70984 -4.36284,-2.63617 -1.38951,-0.92633 -2.70758,-1.89581 -3.95421,-2.90851 -1.24664,-1.01269 -2.41583,-2.06372 -3.50758,-3.15301 -1.09172,-1.08924 -2.10075,-2.21155 -3.02708,-3.36689 -0.92632,-1.15539 -1.76549,-2.33825 -2.51751,-3.54858 -0.75199,-1.21033 -1.4132,-2.44226 -1.98362,-3.69589 -0.57042,-1.25366 -1.04734,-2.52292 -1.43071,-3.8078 -0.38335,-1.28488 -0.67134,-2.57916 -0.86395,-3.88288 C 180.09631,502.61694 180,501.31006 180,500 c 0,-1.31003 0.0963,-2.61694 0.28893,-3.92072 0.19261,-1.30374 0.4806,-2.59805 0.86395,-3.88293 0.38337,-1.28488 0.86029,-2.55411 1.43071,-3.80774 0.57043,-1.25363 1.23164,-2.48563 1.98364,-3.69598 0.752,-1.2103 1.59117,-2.39316 2.51749,-3.54853 0.92634,-1.15536 1.93538,-2.27768 3.0271,-3.36694 1.09175,-1.08923 2.26094,-2.1402 3.50756,-3.15289 1.24663,-1.0127 2.5647,-1.98221 3.95421,-2.90857 1.38953,-0.92633 2.8438,-1.80506 4.36283,-2.63614 1.51902,-0.83109 3.09547,-1.61054 4.72937,-2.33838 1.63391,-0.72781 3.31738,-1.40048 5.05043,-2.01804 1.73303,-0.61758 3.50729,-1.17703 5.32277,-1.67837 1.8155,-0.50131 3.66348,-0.94211 5.54393,-1.32239 1.88046,-0.38028 3.78434,-0.69821 5.71164,-0.95379 1.92733,-0.25556 3.86882,-0.44755 5.82443,-0.57596 1.95561,-0.12839 3.91595,-0.1926 5.88101,-0.19263 1.96507,3e-5 3.92542,0.0642 5.88103,0.19263 1.95561,0.12841 3.89706,0.3204 5.82435,0.57596 1.92733,0.25558 3.83123,0.57354 5.71167,0.95382 1.88047,0.38028 3.72846,0.82108 5.54392,1.32239 1.81549,0.50131 3.58975,1.06079 5.32278,1.67838 1.73307,0.61752 3.41654,1.29019 5.05042,2.018 1.63391,0.72784 3.21039,1.50729 4.72943,2.33838 1.51901,0.83108 2.9733,1.70981 4.36279,2.63614 1.38953,0.92636 2.70761,1.89587 3.95423,2.90857 1.24661,1.01269 2.4158,2.06366 3.50753,3.15289 1.09174,1.08926 2.10077,2.21158 3.0271,3.36694 0.9263,1.15537 1.76548,2.3382 2.51749,3.5485 0.75201,1.21035 1.41324,2.44235 1.98367,3.69601 0.57041,1.25363 1.0473,2.52286 1.43067,3.80774 0.38339,1.28488 0.67138,2.57919 0.86401,3.88293 0.19263,1.30378 0.28894,2.61069 0.28891,3.92072 z" /><path
             id="path312"
             style="fill:none;stroke:#d79b00;stroke-width:1;stroke-linecap:butt;stroke-linejoin:miter;stroke-miterlimit:10;stroke-dasharray:none;stroke-opacity:1"
             d="m 300,500 c 3e-5,1.31006 -0.0963,2.61694 -0.28891,3.92068 -0.19263,1.30372 -0.48062,2.598 -0.86401,3.88285 -0.38337,1.28488 -0.86026,2.55417 -1.43067,3.8078 -0.57043,1.2536 -1.23166,2.48559 -1.98367,3.69592 -0.75201,1.21033 -1.59119,2.39319 -2.51749,3.54858 -0.92633,1.15534 -1.93536,2.27765 -3.0271,3.36689 -1.09173,1.08929 -2.26092,2.14032 -3.50753,3.15301 -1.24662,1.0127 -2.5647,1.98218 -3.95423,2.90851 -1.38949,0.92633 -2.84378,1.80505 -4.36279,2.63617 -1.51904,0.83105 -3.09552,1.61047 -4.72943,2.33826 -1.63388,0.72784 -3.31735,1.40057 -5.05042,2.01812 -1.73303,0.61756 -3.50729,1.17701 -5.32278,1.67829 -1.81546,0.50134 -3.66342,0.9422 -5.54389,1.32251 -1.88047,0.38031 -3.78437,0.69824 -5.7117,0.95379 -1.92729,0.25562 -3.86874,0.44764 -5.82435,0.57599 C 243.92542,539.93579 241.96507,540 240,540 c -1.96506,0 -3.9254,-0.0642 -5.88101,-0.19263 -1.95561,-0.12835 -3.8971,-0.32037 -5.82442,-0.57599 -1.92731,-0.25555 -3.83119,-0.57348 -5.71164,-0.95379 -1.88046,-0.38031 -3.72844,-0.82117 -5.54394,-1.32251 -1.81548,-0.50128 -3.58974,-1.06073 -5.32279,-1.67829 -1.73303,-0.61755 -3.4165,-1.29028 -5.05041,-2.01812 -1.6339,-0.72779 -3.21035,-1.50721 -4.72936,-2.33826 -1.51903,-0.83112 -2.97331,-1.70984 -4.36284,-2.63617 -1.38951,-0.92633 -2.70758,-1.89581 -3.95421,-2.90851 -1.24664,-1.01269 -2.41583,-2.06372 -3.50758,-3.15301 -1.09172,-1.08924 -2.10075,-2.21155 -3.02708,-3.36689 -0.92632,-1.15539 -1.76549,-2.33825 -2.51751,-3.54858 -0.75199,-1.21033 -1.4132,-2.44226 -1.98362,-3.69589 -0.57042,-1.25366 -1.04734,-2.52292 -1.43071,-3.8078 -0.38335,-1.28488 -0.67134,-2.57916 -0.86395,-3.88288 C 180.09631,502.61694 180,501.31006 180,500 c 0,-1.31003 0.0963,-2.61694 0.28893,-3.92072 0.19261,-1.30374 0.4806,-2.59805 0.86395,-3.88293 0.38337,-1.28488 0.86029,-2.55411 1.43071,-3.80774 0.57043,-1.25363 1.23164,-2.48563 1.98364,-3.69598 0.752,-1.2103 1.59117,-2.39316 2.51749,-3.54853 0.92634,-1.15536 1.93538,-2.27768 3.0271,-3.36694 1.09175,-1.08923 2.26094,-2.1402 3.50756,-3.15289 1.24663,-1.0127 2.5647,-1.98221 3.95421,-2.90857 1.38953,-0.92633 2.8438,-1.80506 4.36283,-2.63614 1.51902,-0.83109 3.09547,-1.61054 4.72937,-2.33838 1.63391,-0.72781 3.31738,-1.40048 5.05043,-2.01804 1.73303,-0.61758 3.50729,-1.17703 5.32277,-1.67837 1.8155,-0.50131 3.66348,-0.94211 5.54393,-1.32239 1.88046,-0.38028 3.78434,-0.69821 5.71164,-0.95379 1.92733,-0.25556 3.86882,-0.44755 5.82443,-0.57596 1.95561,-0.12839 3.91595,-0.1926 5.88101,-0.19263 1.96507,3e-5 3.92542,0.0642 5.88103,0.19263 1.95561,0.12841 3.89706,0.3204 5.82435,0.57596 1.92733,0.25558 3.83123,0.57354 5.71167,0.95382 1.88047,0.38028 3.72846,0.82108 5.54392,1.32239 1.81549,0.50131 3.58975,1.06079 5.32278,1.67838 1.73307,0.61752 3.41654,1.29019 5.05042,2.018 1.63391,0.72784 3.21039,1.50729 4.72943,2.33838 1.51901,0.83108 2.9733,1.70981 4.36279,2.63614 1.38953,0.92636 2.70761,1.89587 3.95423,2.90857 1.24661,1.01269 2.4158,2.06366 3.50753,3.15289 1.09174,1.08926 2.10077,2.21158 3.0271,3.36694 0.9263,1.15537 1.76548,2.3382 2.51749,3.5485 0.75201,1.21035 1.41324,2.44235 1.98367,3.69601 0.57041,1.25363 1.0473,2.52286 1.43067,3.80774 0.38339,1.28488 0.67138,2.57919 0.86401,3.88293 0.19263,1.30378 0.28894,2.61069 0.28891,3.92072 z" /></g><g
           transform="scale(2.9991949)"
           id="g314"><text
             id="text318"
             style="font-variant:normal;font-weight:normal;font-size:12px;font-family:'Helvetica Neue';-inkscape-font-specification:Helvetica;writing-mode:lr-tb;fill:#000000;fill-opacity:1;fill-rule:nonzero;stroke:none"
             transform="translate(189.96875,505)"><tspan
               id="tspan316"
               y="0"
               x="0 8.6660156 15.339844 21.339844 24.005859 30.679688 36.679688 42.679688 45.345703 48.679688 54.679688 61.353516 68.027344 74.027344 80.701172 84.035156 86.701172 93.375">DeclassifyLocation</tspan></text>
</g><g
           transform="matrix(2.9991949,0,0,2.9991949,1.4995974,1.4995974)"
           id="g320"><path
             id="path322"
             style="fill:#fff2cc;fill-opacity:1;fill-rule:nonzero;stroke:none"
             d="m 440,500 c 0,1.31006 -0.0963,2.61694 -0.28894,3.92068 -0.1926,1.30372 -0.48059,2.598 -0.86398,3.88285 -0.38337,1.28488 -0.86026,2.55417 -1.4307,3.8078 -0.5704,1.2536 -1.23163,2.48559 -1.98367,3.69592 -0.75198,1.21033 -1.59116,2.39319 -2.51746,3.54858 -0.92636,1.15534 -1.93539,2.27765 -3.02713,3.36689 -1.09173,1.08929 -2.26089,2.14032 -3.5075,3.15301 -1.24665,1.0127 -2.56473,1.98218 -3.95426,2.90851 -1.38949,0.92633 -2.84378,1.80505 -4.36282,2.63617 -1.51901,0.83105 -3.09546,1.61047 -4.7294,2.33826 -1.63388,0.72784 -3.31732,1.40057 -5.05039,2.01812 -1.733,0.61756 -3.50726,1.17701 -5.32278,1.67829 -1.81546,0.50134 -3.66345,0.9422 -5.54392,1.32251 -1.88046,0.38031 -3.78433,0.69824 -5.71167,0.95379 -1.92727,0.25562 -3.86874,0.44764 -5.82437,0.57599 C 383.92542,539.93579 381.96506,540 380,540 c -1.96506,0 -3.92542,-0.0642 -5.88104,-0.19263 -1.95563,-0.12835 -3.8971,-0.32037 -5.82443,-0.57599 -1.92731,-0.25555 -3.83121,-0.57348 -5.71167,-0.95379 -1.88044,-0.38031 -3.7284,-0.82117 -5.54392,-1.32251 -1.81546,-0.50128 -3.58972,-1.06073 -5.32278,-1.67829 -1.73304,-0.61755 -3.41651,-1.29028 -5.05042,-2.01812 -1.63388,-0.72779 -3.21033,-1.50721 -4.72934,-2.33826 -1.51901,-0.83112 -2.9733,-1.70984 -4.36282,-2.63617 -1.3895,-0.92633 -2.70755,-1.89581 -3.9542,-2.90851 -1.24661,-1.01269 -2.4158,-2.06372 -3.50756,-3.15301 -1.09174,-1.08924 -2.10077,-2.21155 -3.0271,-3.36689 -0.92633,-1.15539 -1.76551,-2.33825 -2.51752,-3.54858 -0.75198,-1.21033 -1.41321,-2.44226 -1.98364,-3.69589 -0.57041,-1.25366 -1.04731,-2.52292 -1.4307,-3.8078 -0.38336,-1.28488 -0.67135,-2.57916 -0.86395,-3.88288 C 320.09631,502.61694 320.00003,501.31006 320,500 c 3e-5,-1.31003 0.0963,-2.61694 0.28891,-3.92072 0.1926,-1.30374 0.48059,-2.59805 0.86395,-3.88293 0.38339,-1.28488 0.86029,-2.55411 1.4307,-3.80774 0.57043,-1.25363 1.23166,-2.48563 1.98364,-3.69598 0.75201,-1.2103 1.59119,-2.39316 2.51752,-3.54853 0.92633,-1.15536 1.93536,-2.27768 3.02707,-3.36694 1.09176,-1.08923 2.26098,-2.1402 3.50759,-3.15289 1.24665,-1.0127 2.5647,-1.98221 3.9542,-2.90857 1.38952,-0.92633 2.84381,-1.80506 4.36282,-2.63614 1.51901,-0.83109 3.09546,-1.61054 4.72934,-2.33838 1.63391,-0.72781 3.31738,-1.40048 5.05042,-2.01804 1.73306,-0.61758 3.50732,-1.17703 5.32278,-1.67837 1.81552,-0.50131 3.66348,-0.94211 5.54392,-1.32239 1.88046,-0.38028 3.78436,-0.69821 5.71167,-0.95379 1.92733,-0.25556 3.8688,-0.44755 5.82443,-0.57596 1.95562,-0.12839 3.91598,-0.1926 5.88104,-0.19263 1.96506,3e-5 3.92538,0.0642 5.88098,0.19263 1.95566,0.12841 3.89713,0.3204 5.8244,0.57596 1.92734,0.25558 3.83121,0.57354 5.71167,0.95382 1.88047,0.38028 3.72846,0.82108 5.54392,1.32239 1.81552,0.50131 3.58978,1.06079 5.32278,1.67838 1.73307,0.61752 3.41654,1.29019 5.05042,2.018 1.63391,0.72784 3.21039,1.50729 4.7294,2.33838 1.51901,0.83108 2.9733,1.70981 4.36279,2.63614 1.38953,0.92636 2.70761,1.89587 3.95426,2.90857 1.24661,1.01269 2.41577,2.06366 3.5075,3.15289 1.09174,1.08926 2.10077,2.21158 3.0271,3.36694 0.92633,1.15537 1.76551,2.3382 2.51749,3.5485 0.75204,1.21035 1.41327,2.44235 1.98367,3.69601 0.57044,1.25363 1.04733,2.52286 1.4307,3.80774 0.38339,1.28488 0.67138,2.57919 0.86401,3.88293 C 439.90369,497.38306 440,498.68997 440,500 Z" /><path
             id="path324"
             style="fill:none;stroke:#d6b656;stroke-width:1;stroke-linecap:butt;stroke-linejoin:miter;stroke-miterlimit:10;stroke-dasharray:none;stroke-opacity:1"
             d="m 440,500 c 0,1.31006 -0.0963,2.61694 -0.28894,3.92068 -0.1926,1.30372 -0.48059,2.598 -0.86398,3.88285 -0.38337,1.28488 -0.86026,2.55417 -1.4307,3.8078 -0.5704,1.2536 -1.23163,2.48559 -1.98367,3.69592 -0.75198,1.21033 -1.59116,2.39319 -2.51746,3.54858 -0.92636,1.15534 -1.93539,2.27765 -3.02713,3.36689 -1.09173,1.08929 -2.26089,2.14032 -3.5075,3.15301 -1.24665,1.0127 -2.56473,1.98218 -3.95426,2.90851 -1.38949,0.92633 -2.84378,1.80505 -4.36282,2.63617 -1.51901,0.83105 -3.09546,1.61047 -4.7294,2.33826 -1.63388,0.72784 -3.31732,1.40057 -5.05039,2.01812 -1.733,0.61756 -3.50726,1.17701 -5.32278,1.67829 -1.81546,0.50134 -3.66345,0.9422 -5.54392,1.32251 -1.88046,0.38031 -3.78433,0.69824 -5.71167,0.95379 -1.92727,0.25562 -3.86874,0.44764 -5.82437,0.57599 C 383.92542,539.93579 381.96506,540 380,540 c -1.96506,0 -3.92542,-0.0642 -5.88104,-0.19263 -1.95563,-0.12835 -3.8971,-0.32037 -5.82443,-0.57599 -1.92731,-0.25555 -3.83121,-0.57348 -5.71167,-0.95379 -1.88044,-0.38031 -3.7284,-0.82117 -5.54392,-1.32251 -1.81546,-0.50128 -3.58972,-1.06073 -5.32278,-1.67829 -1.73304,-0.61755 -3.41651,-1.29028 -5.05042,-2.01812 -1.63388,-0.72779 -3.21033,-1.50721 -4.72934,-2.33826 -1.51901,-0.83112 -2.9733,-1.70984 -4.36282,-2.63617 -1.3895,-0.92633 -2.70755,-1.89581 -3.9542,-2.90851 -1.24661,-1.01269 -2.4158,-2.06372 -3.50756,-3.15301 -1.09174,-1.08924 -2.10077,-2.21155 -3.0271,-3.36689 -0.92633,-1.15539 -1.76551,-2.33825 -2.51752,-3.54858 -0.75198,-1.21033 -1.41321,-2.44226 -1.98364,-3.69589 -0.57041,-1.25366 -1.04731,-2.52292 -1.4307,-3.8078 -0.38336,-1.28488 -0.67135,-2.57916 -0.86395,-3.88288 C 320.09631,502.61694 320.00003,501.31006 320,500 c 3e-5,-1.31003 0.0963,-2.61694 0.28891,-3.92072 0.1926,-1.30374 0.48059,-2.59805 0.86395,-3.88293 0.38339,-1.28488 0.86029,-2.55411 1.4307,-3.80774 0.57043,-1.25363 1.23166,-2.48563 1.98364,-3.69598 0.75201,-1.2103 1.59119,-2.39316 2.51752,-3.54853 0.92633,-1.15536 1.93536,-2.27768 3.02707,-3.36694 1.09176,-1.08923 2.26098,-2.1402 3.50759,-3.15289 1.24665,-1.0127 2.5647,-1.98221 3.9542,-2.90857 1.38952,-0.92633 2.84381,-1.80506 4.36282,-2.63614 1.51901,-0.83109 3.09546,-1.61054 4.72934,-2.33838 1.63391,-0.72781 3.31738,-1.40048 5.05042,-2.01804 1.73306,-0.61758 3.50732,-1.17703 5.32278,-1.67837 1.81552,-0.50131 3.66348,-0.94211 5.54392,-1.32239 1.88046,-0.38028 3.78436,-0.69821 5.71167,-0.95379 1.92733,-0.25556 3.8688,-0.44755 5.82443,-0.57596 1.95562,-0.12839 3.91598,-0.1926 5.88104,-0.19263 1.96506,3e-5 3.92538,0.0642 5.88098,0.19263 1.95566,0.12841 3.89713,0.3204 5.8244,0.57596 1.92734,0.25558 3.83121,0.57354 5.71167,0.95382 1.88047,0.38028 3.72846,0.82108 5.54392,1.32239 1.81552,0.50131 3.58978,1.06079 5.32278,1.67838 1.73307,0.61752 3.41654,1.29019 5.05042,2.018 1.63391,0.72784 3.21039,1.50729 4.7294,2.33838 1.51901,0.83108 2.9733,1.70981 4.36279,2.63614 1.38953,0.92636 2.70761,1.89587 3.95426,2.90857 1.24661,1.01269 2.41577,2.06366 3.5075,3.15289 1.09174,1.08926 2.10077,2.21158 3.0271,3.36694 0.92633,1.15537 1.76551,2.3382 2.51749,3.5485 0.75204,1.21035 1.41327,2.44235 1.98367,3.69601 0.57044,1.25363 1.04733,2.52286 1.4307,3.80774 0.38339,1.28488 0.67138,2.57919 0.86401,3.88293 C 439.90369,497.38306 440,498.68997 440,500 Z" /></g><g
           transform="scale(2.9991949)"
           id="g326"><text
             id="text330"
             style="font-variant:normal;font-weight:normal;font-size:12px;font-family:'Helvetica Neue';-inkscape-font-specification:Helvetica;writing-mode:lr-tb;fill:#000000;fill-opacity:1;fill-rule:nonzero;stroke:none"
             transform="translate(329.3125,505)"><tspan
               id="tspan328"
               y="0"
               x="0 8.6660156 15.339844 21.339844 24.005859 30.679688 36.679688 42.679688 45.345703 48.679688 54.679688 63.345703 66.011719 72.011719 75.345703 82.019531 88.693359 94.693359">DeclassifyDistance</tspan></text>
</g><g
           transform="matrix(2.9991949,0,0,2.9991949,1.4995974,1.4995974)"
           id="g332"><path
             id="path334"
             style="fill:#e1d5e7;fill-opacity:1;fill-rule:nonzero;stroke:none"
             d="m 510,477.5 h 115 v 20 H 510 Z" /><path
             id="path336"
             style="fill:none;stroke:#9673a6;stroke-width:1;stroke-linecap:butt;stroke-linejoin:miter;stroke-miterlimit:10;stroke-dasharray:none;stroke-opacity:1"
             d="m 510,477.5 h 115 v 20 H 510 Z" /></g><g
           transform="scale(2.9991949)"
           id="g338"><text
             id="text342"
             style="font-variant:normal;font-weight:normal;font-size:12px;font-family:'Helvetica Neue';-inkscape-font-specification:Helvetica;writing-mode:lr-tb;fill:#000000;fill-opacity:1;fill-rule:nonzero;stroke:none"
             transform="translate(524.14063,493)"><tspan
               id="tspan340"
               y="0"
               x="0 8.6660156 11.332031 18.005859 24.679688 28.675781 35.349609 42.023438 48.023438 54.697266 58.03125 64.705078 71.378906 77.378906 84.052734">Clearance Level</tspan></text>
</g><g
           transform="matrix(2.9991949,0,0,2.9991949,1.4995974,1.4995974)"
           id="g344"><path
             id="path346"
             style="fill:#f8cecc;fill-opacity:1;fill-rule:nonzero;stroke:none"
             d="m 510,502.5 h 115 v 20 H 510 Z" /><path
             id="path348"
             style="fill:none;stroke:#b85450;stroke-width:1;stroke-linecap:butt;stroke-linejoin:miter;stroke-miterlimit:10;stroke-dasharray:none;stroke-opacity:1"
             d="m 510,502.5 h 115 v 20 H 510 Z" /></g><g
           transform="scale(2.9991949)"
           id="g350"><text
             id="text354"
             style="font-variant:normal;font-weight:normal;font-size:12px;font-family:'Helvetica Neue';-inkscape-font-specification:Helvetica;writing-mode:lr-tb;fill:#000000;fill-opacity:1;fill-rule:nonzero;stroke:none"
             transform="translate(516.14063,518)"><tspan
               id="tspan352"
               y="0"
               x="0 8.6660156 11.332031 18.005859 24.005859 30.005859 32.671875 38.671875 44.671875 51.345703 54.679688 57.345703 64.019531 70.693359 74.027344 80.701172 87.375 93.375 100.04883">Classiﬁcation Level</tspan></text>
</g><g
           transform="matrix(2.9991949,0,0,2.9991949,1.4995974,1.4995974)"
           id="g356"><path
             id="path358"
             style="fill:#e1d5e7;fill-opacity:1;fill-rule:nonzero;stroke:none"
             d="m 72.5,50 h 115 v 20 h -115 z" /><path
             id="path360"
             style="fill:none;stroke:#9673a6;stroke-width:1;stroke-linecap:butt;stroke-linejoin:miter;stroke-miterlimit:10;stroke-dasharray:none;stroke-opacity:1"
             d="m 72.5,50 h 115 v 20 h -115 z" /></g><g
           transform="scale(2.9991949)"
           id="g362"><text
             id="text366"
             style="font-variant:normal;font-weight:normal;font-size:12px;font-family:'Helvetica Neue';-inkscape-font-specification:Helvetica;writing-mode:lr-tb;fill:#000000;fill-opacity:1;fill-rule:nonzero;stroke:none"
             transform="translate(117.82813,65)"><tspan
               id="tspan364"
               y="0"
               x="0 8.6660156 14.666016 21.339844">User</tspan></text>
</g><g
           transform="matrix(2.9991949,0,0,2.9991949,1.4995974,1.4995974)"
           id="g368"><path
             id="path370"
             style="fill:#e1d5e7;fill-opacity:1;fill-rule:nonzero;stroke:none"
             d="M 685,50 H 800 V 70 H 685 Z" /><path
             id="path372"
             style="fill:none;stroke:#9673a6;stroke-width:1;stroke-linecap:butt;stroke-linejoin:miter;stroke-miterlimit:10;stroke-dasharray:none;stroke-opacity:1"
             d="M 685,50 H 800 V 70 H 685 Z" /></g><g
           transform="scale(2.9991949)"
           id="g374"><text
             id="text378"
             style="font-variant:normal;font-weight:normal;font-size:12px;font-family:'Helvetica Neue';-inkscape-font-specification:Helvetica;writing-mode:lr-tb;fill:#000000;fill-opacity:1;fill-rule:nonzero;stroke:none"
             transform="translate(705.14063,65)"><tspan
               id="tspan376"
               y="0"
               x="0 9.3339844 16.007812 18.673828 24.673828 28.007812 36.673828 39.339844 45.339844 48.673828 55.347656 62.021484 68.021484">Only Distance</tspan></text>
</g><g
           transform="matrix(2.9991949,0,0,2.9991949,1.4995974,1.4995974)"
           id="g380"><path
             id="path382"
             style="fill:#e1d5e7;fill-opacity:1;fill-rule:nonzero;stroke:none"
             d="M 400,50 H 530 V 70 H 400 Z" /><path
             id="path384"
             style="fill:none;stroke:#9673a6;stroke-width:1;stroke-linecap:butt;stroke-linejoin:miter;stroke-miterlimit:10;stroke-dasharray:none;stroke-opacity:1"
             d="M 400,50 H 530 V 70 H 400 Z" /></g><g
           transform="scale(2.9991949)"
           id="g386"><text
             id="text390"
             style="font-variant:normal;font-weight:normal;font-size:12px;font-family:'Helvetica Neue';-inkscape-font-specification:Helvetica;writing-mode:lr-tb;fill:#000000;fill-opacity:1;fill-rule:nonzero;stroke:none"
             transform="translate(408.1875,65)"><tspan
               id="tspan388"
               y="0"
               x="0 8.6660156 14.666016 21.339844 24.679688 28.013672 34.904297 38.900391 45.574219 51.574219 57.574219 60.240234 66.914062 73.587891 81.591797 88.265625 92.261719 98.261719 100.92773 106.92773">User,TrackingService</tspan></text>
</g><g
           transform="matrix(2.9991949,0,0,2.9991949,1.4995974,1.4995974)"
           id="g392"><path
             id="path394"
             style="fill:#f8cecc;fill-opacity:1;fill-rule:nonzero;stroke:none"
             d="m 68,250 h 124 v 20 H 68 Z" /><path
             id="path396"
             style="fill:none;stroke:#b85450;stroke-width:1;stroke-linecap:butt;stroke-linejoin:miter;stroke-miterlimit:10;stroke-dasharray:none;stroke-opacity:1"
             d="m 68,250 h 124 v 20 H 68 Z" /></g><g
           transform="scale(2.9991949)"
           id="g398"><text
             id="text402"
             style="font-variant:normal;font-weight:normal;font-size:12px;font-family:'Helvetica Neue';-inkscape-font-specification:Helvetica;writing-mode:lr-tb;fill:#000000;fill-opacity:1;fill-rule:nonzero;stroke:none"
             transform="translate(73.1875,265)"><tspan
               id="tspan400"
               y="0"
               x="0 8.6660156 14.666016 21.339844 24.679688 28.013672 34.904297 38.900391 45.574219 51.574219 57.574219 60.240234 66.914062 73.587891 81.591797 88.265625 92.261719 98.261719 100.92773 106.92773">User,TrackingService</tspan></text>
</g><g
           transform="matrix(2.9991949,0,0,2.9991949,1.4995974,1.4995974)"
           id="g404"><path
             id="path406"
             style="fill:#f8cecc;fill-opacity:1;fill-rule:nonzero;stroke:none"
             d="m 39,218 h 34 v 20 H 39 Z" /><path
             id="path408"
             style="fill:none;stroke:#b85450;stroke-width:1;stroke-linecap:butt;stroke-linejoin:miter;stroke-miterlimit:10;stroke-dasharray:none;stroke-opacity:1"
             d="m 39,218 h 34 v 20 H 39 Z" /></g><g
           transform="scale(2.9991949)"
           id="g410"><text
             id="text414"
             style="font-variant:normal;font-weight:normal;font-size:12px;font-family:'Helvetica Neue';-inkscape-font-specification:Helvetica;writing-mode:lr-tb;fill:#000000;fill-opacity:1;fill-rule:nonzero;stroke:none"
             transform="translate(43.328125,233)"><tspan
               id="tspan412"
               y="0"
               x="0 8.6660156 14.666016 21.339844">User</tspan></text>
</g><g
           transform="matrix(2.9991949,0,0,2.9991949,1.4995974,1.4995974)"
           id="g416"><path
             id="path418"
             style="fill:none;stroke:#ff0303;stroke-width:1;stroke-linecap:butt;stroke-linejoin:miter;stroke-miterlimit:10;stroke-dasharray:none;stroke-opacity:1"
             d="M 412.42999,331.72 676.91998,249.88" /><path
             id="path420"
             style="fill:#ff0303;fill-opacity:1;fill-rule:nonzero;stroke:none"
             d="m 681.92999,248.33 -5.64996,5.41001 0.63995,-3.86001 -2.70996,-2.82 z" /><path
             id="path422"
             style="fill:none;stroke:#ff0303;stroke-width:1;stroke-linecap:butt;stroke-linejoin:miter;stroke-miterlimit:10;stroke-dasharray:none;stroke-opacity:1"
             d="m 681.92999,248.33 -5.64996,5.41001 0.63995,-3.86001 -2.70996,-2.82 z" /></g><g
           transform="scale(2.9991949)"
           id="g424"><path
             id="path426"
             style="fill:#ffffff;fill-opacity:1;fill-rule:nonzero;stroke:none"
             d="m 528,284 h 41 v 13 h -41 z" /><text
             id="text430"
             style="font-variant:normal;font-weight:normal;font-size:11px;font-family:'Helvetica Neue';-inkscape-font-specification:Helvetica;writing-mode:lr-tb;fill:#ff0303;fill-opacity:1;fill-rule:nonzero;stroke:none"
             transform="translate(528.01563,294)"><tspan
               id="tspan428"
               y="0"
               x="0 6.1176758 8.5615234 14.061523 17.117676 23.235352 29.353027 34.853027">distance</tspan></text>
</g></g></g></g></svg>