<?xml version="1.0" encoding="UTF-8" standalone="no"?>
<!-- Created with Inkscape (http://www.inkscape.org/) -->

<svg
   xmlns:dc="http://purl.org/dc/elements/1.1/"
   xmlns:cc="http://creativecommons.org/ns#"
   xmlns:rdf="http://www.w3.org/1999/02/22-rdf-syntax-ns#"
   xmlns:svg="http://www.w3.org/2000/svg"
   xmlns="http://www.w3.org/2000/svg"
   xmlns:sodipodi="http://sodipodi.sourceforge.net/DTD/sodipodi-0.dtd"
   xmlns:inkscape="http://www.inkscape.org/namespaces/inkscape"
   version="1.1"
   id="svg2"
   xml:space="preserve"
   width="735.1626"
   height="393.9819"
   viewBox="0 0 735.1626 393.98192"
   sodipodi:docname="DAC.svg"
   inkscape:version="0.92.4 (5da689c313, 2019-01-14)"><metadata
     id="metadata8"><rdf:RDF><cc:Work
         rdf:about=""><dc:format>image/svg+xml</dc:format><dc:type
           rdf:resource="http://purl.org/dc/dcmitype/StillImage" /><dc:title></dc:title></cc:Work></rdf:RDF></metadata><defs
     id="defs6"><clipPath
       clipPathUnits="userSpaceOnUse"
       id="clipPath18"><path
         d="M 0,0 H 2483.3333 V 3506.0588 H 0 Z"
         id="path16"
         inkscape:connector-curvature="0"
         style="clip-rule:evenodd" /></clipPath><clipPath
       clipPathUnits="userSpaceOnUse"
       id="clipPath32"><path
         d="M 0,0 H 2483.3333 V 3506.0588 H 0 Z"
         id="path30"
         inkscape:connector-curvature="0"
         style="clip-rule:evenodd" /></clipPath></defs><sodipodi:namedview
     pagecolor="#ffffff"
     bordercolor="#666666"
     borderopacity="1"
     objecttolerance="10"
     gridtolerance="10"
     guidetolerance="10"
     inkscape:pageopacity="0"
     inkscape:pageshadow="2"
     inkscape:window-width="640"
     inkscape:window-height="480"
     id="namedview4"
     showgrid="false"
     fit-margin-top="0"
     fit-margin-left="0"
     fit-margin-right="0"
     fit-margin-bottom="0"
     inkscape:zoom="0.21023374"
     inkscape:cx="378.08515"
     inkscape:cy="-148.10323"
     inkscape:window-x="0"
     inkscape:window-y="0"
     inkscape:window-maximized="0"
     inkscape:current-layer="g10" /><g
     id="g10"
     inkscape:groupmode="layer"
     inkscape:label="DAC"
     transform="matrix(0.31999998,0,0,0.31999998,-19.194846,-19.194846)"><g
       id="g26"><g
         id="g28"
         clip-path="url(#clipPath32)"><g
           id="g34"
           transform="matrix(2.9991949,0,0,2.9991949,1.4995974,1.4995974)"><path
             d="m 111.5,137.5 c -1e-5,0.49246 -0.0481,0.98019 -0.14413,1.46318 -0.0961,0.48299 -0.23833,0.95197 -0.42678,1.40694 -0.18846,0.45495 -0.41948,0.88717 -0.69308,1.29664 -0.2736,0.40947 -0.5845,0.78832 -0.93272,1.13654 -0.34821,0.34822 -0.72706,0.65912 -1.13653,0.93271 -0.40946,0.27359 -0.84168,0.50462 -1.29665,0.69308 -0.45496,0.18845 -0.92394,0.33071 -1.40694,0.42679 C 104.98018,144.95196 104.49246,145 104,145 c -0.49246,0 -0.98019,-0.048 -1.46319,-0.14412 -0.483,-0.0961 -0.95199,-0.23834 -1.40695,-0.42679 -0.45496,-0.18846 -0.88718,-0.41949 -1.296654,-0.69308 -0.409454,-0.27359 -0.788292,-0.58449 -1.136513,-0.93271 -0.34822,-0.34822 -0.659126,-0.72707 -0.932724,-1.13654 -0.27359,-0.40947 -0.504615,-0.84169 -0.693069,-1.29664 -0.188454,-0.45497 -0.330719,-0.92395 -0.426796,-1.40694 C 96.548035,138.48019 96.5,137.99246 96.5,137.5 c 0,-0.49245 0.04803,-0.98018 0.144104,-1.46318 0.09608,-0.483 0.238342,-0.95198 0.426796,-1.40695 0.188454,-0.45497 0.419479,-0.88719 0.693069,-1.29665 0.273598,-0.40947 0.584504,-0.78831 0.932724,-1.13652 0.348221,-0.34822 0.727059,-0.65913 1.136513,-0.93274 0.409474,-0.27359 0.841694,-0.50461 1.296654,-0.69307 0.45496,-0.18844 0.92395,-0.3307 1.40695,-0.42679 C 103.01981,130.048 103.50754,130 104,130 c 0.49246,0 0.98018,0.048 1.46317,0.1441 0.483,0.0961 0.95198,0.23835 1.40694,0.42679 0.45497,0.18846 0.88719,0.41948 1.29665,0.69307 0.40947,0.27361 0.78832,0.58452 1.13653,0.93274 0.34822,0.34821 0.65912,0.72705 0.93272,1.13652 0.2736,0.40946 0.50462,0.84168 0.69308,1.29665 0.18845,0.45497 0.33071,0.92395 0.42679,1.40695 0.0961,0.483 0.14411,0.97073 0.14412,1.46318 z"
             style="fill:#ffffff;fill-opacity:1;fill-rule:nonzero;stroke:none"
             id="path36"
             inkscape:connector-curvature="0" /><path
             d="m 111.5,137.5 c -1e-5,0.49246 -0.0481,0.98019 -0.14413,1.46318 -0.0961,0.48299 -0.23833,0.95197 -0.42678,1.40694 -0.18846,0.45495 -0.41948,0.88717 -0.69308,1.29664 -0.2736,0.40947 -0.5845,0.78832 -0.93272,1.13654 -0.34821,0.34822 -0.72706,0.65912 -1.13653,0.93271 -0.40946,0.27359 -0.84168,0.50462 -1.29665,0.69308 -0.45496,0.18845 -0.92394,0.33071 -1.40694,0.42679 C 104.98018,144.95196 104.49246,145 104,145 c -0.49246,0 -0.98019,-0.048 -1.46319,-0.14412 -0.483,-0.0961 -0.95199,-0.23834 -1.40695,-0.42679 -0.45496,-0.18846 -0.88718,-0.41949 -1.296654,-0.69308 -0.409454,-0.27359 -0.788292,-0.58449 -1.136513,-0.93271 -0.34822,-0.34822 -0.659126,-0.72707 -0.932724,-1.13654 -0.27359,-0.40947 -0.504615,-0.84169 -0.693069,-1.29664 -0.188454,-0.45497 -0.330719,-0.92395 -0.426796,-1.40694 C 96.548035,138.48019 96.5,137.99246 96.5,137.5 c 0,-0.49245 0.04803,-0.98018 0.144104,-1.46318 0.09608,-0.483 0.238342,-0.95198 0.426796,-1.40695 0.188454,-0.45497 0.419479,-0.88719 0.693069,-1.29665 0.273598,-0.40947 0.584504,-0.78831 0.932724,-1.13652 0.348221,-0.34822 0.727059,-0.65913 1.136513,-0.93274 0.409474,-0.27359 0.841694,-0.50461 1.296654,-0.69307 0.45496,-0.18844 0.92395,-0.3307 1.40695,-0.42679 C 103.01981,130.048 103.50754,130 104,130 c 0.49246,0 0.98018,0.048 1.46317,0.1441 0.483,0.0961 0.95198,0.23835 1.40694,0.42679 0.45497,0.18846 0.88719,0.41948 1.29665,0.69307 0.40947,0.27361 0.78832,0.58452 1.13653,0.93274 0.34822,0.34821 0.65912,0.72705 0.93272,1.13652 0.2736,0.40946 0.50462,0.84168 0.69308,1.29665 0.18845,0.45497 0.33071,0.92395 0.42679,1.40695 0.0961,0.483 0.14411,0.97073 0.14412,1.46318 z"
             style="fill:none;stroke:#000000;stroke-width:1;stroke-linecap:butt;stroke-linejoin:miter;stroke-miterlimit:10;stroke-dasharray:none;stroke-opacity:1"
             id="path38"
             inkscape:connector-curvature="0" /><path
             d="m 104,145 v 25 m 0,-20 H 89 m 15,0 h 15 m -15,20 -15,20 m 15,-20 15,20"
             style="fill:none;stroke:#000000;stroke-width:1;stroke-linecap:butt;stroke-linejoin:miter;stroke-miterlimit:10;stroke-dasharray:none;stroke-opacity:1"
             id="path40"
             inkscape:connector-curvature="0" /></g><g
           id="g42"
           transform="scale(2.9991949)"><text
             transform="translate(93.5,208)"
             style="font-variant:normal;font-weight:normal;font-size:12px;font-family:'Helvetica Neue';-inkscape-font-specification:Helvetica;writing-mode:lr-tb;fill:#000000;fill-opacity:1;fill-rule:nonzero;stroke:none"
             id="text46"><tspan
               x="0 8.6660156 15.339844"
               y="0"
               sodipodi:role="line"
               id="tspan44">Dad</tspan></text>
</g><g
           id="g48"
           transform="matrix(2.9991949,0,0,2.9991949,1.4995974,1.4995974)"><path
             d="m 569,100 h 120 v 60 H 569 Z"
             style="fill:#ffffff;fill-opacity:1;fill-rule:nonzero;stroke:none"
             id="path50"
             inkscape:connector-curvature="0" /><path
             d="m 569,100 h 120 v 60 H 569 Z"
             style="fill:none;stroke:#000000;stroke-width:1;stroke-linecap:butt;stroke-linejoin:miter;stroke-miterlimit:10;stroke-dasharray:none;stroke-opacity:1"
             id="path52"
             inkscape:connector-curvature="0" /><path
             d="m 581,100 v 60 m 96,-60 v 60"
             style="fill:none;stroke:#000000;stroke-width:1;stroke-linecap:butt;stroke-linejoin:miter;stroke-miterlimit:10;stroke-dasharray:none;stroke-opacity:1"
             id="path54"
             inkscape:connector-curvature="0" /></g><g
           id="g56"
           transform="scale(2.9991949)"><text
             transform="translate(584.98438,135)"
             style="font-variant:normal;font-weight:normal;font-size:12px;font-family:'Helvetica Neue';-inkscape-font-specification:Helvetica;writing-mode:lr-tb;fill:#000000;fill-opacity:1;fill-rule:nonzero;stroke:none"
             id="text60"><tspan
               x="0 7.3300781 14.003906 24 26.666016 29.332031 31.998047 35.332031 41.332031 44.666016 52.669922 55.335938 61.335938 64.669922 71.34375 75.339844 82.013672"
               y="0"
               sodipodi:role="line"
               id="tspan58">Famility Pictures</tspan></text>
</g><g
           id="g62"
           transform="matrix(2.9991949,0,0,2.9991949,1.4995974,1.4995974)"><path
             d="m 111.5,27.5 c -1e-5,0.492456 -0.0481,0.980181 -0.14413,1.463173 -0.0961,0.482994 -0.23833,0.951977 -0.42678,1.406948 -0.18846,0.454971 -0.41948,0.887188 -0.69308,1.296652 -0.2736,0.409464 -0.5845,0.788305 -0.93272,1.136526 -0.34821,0.348217 -0.72706,0.659122 -1.13653,0.932716 -0.40946,0.273594 -0.84168,0.50462 -1.29665,0.693074 -0.45496,0.188457 -0.92394,0.330722 -1.40694,0.426796 C 104.98018,34.951962 104.49246,35 104,35 c -0.49246,0 -0.98019,-0.04804 -1.46319,-0.144115 -0.483,-0.09607 -0.95199,-0.238339 -1.40695,-0.426796 -0.45496,-0.188454 -0.88718,-0.41948 -1.296654,-0.693074 -0.409454,-0.273594 -0.788292,-0.584499 -1.136513,-0.932716 -0.34822,-0.348221 -0.659126,-0.727062 -0.932724,-1.136528 C 97.490379,31.257309 97.259354,30.825092 97.0709,30.370121 96.882446,29.91515 96.740181,29.446167 96.644104,28.963173 96.548035,28.480181 96.5,27.992456 96.5,27.5 c 0,-0.492458 0.04803,-0.980185 0.144104,-1.463181 0.09608,-0.482994 0.238342,-0.951976 0.426796,-1.406948 0.188454,-0.454973 0.419479,-0.887189 0.693069,-1.29665 0.273598,-0.409463 0.584504,-0.788305 0.932724,-1.136524 0.348221,-0.348221 0.727059,-0.659128 1.136513,-0.932722 0.409474,-0.273594 0.841694,-0.504618 1.296654,-0.693073 0.45496,-0.188456 0.92395,-0.330719 1.40695,-0.426792 C 103.01981,20.048037 103.50754,20 104,20 c 0.49246,0 0.98018,0.04804 1.46317,0.14411 0.483,0.09607 0.95198,0.238336 1.40694,0.426792 0.45497,0.188455 0.88719,0.419479 1.29665,0.693073 0.40947,0.273594 0.78832,0.584501 1.13653,0.932722 0.34822,0.348219 0.65912,0.727061 0.93272,1.136524 0.2736,0.409461 0.50462,0.841677 0.69308,1.29665 0.18845,0.454972 0.33071,0.923954 0.42679,1.406948 0.0961,0.482996 0.14411,0.970723 0.14412,1.463181 z"
             style="fill:#ffffff;fill-opacity:1;fill-rule:nonzero;stroke:none"
             id="path64"
             inkscape:connector-curvature="0" /><path
             d="m 111.5,27.5 c -1e-5,0.492456 -0.0481,0.980181 -0.14413,1.463173 -0.0961,0.482994 -0.23833,0.951977 -0.42678,1.406948 -0.18846,0.454971 -0.41948,0.887188 -0.69308,1.296652 -0.2736,0.409464 -0.5845,0.788305 -0.93272,1.136526 -0.34821,0.348217 -0.72706,0.659122 -1.13653,0.932716 -0.40946,0.273594 -0.84168,0.50462 -1.29665,0.693074 -0.45496,0.188457 -0.92394,0.330722 -1.40694,0.426796 C 104.98018,34.951962 104.49246,35 104,35 c -0.49246,0 -0.98019,-0.04804 -1.46319,-0.144115 -0.483,-0.09607 -0.95199,-0.238339 -1.40695,-0.426796 -0.45496,-0.188454 -0.88718,-0.41948 -1.296654,-0.693074 -0.409454,-0.273594 -0.788292,-0.584499 -1.136513,-0.932716 -0.34822,-0.348221 -0.659126,-0.727062 -0.932724,-1.136528 C 97.490379,31.257309 97.259354,30.825092 97.0709,30.370121 96.882446,29.91515 96.740181,29.446167 96.644104,28.963173 96.548035,28.480181 96.5,27.992456 96.5,27.5 c 0,-0.492458 0.04803,-0.980185 0.144104,-1.463181 0.09608,-0.482994 0.238342,-0.951976 0.426796,-1.406948 0.188454,-0.454973 0.419479,-0.887189 0.693069,-1.29665 0.273598,-0.409463 0.584504,-0.788305 0.932724,-1.136524 0.348221,-0.348221 0.727059,-0.659128 1.136513,-0.932722 0.409474,-0.273594 0.841694,-0.504618 1.296654,-0.693073 0.45496,-0.188456 0.92395,-0.330719 1.40695,-0.426792 C 103.01981,20.048037 103.50754,20 104,20 c 0.49246,0 0.98018,0.04804 1.46317,0.14411 0.483,0.09607 0.95198,0.238336 1.40694,0.426792 0.45497,0.188455 0.88719,0.419479 1.29665,0.693073 0.40947,0.273594 0.78832,0.584501 1.13653,0.932722 0.34822,0.348219 0.65912,0.727061 0.93272,1.136524 0.2736,0.409461 0.50462,0.841677 0.69308,1.29665 0.18845,0.454972 0.33071,0.923954 0.42679,1.406948 0.0961,0.482996 0.14411,0.970723 0.14412,1.463181 z"
             style="fill:none;stroke:#000000;stroke-width:1;stroke-linecap:butt;stroke-linejoin:miter;stroke-miterlimit:10;stroke-dasharray:none;stroke-opacity:1"
             id="path66"
             inkscape:connector-curvature="0" /><path
             d="m 104,35 v 25 m 0,-20 H 89 m 15,0 h 15 M 104,60 89,80 m 15,-20 15,20"
             style="fill:none;stroke:#000000;stroke-width:1;stroke-linecap:butt;stroke-linejoin:miter;stroke-miterlimit:10;stroke-dasharray:none;stroke-opacity:1"
             id="path68"
             inkscape:connector-curvature="0" /></g><g
           id="g70"
           transform="scale(2.9991949)"><text
             transform="translate(85.828125,98)"
             style="font-variant:normal;font-weight:normal;font-size:12px;font-family:'Helvetica Neue';-inkscape-font-specification:Helvetica;writing-mode:lr-tb;fill:#000000;fill-opacity:1;fill-rule:nonzero;stroke:none"
             id="text74"><tspan
               x="0 9.9960938 16.669922 20.003906 26.677734 33.351562"
               y="0"
               sodipodi:role="line"
               id="tspan72">Mother</tspan></text>
</g><g
           id="g76"
           transform="matrix(2.9991949,0,0,2.9991949,1.4995974,1.4995974)"><path
             d="m 389,100 c 0,1.31005 -0.0963,2.61694 -0.28891,3.92069 -0.19263,1.30374 -0.48062,2.59805 -0.86401,3.88291 -0.38337,1.28488 -0.86026,2.55414 -1.43067,3.80778 -0.57043,1.25364 -1.23166,2.48561 -1.98367,3.69593 -0.75198,1.21034 -1.59113,2.39319 -2.51749,3.54855 -0.92633,1.15536 -1.93536,2.27767 -3.02713,3.36693 -1.09173,1.08927 -2.26089,2.14025 -3.5075,3.15293 -1.24662,1.01268 -2.5647,1.9822 -3.95423,2.90854 -1.38952,0.92634 -2.84378,1.80506 -4.36279,2.63615 -1.51904,0.83108 -3.09552,1.61053 -4.72943,2.33836 -1.63388,0.72783 -3.31735,1.40052 -5.05036,2.01807 -1.73306,0.61757 -3.50732,1.177 -5.32281,1.67833 -1.81549,0.50133 -3.66345,0.94214 -5.54389,1.32243 -1.88049,0.3803 -3.78439,0.69823 -5.7117,0.9538 -1.9273,0.25558 -3.86877,0.44759 -5.82437,0.57599 C 332.92542,139.93579 330.96506,140 329,140 c -1.96509,0 -3.92542,-0.0642 -5.88101,-0.19261 -1.95566,-0.1284 -3.89713,-0.32041 -5.82443,-0.57599 -1.92731,-0.25557 -3.83121,-0.5735 -5.71167,-0.9538 -1.88047,-0.38029 -3.72843,-0.8211 -5.54392,-1.32243 -1.81549,-0.50133 -3.58975,-1.06076 -5.32278,-1.67833 -1.73304,-0.61755 -3.41651,-1.29025 -5.05039,-2.01808 -1.63391,-0.72782 -3.21036,-1.50727 -4.72937,-2.33835 -1.51901,-0.83109 -2.9733,-1.70981 -4.36285,-2.63615 -1.3895,-0.92634 -2.70755,-1.89586 -3.9542,-2.90854 -1.24661,-1.01268 -2.4158,-2.06366 -3.50756,-3.15293 -1.09174,-1.08926 -2.10077,-2.21157 -3.02707,-3.36693 -0.92633,-1.15536 -1.76551,-2.33821 -2.51752,-3.54854 -0.75201,-1.21032 -1.41324,-2.4423 -1.98364,-3.69594 -0.57044,-1.25364 -1.04734,-2.5229 -1.4307,-3.80778 -0.38339,-1.28486 -0.67135,-2.57917 -0.86395,-3.88291 C 269.09634,102.61694 269.00003,101.31005 269,100 c 3e-5,-1.310051 0.0963,-2.616943 0.28894,-3.920685 0.1926,-1.303741 0.48056,-2.598053 0.86395,-3.882934 0.38336,-1.284874 0.86026,-2.554131 1.4307,-3.80777 0.5704,-1.253639 1.23163,-2.485626 1.98364,-3.695961 0.75201,-1.21032 1.59119,-2.393166 2.51752,-3.548531 0.9263,-1.155357 1.93533,-2.277672 3.02707,-3.366943 1.09176,-1.089264 2.26095,-2.140236 3.50756,-3.152916 1.24665,-1.012672 2.5647,-1.982185 3.9542,-2.908539 1.38955,-0.926338 2.84384,-1.805054 4.36285,-2.636146 1.51901,-0.831086 3.09546,-1.610543 4.72934,-2.338372 1.63391,-0.727821 3.31738,-1.400505 5.05042,-2.018066 1.73303,-0.617546 3.50729,-1.176991 5.32278,-1.678326 1.81549,-0.501331 3.66345,-0.942138 5.54392,-1.322426 1.88046,-0.380283 3.78436,-0.698219 5.71167,-0.9538 1.9273,-0.255573 3.86877,-0.447567 5.82443,-0.575973 C 325.07458,60.064205 327.03491,60.000004 329,60 c 1.96506,4e-6 3.92542,0.06421 5.88104,0.192612 1.9556,0.12841 3.89707,0.320404 5.82437,0.575977 1.92731,0.255581 3.83121,0.573513 5.71167,0.9538 1.88047,0.380284 3.72843,0.821091 5.54392,1.322422 1.81549,0.501335 3.58975,1.06078 5.32281,1.678334 1.73304,0.617553 3.41651,1.290245 5.05039,2.018066 1.63388,0.727829 3.21036,1.507286 4.7294,2.338364 1.51901,0.831092 2.97327,1.709808 4.36279,2.636146 1.38953,0.926354 2.70761,1.895867 3.95423,2.908547 1.24661,1.012672 2.41577,2.063644 3.5075,3.152908 1.09177,1.089271 2.1008,2.211586 3.02713,3.366951 0.92636,1.155357 1.76551,2.338203 2.51749,3.548523 0.75201,1.210335 1.41324,2.442322 1.98367,3.695961 0.57041,1.253639 1.0473,2.522896 1.43067,3.80777 0.38339,1.284881 0.67138,2.579193 0.86401,3.882934 C 388.90369,97.383057 389,98.689949 389,100 Z"
             style="fill:#d5e8d4;fill-opacity:1;fill-rule:nonzero;stroke:none"
             id="path78"
             inkscape:connector-curvature="0" /><path
             d="m 389,100 c 0,1.31005 -0.0963,2.61694 -0.28891,3.92069 -0.19263,1.30374 -0.48062,2.59805 -0.86401,3.88291 -0.38337,1.28488 -0.86026,2.55414 -1.43067,3.80778 -0.57043,1.25364 -1.23166,2.48561 -1.98367,3.69593 -0.75198,1.21034 -1.59113,2.39319 -2.51749,3.54855 -0.92633,1.15536 -1.93536,2.27767 -3.02713,3.36693 -1.09173,1.08927 -2.26089,2.14025 -3.5075,3.15293 -1.24662,1.01268 -2.5647,1.9822 -3.95423,2.90854 -1.38952,0.92634 -2.84378,1.80506 -4.36279,2.63615 -1.51904,0.83108 -3.09552,1.61053 -4.72943,2.33836 -1.63388,0.72783 -3.31735,1.40052 -5.05036,2.01807 -1.73306,0.61757 -3.50732,1.177 -5.32281,1.67833 -1.81549,0.50133 -3.66345,0.94214 -5.54389,1.32243 -1.88049,0.3803 -3.78439,0.69823 -5.7117,0.9538 -1.9273,0.25558 -3.86877,0.44759 -5.82437,0.57599 C 332.92542,139.93579 330.96506,140 329,140 c -1.96509,0 -3.92542,-0.0642 -5.88101,-0.19261 -1.95566,-0.1284 -3.89713,-0.32041 -5.82443,-0.57599 -1.92731,-0.25557 -3.83121,-0.5735 -5.71167,-0.9538 -1.88047,-0.38029 -3.72843,-0.8211 -5.54392,-1.32243 -1.81549,-0.50133 -3.58975,-1.06076 -5.32278,-1.67833 -1.73304,-0.61755 -3.41651,-1.29025 -5.05039,-2.01808 -1.63391,-0.72782 -3.21036,-1.50727 -4.72937,-2.33835 -1.51901,-0.83109 -2.9733,-1.70981 -4.36285,-2.63615 -1.3895,-0.92634 -2.70755,-1.89586 -3.9542,-2.90854 -1.24661,-1.01268 -2.4158,-2.06366 -3.50756,-3.15293 -1.09174,-1.08926 -2.10077,-2.21157 -3.02707,-3.36693 -0.92633,-1.15536 -1.76551,-2.33821 -2.51752,-3.54854 -0.75201,-1.21032 -1.41324,-2.4423 -1.98364,-3.69594 -0.57044,-1.25364 -1.04734,-2.5229 -1.4307,-3.80778 -0.38339,-1.28486 -0.67135,-2.57917 -0.86395,-3.88291 C 269.09634,102.61694 269.00003,101.31005 269,100 c 3e-5,-1.310051 0.0963,-2.616943 0.28894,-3.920685 0.1926,-1.303741 0.48056,-2.598053 0.86395,-3.882934 0.38336,-1.284874 0.86026,-2.554131 1.4307,-3.80777 0.5704,-1.253639 1.23163,-2.485626 1.98364,-3.695961 0.75201,-1.21032 1.59119,-2.393166 2.51752,-3.548531 0.9263,-1.155357 1.93533,-2.277672 3.02707,-3.366943 1.09176,-1.089264 2.26095,-2.140236 3.50756,-3.152916 1.24665,-1.012672 2.5647,-1.982185 3.9542,-2.908539 1.38955,-0.926338 2.84384,-1.805054 4.36285,-2.636146 1.51901,-0.831086 3.09546,-1.610543 4.72934,-2.338372 1.63391,-0.727821 3.31738,-1.400505 5.05042,-2.018066 1.73303,-0.617546 3.50729,-1.176991 5.32278,-1.678326 1.81549,-0.501331 3.66345,-0.942138 5.54392,-1.322426 1.88046,-0.380283 3.78436,-0.698219 5.71167,-0.9538 1.9273,-0.255573 3.86877,-0.447567 5.82443,-0.575973 C 325.07458,60.064205 327.03491,60.000004 329,60 c 1.96506,4e-6 3.92542,0.06421 5.88104,0.192612 1.9556,0.12841 3.89707,0.320404 5.82437,0.575977 1.92731,0.255581 3.83121,0.573513 5.71167,0.9538 1.88047,0.380284 3.72843,0.821091 5.54392,1.322422 1.81549,0.501335 3.58975,1.06078 5.32281,1.678334 1.73304,0.617553 3.41651,1.290245 5.05039,2.018066 1.63388,0.727829 3.21036,1.507286 4.7294,2.338364 1.51901,0.831092 2.97327,1.709808 4.36279,2.636146 1.38953,0.926354 2.70761,1.895867 3.95423,2.908547 1.24661,1.012672 2.41577,2.063644 3.5075,3.152908 1.09177,1.089271 2.1008,2.211586 3.02713,3.366951 0.92636,1.155357 1.76551,2.338203 2.51749,3.548523 0.75201,1.210335 1.41324,2.442322 1.98367,3.695961 0.57041,1.253639 1.0473,2.522896 1.43067,3.80777 0.38339,1.284881 0.67138,2.579193 0.86401,3.882934 C 388.90369,97.383057 389,98.689949 389,100 Z"
             style="fill:none;stroke:#82b366;stroke-width:1;stroke-linecap:butt;stroke-linejoin:miter;stroke-miterlimit:10;stroke-dasharray:none;stroke-opacity:1"
             id="path80"
             inkscape:connector-curvature="0" /></g><g
           id="g82"
           transform="scale(2.9991949)"><text
             transform="translate(296.3125,105)"
             style="font-variant:normal;font-weight:normal;font-size:12px;font-family:'Helvetica Neue';-inkscape-font-specification:Helvetica;writing-mode:lr-tb;fill:#000000;fill-opacity:1;fill-rule:nonzero;stroke:none"
             id="text86"><tspan
               x="0 6.6738281 13.347656 20.021484 23.355469 30.029297 32.695312 38.695312 42.029297 48.703125 52.699219 59.373047"
               y="0"
               sodipodi:role="line"
               id="tspan84">add pictures</tspan></text>
</g><g
           id="g88"
           transform="matrix(2.9991949,0,0,2.9991949,1.4995974,1.4995974)"><path
             d="m 389,210 c 0,1.31004 -0.0963,2.61694 -0.28891,3.92068 -0.19263,1.30373 -0.48062,2.59804 -0.86401,3.88291 -0.38337,1.2849 -0.86026,2.55415 -1.43067,3.80778 -0.57043,1.25364 -1.23166,2.48561 -1.98367,3.69593 -0.75198,1.21034 -1.59113,2.39319 -2.51749,3.54853 -0.92633,1.15537 -1.93536,2.27768 -3.02713,3.36695 -1.09173,1.08928 -2.26089,2.14026 -3.5075,3.15294 -1.24662,1.01268 -2.5647,1.98219 -3.95423,2.90852 -1.38952,0.92635 -2.84378,1.80507 -4.36279,2.63614 -1.51904,0.8311 -3.09552,1.61055 -4.72943,2.33836 -1.63388,0.72783 -3.31735,1.40053 -5.05036,2.01807 -1.73306,0.61757 -3.50732,1.17702 -5.32281,1.67834 -1.81549,0.50135 -3.66345,0.94216 -5.54389,1.32245 -1.88049,0.38028 -3.78439,0.69821 -5.7117,0.95378 -1.9273,0.25559 -3.86877,0.44759 -5.82437,0.57601 C 332.92542,249.93579 330.96506,250 329,250 c -1.96509,0 -3.92542,-0.0642 -5.88101,-0.19263 -1.95566,-0.1284 -3.89713,-0.3204 -5.82443,-0.57599 -1.92731,-0.25557 -3.83121,-0.5735 -5.71167,-0.95378 -1.88047,-0.38029 -3.72843,-0.82112 -5.54392,-1.32246 -1.81549,-0.50133 -3.58975,-1.06078 -5.32278,-1.67833 -1.73304,-0.61755 -3.41651,-1.29024 -5.05039,-2.01807 -1.63391,-0.72781 -3.21036,-1.50726 -4.72937,-2.33835 -1.51901,-0.83108 -2.9733,-1.7098 -4.36285,-2.63615 -1.3895,-0.92633 -2.70755,-1.89584 -3.9542,-2.90854 -1.24661,-1.01268 -2.4158,-2.06364 -3.50756,-3.15292 -1.09174,-1.08927 -2.10077,-2.21158 -3.02707,-3.36695 -0.92633,-1.15534 -1.76551,-2.33819 -2.51752,-3.54853 -0.75201,-1.21032 -1.41324,-2.44229 -1.98364,-3.69594 -0.57044,-1.25362 -1.04734,-2.52287 -1.4307,-3.80777 -0.38339,-1.28487 -0.67135,-2.57918 -0.86395,-3.88291 C 269.09634,212.61694 269.00003,211.31004 269,210 c 3e-5,-1.31004 0.0963,-2.61693 0.28894,-3.92067 0.1926,-1.30376 0.48056,-2.59807 0.86395,-3.88295 0.38336,-1.28487 0.86026,-2.55412 1.4307,-3.80777 0.5704,-1.25365 1.23163,-2.48563 1.98364,-3.69595 0.75201,-1.21033 1.59119,-2.39316 2.51752,-3.54851 0.9263,-1.15538 1.93533,-2.27769 3.02707,-3.36696 1.09176,-1.08925 2.26095,-2.14023 3.50756,-3.15292 1.24665,-1.01268 2.5647,-1.9822 3.9542,-2.90854 1.38955,-0.92635 2.84384,-1.80505 4.36285,-2.63616 1.51901,-0.83108 3.09546,-1.61055 4.72934,-2.33837 1.63391,-0.72782 3.31738,-1.4005 5.05042,-2.01806 1.73303,-0.61755 3.50729,-1.177 5.32278,-1.67834 1.81549,-0.50133 3.66345,-0.94212 5.54392,-1.32242 1.88046,-0.38029 3.78436,-0.69823 5.71167,-0.95379 1.9273,-0.25557 3.86877,-0.44756 5.82443,-0.57596 C 325.07458,170.06421 327.03491,170 329,170 c 1.96506,0 3.92542,0.0642 5.88104,0.19263 1.9556,0.1284 3.89707,0.32039 5.82437,0.57596 1.92731,0.25556 3.83121,0.5735 5.71167,0.95379 1.88047,0.3803 3.72843,0.82109 5.54392,1.32242 1.81549,0.50134 3.58975,1.06079 5.32281,1.67834 1.73304,0.61756 3.41651,1.29024 5.05039,2.01806 1.63388,0.72782 3.21036,1.50729 4.7294,2.33837 1.51901,0.83111 2.97327,1.70981 4.36279,2.63616 1.38953,0.92634 2.70761,1.89586 3.95423,2.90854 1.24661,1.01269 2.41577,2.06367 3.5075,3.15292 1.09177,1.08927 2.1008,2.21158 3.02713,3.36696 0.92636,1.15535 1.76551,2.33818 2.51749,3.54851 0.75201,1.21032 1.41324,2.4423 1.98367,3.69595 0.57041,1.25365 1.0473,2.5229 1.43067,3.80777 0.38339,1.28488 0.67138,2.57919 0.86401,3.88294 C 388.90369,207.38307 389,208.68996 389,210 Z"
             style="fill:#d5e8d4;fill-opacity:1;fill-rule:nonzero;stroke:none"
             id="path90"
             inkscape:connector-curvature="0" /><path
             d="m 389,210 c 0,1.31004 -0.0963,2.61694 -0.28891,3.92068 -0.19263,1.30373 -0.48062,2.59804 -0.86401,3.88291 -0.38337,1.2849 -0.86026,2.55415 -1.43067,3.80778 -0.57043,1.25364 -1.23166,2.48561 -1.98367,3.69593 -0.75198,1.21034 -1.59113,2.39319 -2.51749,3.54853 -0.92633,1.15537 -1.93536,2.27768 -3.02713,3.36695 -1.09173,1.08928 -2.26089,2.14026 -3.5075,3.15294 -1.24662,1.01268 -2.5647,1.98219 -3.95423,2.90852 -1.38952,0.92635 -2.84378,1.80507 -4.36279,2.63614 -1.51904,0.8311 -3.09552,1.61055 -4.72943,2.33836 -1.63388,0.72783 -3.31735,1.40053 -5.05036,2.01807 -1.73306,0.61757 -3.50732,1.17702 -5.32281,1.67834 -1.81549,0.50135 -3.66345,0.94216 -5.54389,1.32245 -1.88049,0.38028 -3.78439,0.69821 -5.7117,0.95378 -1.9273,0.25559 -3.86877,0.44759 -5.82437,0.57601 C 332.92542,249.93579 330.96506,250 329,250 c -1.96509,0 -3.92542,-0.0642 -5.88101,-0.19263 -1.95566,-0.1284 -3.89713,-0.3204 -5.82443,-0.57599 -1.92731,-0.25557 -3.83121,-0.5735 -5.71167,-0.95378 -1.88047,-0.38029 -3.72843,-0.82112 -5.54392,-1.32246 -1.81549,-0.50133 -3.58975,-1.06078 -5.32278,-1.67833 -1.73304,-0.61755 -3.41651,-1.29024 -5.05039,-2.01807 -1.63391,-0.72781 -3.21036,-1.50726 -4.72937,-2.33835 -1.51901,-0.83108 -2.9733,-1.7098 -4.36285,-2.63615 -1.3895,-0.92633 -2.70755,-1.89584 -3.9542,-2.90854 -1.24661,-1.01268 -2.4158,-2.06364 -3.50756,-3.15292 -1.09174,-1.08927 -2.10077,-2.21158 -3.02707,-3.36695 -0.92633,-1.15534 -1.76551,-2.33819 -2.51752,-3.54853 -0.75201,-1.21032 -1.41324,-2.44229 -1.98364,-3.69594 -0.57044,-1.25362 -1.04734,-2.52287 -1.4307,-3.80777 -0.38339,-1.28487 -0.67135,-2.57918 -0.86395,-3.88291 C 269.09634,212.61694 269.00003,211.31004 269,210 c 3e-5,-1.31004 0.0963,-2.61693 0.28894,-3.92067 0.1926,-1.30376 0.48056,-2.59807 0.86395,-3.88295 0.38336,-1.28487 0.86026,-2.55412 1.4307,-3.80777 0.5704,-1.25365 1.23163,-2.48563 1.98364,-3.69595 0.75201,-1.21033 1.59119,-2.39316 2.51752,-3.54851 0.9263,-1.15538 1.93533,-2.27769 3.02707,-3.36696 1.09176,-1.08925 2.26095,-2.14023 3.50756,-3.15292 1.24665,-1.01268 2.5647,-1.9822 3.9542,-2.90854 1.38955,-0.92635 2.84384,-1.80505 4.36285,-2.63616 1.51901,-0.83108 3.09546,-1.61055 4.72934,-2.33837 1.63391,-0.72782 3.31738,-1.4005 5.05042,-2.01806 1.73303,-0.61755 3.50729,-1.177 5.32278,-1.67834 1.81549,-0.50133 3.66345,-0.94212 5.54392,-1.32242 1.88046,-0.38029 3.78436,-0.69823 5.71167,-0.95379 1.9273,-0.25557 3.86877,-0.44756 5.82443,-0.57596 C 325.07458,170.06421 327.03491,170 329,170 c 1.96506,0 3.92542,0.0642 5.88104,0.19263 1.9556,0.1284 3.89707,0.32039 5.82437,0.57596 1.92731,0.25556 3.83121,0.5735 5.71167,0.95379 1.88047,0.3803 3.72843,0.82109 5.54392,1.32242 1.81549,0.50134 3.58975,1.06079 5.32281,1.67834 1.73304,0.61756 3.41651,1.29024 5.05039,2.01806 1.63388,0.72782 3.21036,1.50729 4.7294,2.33837 1.51901,0.83111 2.97327,1.70981 4.36279,2.63616 1.38953,0.92634 2.70761,1.89586 3.95423,2.90854 1.24661,1.01269 2.41577,2.06367 3.5075,3.15292 1.09177,1.08927 2.1008,2.21158 3.02713,3.36696 0.92636,1.15535 1.76551,2.33818 2.51749,3.54851 0.75201,1.21032 1.41324,2.4423 1.98367,3.69595 0.57041,1.25365 1.0473,2.5229 1.43067,3.80777 0.38339,1.28488 0.67138,2.57919 0.86401,3.88294 C 388.90369,207.38307 389,208.68996 389,210 Z"
             style="fill:none;stroke:#82b366;stroke-width:1;stroke-linecap:butt;stroke-linejoin:miter;stroke-miterlimit:10;stroke-dasharray:none;stroke-opacity:1"
             id="path92"
             inkscape:connector-curvature="0" /></g><g
           id="g94"
           transform="scale(2.9991949)"><text
             transform="translate(294.3125,215)"
             style="font-variant:normal;font-weight:normal;font-size:12px;font-family:'Helvetica Neue';-inkscape-font-specification:Helvetica;writing-mode:lr-tb;fill:#000000;fill-opacity:1;fill-rule:nonzero;stroke:none"
             id="text98"><tspan
               x="0 3.9960938 10.669922 17.34375 24.017578 27.351562 34.025391 36.691406 42.691406 46.025391 52.699219 56.695312 63.369141"
               y="0"
               sodipodi:role="line"
               id="tspan96">read pictures</tspan></text>
</g><g
           id="g100"
           transform="matrix(2.9991949,0,0,2.9991949,1.4995974,1.4995974)"><path
             d="M 20,50 H 99 V 70 H 20 Z"
             style="fill:#e1d5e7;fill-opacity:1;fill-rule:nonzero;stroke:none"
             id="path102"
             inkscape:connector-curvature="0" /><path
             d="M 20,50 H 99 V 70 H 20 Z"
             style="fill:none;stroke:#9673a6;stroke-width:1;stroke-linecap:butt;stroke-linejoin:miter;stroke-miterlimit:10;stroke-dasharray:none;stroke-opacity:1"
             id="path104"
             inkscape:connector-curvature="0" /></g><g
           id="g106"
           transform="scale(2.9991949)"><text
             transform="translate(40.8125,65)"
             style="font-variant:normal;font-weight:normal;font-size:12px;font-family:'Helvetica Neue';-inkscape-font-specification:Helvetica;writing-mode:lr-tb;fill:#000000;fill-opacity:1;fill-rule:nonzero;stroke:none"
             id="text110"><tspan
               x="0 9.9960938 16.669922 20.003906 26.677734 33.351562"
               y="0"
               sodipodi:role="line"
               id="tspan108">Mother</tspan></text>
</g><g
           id="g112"
           transform="matrix(2.9991949,0,0,2.9991949,1.4995974,1.4995974)"><path
             d="m 20,160 h 79 v 20 H 20 Z"
             style="fill:#e1d5e7;fill-opacity:1;fill-rule:nonzero;stroke:none"
             id="path114"
             inkscape:connector-curvature="0" /><path
             d="m 20,160 h 79 v 20 H 20 Z"
             style="fill:none;stroke:#9673a6;stroke-width:1;stroke-linecap:butt;stroke-linejoin:miter;stroke-miterlimit:10;stroke-dasharray:none;stroke-opacity:1"
             id="path116"
             inkscape:connector-curvature="0" /></g><g
           id="g118"
           transform="scale(2.9991949)"><text
             transform="translate(48.484375,175)"
             style="font-variant:normal;font-weight:normal;font-size:12px;font-family:'Helvetica Neue';-inkscape-font-specification:Helvetica;writing-mode:lr-tb;fill:#000000;fill-opacity:1;fill-rule:nonzero;stroke:none"
             id="text122"><tspan
               x="0 8.6660156 15.339844"
               y="0"
               sodipodi:role="line"
               id="tspan120">Dad</tspan></text>
</g><g
           id="g124"
           transform="matrix(2.9991949,0,0,2.9991949,1.4995974,1.4995974)"><path
             d="m 111.5,247.5 c -1e-5,0.49245 -0.0481,0.98018 -0.14413,1.46317 -0.0961,0.48298 -0.23833,0.95196 -0.42678,1.40693 -0.18846,0.45496 -0.41948,0.88718 -0.69308,1.29665 -0.2736,0.40947 -0.5845,0.78831 -0.93272,1.13653 -0.34821,0.34822 -0.72706,0.65912 -1.13653,0.93273 -0.40946,0.27357 -0.84168,0.50459 -1.29665,0.69305 -0.45496,0.18846 -0.92394,0.33072 -1.40694,0.42681 -0.48299,0.0961 -0.97071,0.14411 -1.46317,0.14413 -0.49246,-2e-5 -0.98019,-0.048 -1.46319,-0.14413 -0.483,-0.0961 -0.95199,-0.23835 -1.40695,-0.42679 -0.45496,-0.18846 -0.88718,-0.4195 -1.296654,-0.69309 -0.409454,-0.27359 -0.788292,-0.58449 -1.136513,-0.93271 -0.34822,-0.34822 -0.659126,-0.72706 -0.932724,-1.13653 -0.27359,-0.40947 -0.504615,-0.84169 -0.693069,-1.29665 -0.188454,-0.45497 -0.330719,-0.92395 -0.426796,-1.40693 C 96.548035,248.48018 96.5,247.99245 96.5,247.5 c 0,-0.49248 0.04803,-0.98021 0.144104,-1.46321 0.09608,-0.48299 0.238342,-0.95198 0.426796,-1.40695 0.188454,-0.45497 0.419479,-0.88718 0.693069,-1.29663 0.273598,-0.40947 0.584504,-0.7883 0.932724,-1.13652 0.348221,-0.34823 0.727059,-0.65914 1.136513,-0.93274 0.409474,-0.27359 0.841694,-0.50461 1.296654,-0.69307 0.45496,-0.18845 0.92395,-0.33071 1.40695,-0.42678 C 103.01981,240.048 103.50754,240 104,240 c 0.49246,0 0.98018,0.048 1.46317,0.1441 0.483,0.0961 0.95198,0.23833 1.40694,0.42676 0.45497,0.18846 0.88719,0.41948 1.29665,0.69309 0.40947,0.2736 0.78832,0.58451 1.13653,0.93274 0.34822,0.34822 0.65912,0.72705 0.93272,1.13652 0.2736,0.40947 0.50462,0.84167 0.69308,1.29664 0.18845,0.45497 0.33071,0.92395 0.42679,1.40694 0.0961,0.483 0.14411,0.97073 0.14412,1.46321 z"
             style="fill:#ffffff;fill-opacity:1;fill-rule:nonzero;stroke:none"
             id="path126"
             inkscape:connector-curvature="0" /><path
             d="m 111.5,247.5 c -1e-5,0.49245 -0.0481,0.98018 -0.14413,1.46317 -0.0961,0.48298 -0.23833,0.95196 -0.42678,1.40693 -0.18846,0.45496 -0.41948,0.88718 -0.69308,1.29665 -0.2736,0.40947 -0.5845,0.78831 -0.93272,1.13653 -0.34821,0.34822 -0.72706,0.65912 -1.13653,0.93273 -0.40946,0.27357 -0.84168,0.50459 -1.29665,0.69305 -0.45496,0.18846 -0.92394,0.33072 -1.40694,0.42681 -0.48299,0.0961 -0.97071,0.14411 -1.46317,0.14413 -0.49246,-2e-5 -0.98019,-0.048 -1.46319,-0.14413 -0.483,-0.0961 -0.95199,-0.23835 -1.40695,-0.42679 -0.45496,-0.18846 -0.88718,-0.4195 -1.296654,-0.69309 -0.409454,-0.27359 -0.788292,-0.58449 -1.136513,-0.93271 -0.34822,-0.34822 -0.659126,-0.72706 -0.932724,-1.13653 -0.27359,-0.40947 -0.504615,-0.84169 -0.693069,-1.29665 -0.188454,-0.45497 -0.330719,-0.92395 -0.426796,-1.40693 C 96.548035,248.48018 96.5,247.99245 96.5,247.5 c 0,-0.49248 0.04803,-0.98021 0.144104,-1.46321 0.09608,-0.48299 0.238342,-0.95198 0.426796,-1.40695 0.188454,-0.45497 0.419479,-0.88718 0.693069,-1.29663 0.273598,-0.40947 0.584504,-0.7883 0.932724,-1.13652 0.348221,-0.34823 0.727059,-0.65914 1.136513,-0.93274 0.409474,-0.27359 0.841694,-0.50461 1.296654,-0.69307 0.45496,-0.18845 0.92395,-0.33071 1.40695,-0.42678 C 103.01981,240.048 103.50754,240 104,240 c 0.49246,0 0.98018,0.048 1.46317,0.1441 0.483,0.0961 0.95198,0.23833 1.40694,0.42676 0.45497,0.18846 0.88719,0.41948 1.29665,0.69309 0.40947,0.2736 0.78832,0.58451 1.13653,0.93274 0.34822,0.34822 0.65912,0.72705 0.93272,1.13652 0.2736,0.40947 0.50462,0.84167 0.69308,1.29664 0.18845,0.45497 0.33071,0.92395 0.42679,1.40694 0.0961,0.483 0.14411,0.97073 0.14412,1.46321 z"
             style="fill:none;stroke:#000000;stroke-width:1;stroke-linecap:butt;stroke-linejoin:miter;stroke-miterlimit:10;stroke-dasharray:none;stroke-opacity:1"
             id="path128"
             inkscape:connector-curvature="0" /><path
             d="m 104,255 v 25 m 0,-20 H 89 m 15,0 h 15 m -15,20 -15,20 m 15,-20 15,20"
             style="fill:none;stroke:#000000;stroke-width:1;stroke-linecap:butt;stroke-linejoin:miter;stroke-miterlimit:10;stroke-dasharray:none;stroke-opacity:1"
             id="path130"
             inkscape:connector-curvature="0" /></g><g
           id="g132"
           transform="scale(2.9991949)"><text
             transform="translate(92.15625,318)"
             style="font-variant:normal;font-weight:normal;font-size:12px;font-family:'Helvetica Neue';-inkscape-font-specification:Helvetica;writing-mode:lr-tb;fill:#000000;fill-opacity:1;fill-rule:nonzero;stroke:none"
             id="text136"><tspan
               x="0 8.0039062 14.677734 21.351562"
               y="0"
               sodipodi:role="line"
               id="tspan134">Aunt</tspan></text>
</g><g
           id="g138"
           transform="matrix(2.9991949,0,0,2.9991949,1.4995974,1.4995974)"><path
             d="m 20,270 h 79 v 20 H 20 Z"
             style="fill:#e1d5e7;fill-opacity:1;fill-rule:nonzero;stroke:none"
             id="path140"
             inkscape:connector-curvature="0" /><path
             d="m 20,270 h 79 v 20 H 20 Z"
             style="fill:none;stroke:#9673a6;stroke-width:1;stroke-linecap:butt;stroke-linejoin:miter;stroke-miterlimit:10;stroke-dasharray:none;stroke-opacity:1"
             id="path142"
             inkscape:connector-curvature="0" /></g><g
           id="g144"
           transform="scale(2.9991949)"><text
             transform="translate(47.15625,285)"
             style="font-variant:normal;font-weight:normal;font-size:12px;font-family:'Helvetica Neue';-inkscape-font-specification:Helvetica;writing-mode:lr-tb;fill:#000000;fill-opacity:1;fill-rule:nonzero;stroke:none"
             id="text148"><tspan
               x="0 8.0039062 14.677734 21.351562"
               y="0"
               sodipodi:role="line"
               id="tspan146">Aunt</tspan></text>
</g><g
           id="g150"
           transform="matrix(2.9991949,0,0,2.9991949,1.4995974,1.4995974)"><path
             d="M 286.57001,181.72 124.44,83.300003"
             style="fill:none;stroke:#000000;stroke-width:1;stroke-linecap:butt;stroke-linejoin:miter;stroke-miterlimit:10;stroke-dasharray:none;stroke-opacity:1"
             id="path152"
             inkscape:connector-curvature="0" /><path
             d="m 119.96,80.580002 7.8,0.639999 -3.32,2.080002 -0.32,3.899994 z"
             style="fill:#000000;fill-opacity:1;fill-rule:nonzero;stroke:none"
             id="path154"
             inkscape:connector-curvature="0" /><path
             d="m 119.96,80.580002 7.8,0.639999 -3.32,2.080002 -0.32,3.899994 z"
             style="fill:none;stroke:#000000;stroke-width:1;stroke-linecap:butt;stroke-linejoin:miter;stroke-miterlimit:10;stroke-dasharray:none;stroke-opacity:1"
             id="path156"
             inkscape:connector-curvature="0" /></g><g
           id="g158"
           transform="scale(2.9991949)"><path
             d="m 146,99 h 33 v 13 h -33 z"
             style="fill:#ffffff;fill-opacity:1;fill-rule:nonzero;stroke:none"
             id="path160"
             inkscape:connector-curvature="0" /><text
             transform="translate(145.98437,109)"
             style="font-variant:normal;font-weight:normal;font-size:11px;font-family:'Helvetica Neue';-inkscape-font-specification:Helvetica;writing-mode:lr-tb;fill:#000000;fill-opacity:1;fill-rule:nonzero;stroke:none"
             id="text164"><tspan
               x="0 6.1176758 8.5615234 14.061523 17.117676 23.235352 26.898438"
               y="0"
               sodipodi:role="line"
               id="tspan162">picture</tspan></text>
</g><g
           id="g166"
           transform="matrix(2.9991949,0,0,2.9991949,1.4995974,1.4995974)"><path
             d="M 269,210 125.31,190.84"
             style="fill:none;stroke:#000000;stroke-width:1;stroke-linecap:butt;stroke-linejoin:miter;stroke-miterlimit:10;stroke-dasharray:none;stroke-opacity:1"
             id="path168"
             inkscape:connector-curvature="0" /><path
             d="m 120.11,190.14999 7.4,-2.54998 -2.2,3.23999 1.27,3.69999 z"
             style="fill:#000000;fill-opacity:1;fill-rule:nonzero;stroke:none"
             id="path170"
             inkscape:connector-curvature="0" /><path
             d="m 120.11,190.14999 7.4,-2.54998 -2.2,3.23999 1.27,3.69999 z"
             style="fill:none;stroke:#000000;stroke-width:1;stroke-linecap:butt;stroke-linejoin:miter;stroke-miterlimit:10;stroke-dasharray:none;stroke-opacity:1"
             id="path172"
             inkscape:connector-curvature="0" /></g><g
           id="g174"
           transform="scale(2.9991949)"><path
             d="m 193,197 h 33 v 13 h -33 z"
             style="fill:#ffffff;fill-opacity:1;fill-rule:nonzero;stroke:none"
             id="path176"
             inkscape:connector-curvature="0" /><text
             transform="translate(192.98438,207)"
             style="font-variant:normal;font-weight:normal;font-size:11px;font-family:'Helvetica Neue';-inkscape-font-specification:Helvetica;writing-mode:lr-tb;fill:#000000;fill-opacity:1;fill-rule:nonzero;stroke:none"
             id="text180"><tspan
               x="0 6.1176758 8.5615234 14.061523 17.117676 23.235352 26.898438"
               y="0"
               sodipodi:role="line"
               id="tspan178">picture</tspan></text>
</g><g
           id="g182"
           transform="matrix(2.9991949,0,0,2.9991949,1.4995974,1.4995974)"><path
             d="M 569,145 394.98999,207.84"
             style="fill:none;stroke:#000000;stroke-width:1;stroke-linecap:butt;stroke-linejoin:miter;stroke-miterlimit:10;stroke-dasharray:none;stroke-opacity:1"
             id="path184"
             inkscape:connector-curvature="0" /><path
             d="m 390.04999,209.62 5.40002,-5.67 -0.46002,3.89 2.83002,2.69 z"
             style="fill:#000000;fill-opacity:1;fill-rule:nonzero;stroke:none"
             id="path186"
             inkscape:connector-curvature="0" /><path
             d="m 390.04999,209.62 5.40002,-5.67 -0.46002,3.89 2.83002,2.69 z"
             style="fill:none;stroke:#000000;stroke-width:1;stroke-linecap:butt;stroke-linejoin:miter;stroke-miterlimit:10;stroke-dasharray:none;stroke-opacity:1"
             id="path188"
             inkscape:connector-curvature="0" /></g><g
           id="g190"
           transform="scale(2.9991949)"><path
             d="m 464,175 h 33 v 13 h -33 z"
             style="fill:#ffffff;fill-opacity:1;fill-rule:nonzero;stroke:none"
             id="path192"
             inkscape:connector-curvature="0" /><text
             transform="translate(463.98438,185)"
             style="font-variant:normal;font-weight:normal;font-size:11px;font-family:'Helvetica Neue';-inkscape-font-specification:Helvetica;writing-mode:lr-tb;fill:#000000;fill-opacity:1;fill-rule:nonzero;stroke:none"
             id="text196"><tspan
               x="0 6.1176758 8.5615234 14.061523 17.117676 23.235352 26.898438"
               y="0"
               sodipodi:role="line"
               id="tspan194">picture</tspan></text>
</g><g
           id="g198"
           transform="matrix(2.9991949,0,0,2.9991949,1.4995974,1.4995974)"><path
             d="m 389,100 173.65002,14.47"
             style="fill:none;stroke:#000000;stroke-width:1;stroke-linecap:butt;stroke-linejoin:miter;stroke-miterlimit:10;stroke-dasharray:none;stroke-opacity:1"
             id="path200"
             inkscape:connector-curvature="0" /><path
             d="m 567.89001,114.91 -7.27001,2.9 2.03002,-3.34 -1.45001,-3.63 z"
             style="fill:#000000;fill-opacity:1;fill-rule:nonzero;stroke:none"
             id="path202"
             inkscape:connector-curvature="0" /><path
             d="m 567.89001,114.91 -7.27001,2.9 2.03002,-3.34 -1.45001,-3.63 z"
             style="fill:none;stroke:#000000;stroke-width:1;stroke-linecap:butt;stroke-linejoin:miter;stroke-miterlimit:10;stroke-dasharray:none;stroke-opacity:1"
             id="path204"
             inkscape:connector-curvature="0" /></g><g
           id="g206"
           transform="scale(2.9991949)"><path
             d="m 451,101 h 33 v 13 h -33 z"
             style="fill:#ffffff;fill-opacity:1;fill-rule:nonzero;stroke:none"
             id="path208"
             inkscape:connector-curvature="0" /><text
             transform="translate(450.98438,111)"
             style="font-variant:normal;font-weight:normal;font-size:11px;font-family:'Helvetica Neue';-inkscape-font-specification:Helvetica;writing-mode:lr-tb;fill:#000000;fill-opacity:1;fill-rule:nonzero;stroke:none"
             id="text212"><tspan
               x="0 6.1176758 8.5615234 14.061523 17.117676 23.235352 26.898438"
               y="0"
               sodipodi:role="line"
               id="tspan210">picture</tspan></text>
</g><g
           id="g214"
           transform="matrix(2.9991949,0,0,2.9991949,1.4995974,1.4995974)"><path
             d="M 286.57001,238.28 124.98,297.79999"
             style="fill:none;stroke:#000000;stroke-width:1;stroke-linecap:butt;stroke-linejoin:miter;stroke-miterlimit:10;stroke-dasharray:none;stroke-opacity:1"
             id="path216"
             inkscape:connector-curvature="0" /><path
             d="m 120.05,299.60999 5.36,-5.69999 -0.43,3.88999 2.85,2.68002 z"
             style="fill:#000000;fill-opacity:1;fill-rule:nonzero;stroke:none"
             id="path218"
             inkscape:connector-curvature="0" /><path
             d="m 120.05,299.60999 5.36,-5.69999 -0.43,3.88999 2.85,2.68002 z"
             style="fill:none;stroke:#000000;stroke-width:1;stroke-linecap:butt;stroke-linejoin:miter;stroke-miterlimit:10;stroke-dasharray:none;stroke-opacity:1"
             id="path220"
             inkscape:connector-curvature="0" /></g><g
           id="g222"
           transform="scale(2.9991949)"><path
             d="m 200,258 h 33 v 13 h -33 z"
             style="fill:#ffffff;fill-opacity:1;fill-rule:nonzero;stroke:none"
             id="path224"
             inkscape:connector-curvature="0" /><text
             transform="translate(199.98438,268)"
             style="font-variant:normal;font-weight:normal;font-size:11px;font-family:'Helvetica Neue';-inkscape-font-specification:Helvetica;writing-mode:lr-tb;fill:#000000;fill-opacity:1;fill-rule:nonzero;stroke:none"
             id="text228"><tspan
               x="0 6.1176758 8.5615234 14.061523 17.117676 23.235352 26.898438"
               y="0"
               sodipodi:role="line"
               id="tspan226">picture</tspan></text>
</g><g
           id="g230"
           transform="matrix(2.9991949,0,0,2.9991949,1.4995974,1.4995974)"><path
             d="M 119,40 280.32001,70.529999"
             style="fill:none;stroke:#000000;stroke-width:1;stroke-linecap:butt;stroke-linejoin:miter;stroke-miterlimit:10;stroke-dasharray:none;stroke-opacity:1"
             id="path232"
             inkscape:connector-curvature="0" /><path
             d="m 285.48001,71.510002 -7.53,2.14 2.37,-3.120003 -1.07001,-3.760002 z"
             style="fill:#000000;fill-opacity:1;fill-rule:nonzero;stroke:none"
             id="path234"
             inkscape:connector-curvature="0" /><path
             d="m 285.48001,71.510002 -7.53,2.14 2.37,-3.120003 -1.07001,-3.760002 z"
             style="fill:none;stroke:#000000;stroke-width:1;stroke-linecap:butt;stroke-linejoin:miter;stroke-miterlimit:10;stroke-dasharray:none;stroke-opacity:1"
             id="path236"
             inkscape:connector-curvature="0" /></g><g
           id="g238"
           transform="scale(2.9991949)"><path
             d="m 157,47 h 33 v 13 h -33 z"
             style="fill:#ffffff;fill-opacity:1;fill-rule:nonzero;stroke:none"
             id="path240"
             inkscape:connector-curvature="0" /><text
             transform="translate(156.98437,57)"
             style="font-variant:normal;font-weight:normal;font-size:11px;font-family:'Helvetica Neue';-inkscape-font-specification:Helvetica;writing-mode:lr-tb;fill:#000000;fill-opacity:1;fill-rule:nonzero;stroke:none"
             id="text244"><tspan
               x="0 6.1176758 8.5615234 14.061523 17.117676 23.235352 26.898438"
               y="0"
               sodipodi:role="line"
               id="tspan242">picture</tspan></text>
</g><g
           id="g246"
           transform="matrix(2.9991949,0,0,2.9991949,1.4995974,1.4995974)"><path
             d="M 119,150 262.95999,102.01"
             style="fill:none;stroke:#000000;stroke-width:1;stroke-linecap:butt;stroke-linejoin:miter;stroke-miterlimit:10;stroke-dasharray:none;stroke-opacity:1"
             id="path248"
             inkscape:connector-curvature="0" /><path
             d="m 267.94,100.35 -5.53,5.54 0.54999,-3.88 -2.76999,-2.76 z"
             style="fill:#000000;fill-opacity:1;fill-rule:nonzero;stroke:none"
             id="path250"
             inkscape:connector-curvature="0" /><path
             d="m 267.94,100.35 -5.53,5.54 0.54999,-3.88 -2.76999,-2.76 z"
             style="fill:none;stroke:#000000;stroke-width:1;stroke-linecap:butt;stroke-linejoin:miter;stroke-miterlimit:10;stroke-dasharray:none;stroke-opacity:1"
             id="path252"
             inkscape:connector-curvature="0" /></g><g
           id="g254"
           transform="scale(2.9991949)"><path
             d="m 162,124 h 33 v 13 h -33 z"
             style="fill:#ffffff;fill-opacity:1;fill-rule:nonzero;stroke:none"
             id="path256"
             inkscape:connector-curvature="0" /><text
             transform="translate(161.98437,134)"
             style="font-variant:normal;font-weight:normal;font-size:11px;font-family:'Helvetica Neue';-inkscape-font-specification:Helvetica;writing-mode:lr-tb;fill:#000000;fill-opacity:1;fill-rule:nonzero;stroke:none"
             id="text260"><tspan
               x="0 6.1176758 8.5615234 14.061523 17.117676 23.235352 26.898438"
               y="0"
               sodipodi:role="line"
               id="tspan258">picture</tspan></text>
</g><g
           id="g262"
           transform="matrix(2.9991949,0,0,2.9991949,1.4995974,1.4995974)"><path
             d="m 111.5,357.5 c -1e-5,0.49243 -0.0481,0.98013 -0.14413,1.46313 -0.0961,0.48301 -0.23833,0.95197 -0.42678,1.40696 -0.18846,0.45495 -0.41948,0.88717 -0.69308,1.29666 -0.2736,0.40945 -0.5845,0.7883 -0.93272,1.13653 -0.34821,0.34824 -0.72706,0.65912 -1.13653,0.93271 -0.40946,0.27359 -0.84168,0.50461 -1.29665,0.69309 -0.45496,0.18844 -0.92394,0.33072 -1.40694,0.42679 C 104.98018,364.95197 104.49246,365 104,365 c -0.49246,0 -0.98019,-0.048 -1.46319,-0.14413 -0.483,-0.0961 -0.95199,-0.23835 -1.40695,-0.42679 -0.45496,-0.18848 -0.88718,-0.4195 -1.296654,-0.69309 -0.409454,-0.27359 -0.788292,-0.58447 -1.136513,-0.93271 -0.34822,-0.34823 -0.659126,-0.72708 -0.932724,-1.13653 -0.27359,-0.40949 -0.504615,-0.84171 -0.693069,-1.29666 -0.188454,-0.45499 -0.330719,-0.92395 -0.426796,-1.40696 C 96.548035,358.48013 96.5,357.99243 96.5,357.5 c 0,-0.49249 0.04803,-0.98022 0.144104,-1.46323 0.09608,-0.483 0.238342,-0.95196 0.426796,-1.40695 0.188454,-0.45498 0.419479,-0.88721 0.693069,-1.29666 0.273598,-0.40945 0.584504,-0.78827 0.932724,-1.13647 0.348221,-0.34821 0.727059,-0.65912 1.136513,-0.93274 0.409474,-0.27359 0.841694,-0.50464 1.296654,-0.69309 0.45496,-0.18844 0.92395,-0.33072 1.40695,-0.42676 0.483,-0.096 0.97073,-0.14407 1.46319,-0.1441 0.49246,3e-5 0.98018,0.0481 1.46317,0.1441 0.483,0.096 0.95198,0.23832 1.40694,0.42676 0.45497,0.18845 0.88719,0.4195 1.29665,0.69312 0.40947,0.27359 0.78832,0.5845 1.13653,0.93271 0.34822,0.3482 0.65912,0.72705 0.93272,1.1365 0.2736,0.40946 0.50462,0.84165 0.69308,1.29663 0.18845,0.45499 0.33071,0.92395 0.42679,1.40695 0.0961,0.48301 0.14411,0.97074 0.14412,1.46323 z"
             style="fill:#ffffff;fill-opacity:1;fill-rule:nonzero;stroke:none"
             id="path264"
             inkscape:connector-curvature="0" /><path
             d="m 111.5,357.5 c -1e-5,0.49243 -0.0481,0.98013 -0.14413,1.46313 -0.0961,0.48301 -0.23833,0.95197 -0.42678,1.40696 -0.18846,0.45495 -0.41948,0.88717 -0.69308,1.29666 -0.2736,0.40945 -0.5845,0.7883 -0.93272,1.13653 -0.34821,0.34824 -0.72706,0.65912 -1.13653,0.93271 -0.40946,0.27359 -0.84168,0.50461 -1.29665,0.69309 -0.45496,0.18844 -0.92394,0.33072 -1.40694,0.42679 C 104.98018,364.95197 104.49246,365 104,365 c -0.49246,0 -0.98019,-0.048 -1.46319,-0.14413 -0.483,-0.0961 -0.95199,-0.23835 -1.40695,-0.42679 -0.45496,-0.18848 -0.88718,-0.4195 -1.296654,-0.69309 -0.409454,-0.27359 -0.788292,-0.58447 -1.136513,-0.93271 -0.34822,-0.34823 -0.659126,-0.72708 -0.932724,-1.13653 -0.27359,-0.40949 -0.504615,-0.84171 -0.693069,-1.29666 -0.188454,-0.45499 -0.330719,-0.92395 -0.426796,-1.40696 C 96.548035,358.48013 96.5,357.99243 96.5,357.5 c 0,-0.49249 0.04803,-0.98022 0.144104,-1.46323 0.09608,-0.483 0.238342,-0.95196 0.426796,-1.40695 0.188454,-0.45498 0.419479,-0.88721 0.693069,-1.29666 0.273598,-0.40945 0.584504,-0.78827 0.932724,-1.13647 0.348221,-0.34821 0.727059,-0.65912 1.136513,-0.93274 0.409474,-0.27359 0.841694,-0.50464 1.296654,-0.69309 0.45496,-0.18844 0.92395,-0.33072 1.40695,-0.42676 0.483,-0.096 0.97073,-0.14407 1.46319,-0.1441 0.49246,3e-5 0.98018,0.0481 1.46317,0.1441 0.483,0.096 0.95198,0.23832 1.40694,0.42676 0.45497,0.18845 0.88719,0.4195 1.29665,0.69312 0.40947,0.27359 0.78832,0.5845 1.13653,0.93271 0.34822,0.3482 0.65912,0.72705 0.93272,1.1365 0.2736,0.40946 0.50462,0.84165 0.69308,1.29663 0.18845,0.45499 0.33071,0.92395 0.42679,1.40695 0.0961,0.48301 0.14411,0.97074 0.14412,1.46323 z"
             style="fill:none;stroke:#000000;stroke-width:1;stroke-linecap:butt;stroke-linejoin:miter;stroke-miterlimit:10;stroke-dasharray:none;stroke-opacity:1"
             id="path266"
             inkscape:connector-curvature="0" /><path
             d="m 104,365 v 25 m 0,-20 H 89 m 15,0 h 15 m -15,20 -15,20 m 15,-20 15,20"
             style="fill:none;stroke:#000000;stroke-width:1;stroke-linecap:butt;stroke-linejoin:miter;stroke-miterlimit:10;stroke-dasharray:none;stroke-opacity:1"
             id="path268"
             inkscape:connector-curvature="0" /></g><g
           id="g270"
           transform="scale(2.9991949)"><text
             transform="translate(71.140625,428)"
             style="font-variant:normal;font-weight:normal;font-size:12px;font-family:'Helvetica Neue';-inkscape-font-specification:Helvetica;writing-mode:lr-tb;fill:#000000;fill-opacity:1;fill-rule:nonzero;stroke:none"
             id="text274"><tspan
               x="0 3.3339844 10.007812 16.681641 23.355469 29.355469 32.021484 38.695312 45.369141 48.703125 56.707031 63.380859"
               y="0"
               sodipodi:role="line"
               id="tspan272">Indexing Bot</tspan></text>
</g><g
           id="g276"
           transform="matrix(2.9991949,0,0,2.9991949,1.4995974,1.4995974)"><path
             d="m 20,380 h 79 v 20 H 20 Z"
             style="fill:#e1d5e7;fill-opacity:1;fill-rule:nonzero;stroke:none"
             id="path278"
             inkscape:connector-curvature="0" /><path
             d="m 20,380 h 79 v 20 H 20 Z"
             style="fill:none;stroke:#9673a6;stroke-width:1;stroke-linecap:butt;stroke-linejoin:miter;stroke-miterlimit:10;stroke-dasharray:none;stroke-opacity:1"
             id="path280"
             inkscape:connector-curvature="0" /></g><g
           id="g282"
           transform="scale(2.9991949)"><text
             transform="translate(26.140625,395)"
             style="font-variant:normal;font-weight:normal;font-size:12px;font-family:'Helvetica Neue';-inkscape-font-specification:Helvetica;writing-mode:lr-tb;fill:#000000;fill-opacity:1;fill-rule:nonzero;stroke:none"
             id="text286"><tspan
               x="0 3.3339844 10.007812 16.681641 23.355469 29.355469 32.021484 38.695312 45.369141 48.703125 56.707031 63.380859"
               y="0"
               sodipodi:role="line"
               id="tspan284">Indexing Bot</tspan></text>
</g><g
           id="g288"
           transform="matrix(2.9991949,0,0,2.9991949,1.4995974,1.4995974)"><path
             d="M 329,250 124.53,366.84"
             style="fill:none;stroke:#b85450;stroke-width:1;stroke-linecap:butt;stroke-linejoin:miter;stroke-miterlimit:10;stroke-dasharray:none;stroke-opacity:1"
             id="path290"
             inkscape:connector-curvature="0" /><path
             d="m 119.97,369.45001 4.34,-6.52002 0.22,3.91001 3.25,2.17001 z"
             style="fill:#b85450;fill-opacity:1;fill-rule:nonzero;stroke:none"
             id="path292"
             inkscape:connector-curvature="0" /><path
             d="m 119.97,369.45001 4.34,-6.52002 0.22,3.91001 3.25,2.17001 z"
             style="fill:none;stroke:#b85450;stroke-width:1;stroke-linecap:butt;stroke-linejoin:miter;stroke-miterlimit:10;stroke-dasharray:none;stroke-opacity:1"
             id="path294"
             inkscape:connector-curvature="0" /></g><g
           id="g296"
           transform="scale(2.9991949)"><path
             d="m 225,294 h 33 v 13 h -33 z"
             style="fill:#ffffff;fill-opacity:1;fill-rule:nonzero;stroke:none"
             id="path298"
             inkscape:connector-curvature="0" /><text
             transform="translate(224.98438,304)"
             style="font-variant:normal;font-weight:normal;font-size:11px;font-family:'Helvetica Neue';-inkscape-font-specification:Helvetica;writing-mode:lr-tb;fill:#ff0303;fill-opacity:1;fill-rule:nonzero;stroke:none"
             id="text302"><tspan
               x="0 6.1176758 8.5615234 14.061523 17.117676 23.235352 26.898438"
               y="0"
               sodipodi:role="line"
               id="tspan300">picture</tspan></text>
</g><g
           id="g304"
           transform="matrix(2.9991949,0,0,2.9991949,1.4995974,1.4995974)"><path
             d="m 620,360 c 6e-5,1.31003 -0.0963,2.61694 -0.28888,3.92068 -0.19263,1.30375 -0.48065,2.59803 -0.86401,3.88288 -0.38336,1.28488 -0.86023,2.55414 -1.43061,3.80777 -0.57049,1.25363 -1.23175,2.48562 -1.98376,3.69592 -0.75201,1.21036 -1.59119,2.39322 -2.51752,3.54858 -0.92633,1.15537 -1.93542,2.27768 -3.02716,3.36692 -1.09173,1.08929 -2.26086,2.14026 -3.50744,3.15292 -1.24665,1.0127 -2.5647,1.98221 -3.95423,2.90857 -1.38946,0.92636 -2.84375,1.80505 -4.36279,2.63614 -1.51904,0.83108 -3.09552,1.6105 -4.72943,2.33832 -1.63385,0.72784 -3.31732,1.40054 -5.05042,2.01809 -1.73303,0.61759 -3.50732,1.17704 -5.32281,1.67835 -1.81549,0.50131 -3.66345,0.94214 -5.54389,1.32242 -1.88043,0.38028 -3.78436,0.69821 -5.71173,0.95379 -1.9273,0.25559 -3.86877,0.44761 -5.82428,0.57602 C 563.92542,399.93579 561.96503,400 560,400 c -1.96509,0 -3.92542,-0.0642 -5.88098,-0.19263 -1.95563,-0.12841 -3.89716,-0.32043 -5.82453,-0.57602 -1.9273,-0.25558 -3.83117,-0.57351 -5.7116,-0.95379 -1.8805,-0.38028 -3.72852,-0.82111 -5.54401,-1.32245 -1.81549,-0.50131 -3.58972,-1.06076 -5.32275,-1.67832 -1.73304,-0.61758 -3.41651,-1.29028 -5.05042,-2.01809 -1.63385,-0.72782 -3.21033,-1.50724 -4.72937,-2.33829 -1.51904,-0.83109 -2.97333,-1.70981 -4.36279,-2.63617 -1.38947,-0.92636 -2.70758,-1.89587 -3.95423,-2.90854 -1.24658,-1.01266 -2.4158,-2.06363 -3.50756,-3.15292 -1.09171,-1.08927 -2.10074,-2.21155 -3.02707,-3.36691 -0.92636,-1.15537 -1.76554,-2.33823 -2.51755,-3.54859 -0.75198,-1.2103 -1.41318,-2.44226 -1.98358,-3.69592 -0.57044,-1.25363 -1.04734,-2.52292 -1.43073,-3.8078 -0.38336,-1.28485 -0.67132,-2.57913 -0.86392,-3.88288 C 500.09631,362.61694 500,361.31003 500,360 c 0,-1.31003 0.0963,-2.61694 0.28891,-3.92068 0.1926,-1.30375 0.48056,-2.59809 0.86392,-3.88297 0.38339,-1.28485 0.86029,-2.55411 1.43073,-3.80774 0.5704,-1.25366 1.2316,-2.48566 1.98355,-3.69601 0.75204,-1.21033 1.59122,-2.39316 2.51758,-3.54847 0.9263,-1.15536 1.93533,-2.27771 3.02707,-3.36697 1.09176,-1.08926 2.26098,-2.14023 3.50756,-3.15289 1.24665,-1.01267 2.56476,-1.98221 3.95423,-2.90857 1.38946,-0.92633 2.84375,-1.80506 4.36279,-2.63614 1.51904,-0.83109 3.09552,-1.61057 4.72937,-2.33841 1.63391,-0.72781 3.31738,-1.40051 5.05042,-2.01804 1.73303,-0.61755 3.50726,-1.177 5.32275,-1.67834 1.81549,-0.50131 3.66351,-0.94214 5.54401,-1.32242 1.88043,-0.38028 3.7843,-0.69821 5.7116,-0.9538 1.92737,-0.25555 3.8689,-0.44754 5.82453,-0.57592 1.95556,-0.12839 3.91589,-0.1926 5.88098,-0.19263 1.96503,3e-5 3.92542,0.0642 5.88104,0.19263 1.95551,0.12838 3.89698,0.32037 5.82428,0.57592 1.92737,0.25559 3.8313,0.57352 5.71173,0.9538 1.88044,0.38028 3.7284,0.82111 5.54389,1.32242 1.81549,0.50134 3.58978,1.06079 5.32281,1.67834 1.7331,0.61753 3.41657,1.29023 5.05042,2.01804 1.63391,0.72784 3.21039,1.50732 4.72943,2.33841 1.51904,0.83108 2.97333,1.70981 4.36279,2.63614 1.38953,0.92636 2.70758,1.8959 3.95423,2.90857 1.24658,1.01266 2.41571,2.06363 3.50744,3.15289 1.09174,1.08926 2.10083,2.21158 3.02716,3.36694 0.92633,1.15534 1.76551,2.33817 2.51752,3.5485 0.75201,1.21035 1.41327,2.44235 1.9837,3.69601 0.57038,1.25363 1.04731,2.52289 1.43067,3.80774 0.38336,1.28488 0.67138,2.57922 0.86401,3.88297 0.19263,1.30374 0.28894,2.61065 0.28888,3.92068 z"
             style="fill:#d5e8d4;fill-opacity:1;fill-rule:nonzero;stroke:none"
             id="path306"
             inkscape:connector-curvature="0" /><path
             d="m 620,360 c 6e-5,1.31003 -0.0963,2.61694 -0.28888,3.92068 -0.19263,1.30375 -0.48065,2.59803 -0.86401,3.88288 -0.38336,1.28488 -0.86023,2.55414 -1.43061,3.80777 -0.57049,1.25363 -1.23175,2.48562 -1.98376,3.69592 -0.75201,1.21036 -1.59119,2.39322 -2.51752,3.54858 -0.92633,1.15537 -1.93542,2.27768 -3.02716,3.36692 -1.09173,1.08929 -2.26086,2.14026 -3.50744,3.15292 -1.24665,1.0127 -2.5647,1.98221 -3.95423,2.90857 -1.38946,0.92636 -2.84375,1.80505 -4.36279,2.63614 -1.51904,0.83108 -3.09552,1.6105 -4.72943,2.33832 -1.63385,0.72784 -3.31732,1.40054 -5.05042,2.01809 -1.73303,0.61759 -3.50732,1.17704 -5.32281,1.67835 -1.81549,0.50131 -3.66345,0.94214 -5.54389,1.32242 -1.88043,0.38028 -3.78436,0.69821 -5.71173,0.95379 -1.9273,0.25559 -3.86877,0.44761 -5.82428,0.57602 C 563.92542,399.93579 561.96503,400 560,400 c -1.96509,0 -3.92542,-0.0642 -5.88098,-0.19263 -1.95563,-0.12841 -3.89716,-0.32043 -5.82453,-0.57602 -1.9273,-0.25558 -3.83117,-0.57351 -5.7116,-0.95379 -1.8805,-0.38028 -3.72852,-0.82111 -5.54401,-1.32245 -1.81549,-0.50131 -3.58972,-1.06076 -5.32275,-1.67832 -1.73304,-0.61758 -3.41651,-1.29028 -5.05042,-2.01809 -1.63385,-0.72782 -3.21033,-1.50724 -4.72937,-2.33829 -1.51904,-0.83109 -2.97333,-1.70981 -4.36279,-2.63617 -1.38947,-0.92636 -2.70758,-1.89587 -3.95423,-2.90854 -1.24658,-1.01266 -2.4158,-2.06363 -3.50756,-3.15292 -1.09171,-1.08927 -2.10074,-2.21155 -3.02707,-3.36691 -0.92636,-1.15537 -1.76554,-2.33823 -2.51755,-3.54859 -0.75198,-1.2103 -1.41318,-2.44226 -1.98358,-3.69592 -0.57044,-1.25363 -1.04734,-2.52292 -1.43073,-3.8078 -0.38336,-1.28485 -0.67132,-2.57913 -0.86392,-3.88288 C 500.09631,362.61694 500,361.31003 500,360 c 0,-1.31003 0.0963,-2.61694 0.28891,-3.92068 0.1926,-1.30375 0.48056,-2.59809 0.86392,-3.88297 0.38339,-1.28485 0.86029,-2.55411 1.43073,-3.80774 0.5704,-1.25366 1.2316,-2.48566 1.98355,-3.69601 0.75204,-1.21033 1.59122,-2.39316 2.51758,-3.54847 0.9263,-1.15536 1.93533,-2.27771 3.02707,-3.36697 1.09176,-1.08926 2.26098,-2.14023 3.50756,-3.15289 1.24665,-1.01267 2.56476,-1.98221 3.95423,-2.90857 1.38946,-0.92633 2.84375,-1.80506 4.36279,-2.63614 1.51904,-0.83109 3.09552,-1.61057 4.72937,-2.33841 1.63391,-0.72781 3.31738,-1.40051 5.05042,-2.01804 1.73303,-0.61755 3.50726,-1.177 5.32275,-1.67834 1.81549,-0.50131 3.66351,-0.94214 5.54401,-1.32242 1.88043,-0.38028 3.7843,-0.69821 5.7116,-0.9538 1.92737,-0.25555 3.8689,-0.44754 5.82453,-0.57592 1.95556,-0.12839 3.91589,-0.1926 5.88098,-0.19263 1.96503,3e-5 3.92542,0.0642 5.88104,0.19263 1.95551,0.12838 3.89698,0.32037 5.82428,0.57592 1.92737,0.25559 3.8313,0.57352 5.71173,0.9538 1.88044,0.38028 3.7284,0.82111 5.54389,1.32242 1.81549,0.50134 3.58978,1.06079 5.32281,1.67834 1.7331,0.61753 3.41657,1.29023 5.05042,2.01804 1.63391,0.72784 3.21039,1.50732 4.72943,2.33841 1.51904,0.83108 2.97333,1.70981 4.36279,2.63614 1.38953,0.92636 2.70758,1.8959 3.95423,2.90857 1.24658,1.01266 2.41571,2.06363 3.50744,3.15289 1.09174,1.08926 2.10083,2.21158 3.02716,3.36694 0.92633,1.15534 1.76551,2.33817 2.51752,3.5485 0.75201,1.21035 1.41327,2.44235 1.9837,3.69601 0.57038,1.25363 1.04731,2.52289 1.43067,3.80774 0.38336,1.28488 0.67138,2.57922 0.86401,3.88297 0.19263,1.30374 0.28894,2.61065 0.28888,3.92068 z"
             style="fill:none;stroke:#82b366;stroke-width:1;stroke-linecap:butt;stroke-linejoin:miter;stroke-miterlimit:10;stroke-dasharray:none;stroke-opacity:1"
             id="path308"
             inkscape:connector-curvature="0" /></g><g
           id="g310"
           transform="scale(2.9991949)"><text
             transform="translate(537.98438,365)"
             style="font-variant:normal;font-weight:normal;font-size:12px;font-family:'Helvetica Neue';-inkscape-font-specification:Helvetica;writing-mode:lr-tb;fill:#000000;fill-opacity:1;fill-rule:nonzero;stroke:none"
             id="text314"><tspan
               x="0 7.3300781 14.003906 18 26.666016 33.339844 37.335938"
               y="0"
               sodipodi:role="line"
               id="tspan312">Forward</tspan></text>
</g><g
           id="g316"
           transform="matrix(2.9991949,0,0,2.9991949,1.4995974,1.4995974)"><path
             d="m 645,335 h 60 v 20 h -60 z"
             style="fill:#e1d5e7;fill-opacity:1;fill-rule:nonzero;stroke:none"
             id="path318"
             inkscape:connector-curvature="0" /><path
             d="m 645,335 h 60 v 20 h -60 z"
             style="fill:none;stroke:#9673a6;stroke-width:1;stroke-linecap:butt;stroke-linejoin:miter;stroke-miterlimit:10;stroke-dasharray:none;stroke-opacity:1"
             id="path320"
             inkscape:connector-curvature="0" /></g><g
           id="g322"
           transform="scale(2.9991949)"><text
             transform="translate(655.64063,350)"
             style="font-variant:normal;font-weight:normal;font-size:12px;font-family:'Helvetica Neue';-inkscape-font-specification:Helvetica;writing-mode:lr-tb;fill:#000000;fill-opacity:1;fill-rule:nonzero;stroke:none"
             id="text326"><tspan
               x="0 3.3339844 10.007812 16.681641 23.355469 26.689453 29.355469 32.689453"
               y="0"
               sodipodi:role="line"
               id="tspan324">Identity</tspan></text>
</g><g
           id="g328"
           transform="matrix(2.9991949,0,0,2.9991949,1.4995974,1.4995974)"><path
             d="m 645,365 h 60 v 20 h -60 z"
             style="fill:#dae8fc;fill-opacity:1;fill-rule:nonzero;stroke:none"
             id="path330"
             inkscape:connector-curvature="0" /><path
             d="m 645,365 h 60 v 20 h -60 z"
             style="fill:none;stroke:#6c8ebf;stroke-width:1;stroke-linecap:butt;stroke-linejoin:miter;stroke-miterlimit:10;stroke-dasharray:none;stroke-opacity:1"
             id="path332"
             inkscape:connector-curvature="0" /></g><g
           id="g334"
           transform="scale(2.9991949)"><text
             transform="translate(657.32813,380)"
             style="font-variant:normal;font-weight:normal;font-size:12px;font-family:'Helvetica Neue';-inkscape-font-specification:Helvetica;writing-mode:lr-tb;fill:#000000;fill-opacity:1;fill-rule:nonzero;stroke:none"
             id="text338"><tspan
               x="0 9.3339844 18 24.673828 31.347656"
               y="0"
               sodipodi:role="line"
               id="tspan336">Owner</tspan></text>
</g><g
           id="g340"
           transform="matrix(2.9991949,0,0,2.9991949,1.4995974,1.4995974)"><path
             d="m 725,335 h 60 v 20 h -60 z"
             style="fill:#fff2cc;fill-opacity:1;fill-rule:nonzero;stroke:none"
             id="path342"
             inkscape:connector-curvature="0" /><path
             d="m 725,335 h 60 v 20 h -60 z"
             style="fill:none;stroke:#d6b656;stroke-width:1;stroke-linecap:butt;stroke-linejoin:miter;stroke-miterlimit:10;stroke-dasharray:none;stroke-opacity:1"
             id="path344"
             inkscape:connector-curvature="0" /></g><g
           id="g346"
           transform="scale(2.9991949)"><text
             transform="translate(740.65625,350)"
             style="font-variant:normal;font-weight:normal;font-size:12px;font-family:'Helvetica Neue';-inkscape-font-specification:Helvetica;writing-mode:lr-tb;fill:#000000;fill-opacity:1;fill-rule:nonzero;stroke:none"
             id="text350"><tspan
               x="0 8.6660156 15.339844 22.013672"
               y="0"
               sodipodi:role="line"
               id="tspan348">Read</tspan></text>
</g><g
           id="g352"
           transform="matrix(2.9991949,0,0,2.9991949,1.4995974,1.4995974)"><path
             d="m 683,90 h 101 v 20 H 683 Z"
             style="fill:#dae8fc;fill-opacity:1;fill-rule:nonzero;stroke:none"
             id="path354"
             inkscape:connector-curvature="0" /><path
             d="m 683,90 h 101 v 20 H 683 Z"
             style="fill:none;stroke:#6c8ebf;stroke-width:1;stroke-linecap:butt;stroke-linejoin:miter;stroke-miterlimit:10;stroke-dasharray:none;stroke-opacity:1"
             id="path356"
             inkscape:connector-curvature="0" /></g><g
           id="g358"
           transform="scale(2.9991949)"><text
             transform="translate(714.8125,105)"
             style="font-variant:normal;font-weight:normal;font-size:12px;font-family:'Helvetica Neue';-inkscape-font-specification:Helvetica;writing-mode:lr-tb;fill:#000000;fill-opacity:1;fill-rule:nonzero;stroke:none"
             id="text362"><tspan
               x="0 9.9960938 16.669922 20.003906 26.677734 33.351562"
               y="0"
               sodipodi:role="line"
               id="tspan360">Mother</tspan></text>
</g><g
           id="g364"
           transform="matrix(2.9991949,0,0,2.9991949,1.4995974,1.4995974)"><path
             d="m 683,120 h 101 v 20 H 683 Z"
             style="fill:#fff2cc;fill-opacity:1;fill-rule:nonzero;stroke:none"
             id="path366"
             inkscape:connector-curvature="0" /><path
             d="m 683,120 h 101 v 20 H 683 Z"
             style="fill:none;stroke:#d6b656;stroke-width:1;stroke-linecap:butt;stroke-linejoin:miter;stroke-miterlimit:10;stroke-dasharray:none;stroke-opacity:1"
             id="path368"
             inkscape:connector-curvature="0" /></g><g
           id="g370"
           transform="scale(2.9991949)"><text
             transform="translate(685.125,135)"
             style="font-variant:normal;font-weight:normal;font-size:12px;font-family:'Helvetica Neue';-inkscape-font-specification:Helvetica;writing-mode:lr-tb;fill:#000000;fill-opacity:1;fill-rule:nonzero;stroke:none"
             id="text374"><tspan
               x="0 9.9960938 16.669922 20.003906 26.677734 33.351562 36.691406 40.025391 43.359375 52.025391 58.699219 65.373047 68.707031 72.041016 80.044922 86.71875 93.392578"
               y="0"
               sodipodi:role="line"
               id="tspan372">Mother, Dad, Aunt</tspan></text>
</g></g></g></g></svg>